<svg width="907" height="1200" viewBox="0 0 907 1200" fill="none" xmlns="http://www.w3.org/2000/svg">
<g id="contactScreen">
<path id="Rectangle 199" d="M817.747 39.0605C830.664 42.9681 839.479 54.8978 839.421 68.3926L835.87 898.711L834.323 898.361L742.218 877.479L739.197 876.794V885.354C739.197 886.39 738.253 887.17 737.235 886.974L719.474 883.544V9.33203L817.747 39.0605Z" fill="#1CADAE" stroke="#007F7E" stroke-width="4.94727"/>
<path id="Rectangle 198" d="M709.844 9.86719C732.207 7.12082 751.837 24.7781 751.466 47.3066L737.888 871.558C486.816 836.436 340.295 829.598 90.5752 849.858L65.625 123.083C64.9652 103.864 79.0978 87.3255 98.1846 84.9814L709.844 9.86719Z" fill="#F9DBC1" stroke="#007F7E" stroke-width="8.24545"/>
<g id="Bottom stand">
<path id="Polygon 16" d="M90.6981 856.93C389.819 846.894 559.411 832.952 839.333 907.579L905.9 1080.23C869.963 1051.95 836.031 1026.7 803.812 1004.43C800.563 1008.67 795.115 1063.28 777.435 1058C763.557 1053.85 740.047 991.422 718.249 982.566C660.783 959.22 548.487 915.087 505.003 915.423C392.049 916.298 255.412 955.924 149.797 1079.69C166.41 982.088 131.795 1000.96 3.06681 1117.09L90.6981 856.93Z" fill="#87C9BF"/>
<g id="Hover">
<path id="Ellipse 202" d="M452.829 1107.01C486.705 1107.01 517.214 1111.2 539.117 1117.87C550.094 1121.21 558.677 1125.1 564.425 1129.24C570.271 1133.45 572.434 1137.33 572.434 1140.55C572.434 1143.78 570.27 1147.66 564.425 1151.87C558.677 1156 550.094 1159.9 539.117 1163.24C517.214 1169.91 486.705 1174.09 452.829 1174.09C418.954 1174.09 388.446 1169.91 366.543 1163.24C355.565 1159.9 346.981 1156 341.233 1151.87C335.388 1147.66 333.226 1143.78 333.226 1140.55C333.226 1137.33 335.388 1133.45 341.233 1129.24C346.981 1125.1 355.565 1121.21 366.543 1117.87C388.446 1111.2 418.954 1107.01 452.829 1107.01Z" stroke="#EEE0B3" stroke-width="8.24545"/>
<path id="Ellipse 201" d="M452.83 1069.35C521.021 1069.35 582.666 1073.56 627.183 1080.33C649.474 1083.73 667.289 1087.74 679.44 1092.11C685.54 1094.3 689.968 1096.51 692.794 1098.61C695.723 1100.79 696.159 1102.26 696.159 1102.89C696.159 1103.52 695.723 1104.99 692.794 1107.17C689.968 1109.27 685.54 1111.47 679.44 1113.67C667.289 1118.04 649.474 1122.05 627.183 1125.44C582.666 1132.22 521.021 1136.43 452.83 1136.43C384.64 1136.43 322.994 1132.22 278.477 1125.44C256.186 1122.05 238.371 1118.04 226.22 1113.67C220.12 1111.47 215.692 1109.27 212.866 1107.17C209.937 1104.99 209.501 1103.52 209.501 1102.89C209.501 1102.26 209.937 1100.79 212.866 1098.61C215.692 1096.51 220.12 1094.3 226.22 1092.11C238.371 1087.74 256.186 1083.73 278.477 1080.33C322.994 1073.56 384.64 1069.35 452.83 1069.35Z" stroke="#DFCEA3" stroke-width="8.24545"/>
<path id="Ellipse 200" d="M452.83 1031.69C555.233 1031.69 647.881 1035.9 714.874 1042.7C748.395 1046.1 775.361 1050.14 793.876 1054.58C803.166 1056.81 810.104 1059.09 814.634 1061.33C816.908 1062.46 818.353 1063.47 819.176 1064.29C819.686 1064.8 819.835 1065.11 819.875 1065.23L819.875 1065.23C819.835 1065.34 819.686 1065.65 819.176 1066.16C818.353 1066.98 816.907 1068 814.634 1069.12C810.104 1071.37 803.166 1073.65 793.876 1075.88C775.361 1080.32 748.395 1084.36 714.874 1087.76C647.881 1094.55 555.233 1098.77 452.83 1098.77C350.426 1098.77 257.777 1094.55 190.784 1087.76C157.263 1084.36 130.299 1080.32 111.784 1075.88C102.493 1073.65 95.555 1071.37 91.0255 1069.12C88.7517 1067.99 87.3058 1066.98 86.4824 1066.16C85.97 1065.65 85.8224 1065.34 85.7835 1065.23C85.8224 1065.11 85.9699 1064.81 86.4824 1064.29C87.3058 1063.47 88.7517 1062.46 91.0255 1061.33C95.555 1059.09 102.493 1056.81 111.784 1054.58C130.299 1050.14 157.263 1046.1 190.784 1042.7C257.777 1035.9 350.426 1031.69 452.83 1031.69Z" stroke="#C89A5C" stroke-width="8.24545"/>
</g>
<path id="Polygon 15" d="M838.44 897L905.902 1080.23C814.467 878.944 790.848 875.268 809.848 1110.36L737.72 873.086C794.411 877.487 810.44 878.08 838.44 897Z" fill="#007F7E"/>
<path id="Subtract" d="M86.6038 854.316C343.63 832.786 486.39 836.111 737.718 873.087L809.847 1110.36C514.435 839.472 337.775 837.389 3.05895 1116.4L86.6038 854.316ZM766.321 1017.89C761.717 1017.97 758.049 1021.76 758.13 1026.37C758.21 1030.97 762.008 1034.64 766.612 1034.56C771.216 1034.48 774.884 1030.68 774.803 1026.08C774.723 1021.47 770.925 1017.81 766.321 1017.89ZM59.6405 1011.01C55.0362 1011.09 51.3688 1014.89 51.4491 1019.49C51.5294 1024.1 55.3271 1027.76 59.9313 1027.68C64.5355 1027.6 68.2029 1023.81 68.1227 1019.2C68.0423 1014.6 64.2448 1010.93 59.6405 1011.01ZM738.593 956.633C730.92 956.767 724.807 963.096 724.941 970.77C725.075 978.443 731.404 984.555 739.078 984.422C746.752 984.288 752.865 977.959 752.731 970.285C752.597 962.611 746.267 956.499 738.593 956.633ZM89.7196 946.939C82.0459 947.073 75.9332 953.401 76.067 961.075C76.2009 968.749 82.5305 974.861 90.2043 974.727C97.878 974.593 103.991 968.264 103.857 960.591C103.723 952.917 97.3934 946.805 89.7196 946.939ZM700.163 886.685C689.42 886.873 680.863 895.734 681.05 906.477C681.238 917.22 690.099 925.778 700.843 925.59C711.586 925.403 720.143 916.541 719.956 905.798C719.768 895.054 710.906 886.497 700.163 886.685ZM127.464 878.814C116.721 879.002 108.163 887.863 108.35 898.606C108.537 909.349 117.399 917.907 128.142 917.72C138.886 917.532 147.443 908.67 147.255 897.927C147.068 887.184 138.207 878.627 127.464 878.814Z" fill="#1CADAE"/>
</g>
</g>
</svg>
