<svg width="344" height="1200" viewBox="0 0 344 1200" fill="none" xmlns="http://www.w3.org/2000/svg">
<g id="sideBar">
<path id="Vector" d="M162 16.3934C162 7.3396 166.477 0 172 0C177.523 0 182 7.33959 182 16.3934V1183.61C182 1192.66 177.523 1200 172 1200C166.477 1200 162 1192.66 162 1183.61V16.3934Z" fill="#007F7E"/>
<path id="Vector_2" d="M301 353C301 424.797 172 399.091 172 483C172 399.091 43 424.797 43 353C43 281.203 172 286.818 172 223C172 288 301 281.203 301 353Z" fill="#007F7E"/>
<path id="Vector_3" d="M301 1043C301 1115.35 172 1089.45 172 1174C172 1089.45 43 1115.35 43 1043C43 970.651 172 976.309 172 912C172 977.5 301 970.651 301 1043Z" fill="#007F7E"/>
<path id="Vector_4" d="M269 587C269 651.617 172 628.482 172 704C172 628.482 75 651.617 75 587C75 522.383 172 527.436 172 470C172 528.5 269 522.383 269 587Z" fill="#007F7E"/>
<path id="Vector_5" d="M344 129C344 186.438 172 165.873 172 233C172 165.873 0 186.438 0 129C0 71.5624 172 76.0545 172 25C172 77 344 71.5624 344 129Z" fill="#007F7E"/>
<path id="Vector_6" d="M344 807C344 870.513 172 847.773 172 922C172 847.773 0 870.513 0 807C0 743.487 172 748.455 172 692C172 749.5 344 743.487 344 807Z" fill="#007F7E"/>
<path id="Vector_7" d="M289.088 353.213C289.088 417.948 172.044 394.77 172.044 470.426C172.044 394.77 55 417.948 55 353.213C55 288.478 172.044 293.541 172.044 236C172.044 294.607 289.088 288.478 289.088 353.213Z" fill="#87C9BF"/>
<path id="Vector_8" d="M289.088 1043.03C289.088 1108.22 172.044 1084.88 172.044 1161.07C172.044 1084.88 55 1108.22 55 1043.03C55 977.845 172.044 982.943 172.044 925C172.044 984.016 289.088 977.845 289.088 1043.03Z" fill="#87C9BF"/>
<path id="Vector_9" d="M256.232 586.738C256.232 645.135 171.616 624.226 171.616 692.475C171.616 624.226 87 645.135 87 586.738C87 528.34 171.616 532.908 171.616 481C171.616 533.869 256.232 528.34 256.232 586.738Z" fill="#87C9BF"/>
<path id="Vector_10" d="M329.251 129.094C329.251 181.06 171.626 162.454 171.626 223.188C171.626 162.454 14 181.06 14 129.094C14 77.1273 171.626 81.1915 171.626 35C171.626 82.0469 329.251 77.1273 329.251 129.094Z" fill="#87C9BF"/>
<path id="Vector_11" d="M329 806.5C329 864.766 171.5 843.905 171.5 912C171.5 843.905 14 864.766 14 806.5C14 748.234 171.5 752.791 171.5 701C171.5 753.75 329 748.234 329 806.5Z" fill="#87C9BF"/>
</g>
</svg>
