<svg width="1762" height="526" viewBox="0 0 1762 526" fill="none" xmlns="http://www.w3.org/2000/svg">
<path d="M880.99 133.688C1119.93 157.175 1339.56 175.153 1499.67 198.356C1579.85 209.976 1644.57 222.839 1689.12 238.186C1711.43 245.872 1728.14 254.007 1739.15 262.557C1750.12 271.08 1754.5 279.247 1754.5 287.153C1754.5 294.795 1749.84 303.022 1737.8 311.795C1725.81 320.525 1707.74 328.848 1683.93 336.725C1636.42 352.447 1568.13 365.736 1485.62 377.637C1320.84 401.4 1101.22 419.378 881.009 440.617C643.822 417.13 424.199 399.154 263.645 375.949C183.247 364.33 118.188 351.467 73.3633 336.117C50.9118 328.429 34.0694 320.29 22.9746 311.733C11.9071 303.198 7.5 295.032 7.5 287.153C7.5 279.303 11.948 271.106 23.1543 262.501C34.3744 253.886 51.3892 245.674 74.0264 237.907C119.221 222.4 184.724 209.349 265.409 197.605C426.528 174.155 646.168 156.174 880.99 133.688Z" fill="#C8D06D" stroke="#6E8336" stroke-width="15"/>
<path d="M339.558 120.204L193.641 138.674" stroke="black" stroke-linecap="round"/>
<ellipse cx="6.4189" cy="5.33022" rx="6.4189" ry="5.33022" transform="matrix(0.633756 0.452897 -0.530686 0.773502 338.657 113.165)" fill="black"/>
<ellipse cx="6.4189" cy="5.33022" rx="6.4189" ry="5.33022" transform="matrix(0.633756 0.452897 -0.530686 0.773502 192.657 132.165)" fill="black"/>
<path d="M183.729 110.04L349.589 148.696" stroke="black" stroke-linecap="round"/>
<circle cx="183.999" cy="110.165" r="5" fill="black"/>
<circle cx="350" cy="149.165" r="5" fill="black"/>
<path d="M266.599 98.1465V160.894" stroke="black" stroke-linecap="round"/>
<circle cx="266.499" cy="98.165" r="5" fill="black"/>
<circle cx="266.499" cy="162.165" r="5" fill="black"/>
<path d="M493.109 33.4092L611.905 92.7305" stroke="black" stroke-linecap="round"/>
<ellipse cx="7.19953" cy="4.50833" rx="7.19953" ry="4.50833" transform="matrix(0.149993 -0.678099 1.09322 0.186739 486.999 36.9224)" fill="black"/>
<ellipse cx="7.19953" cy="4.50833" rx="7.19953" ry="4.50833" transform="matrix(0.149993 -0.678099 1.09322 0.186739 606 96.9224)" fill="black"/>
<path d="M543.115 111.364L561.475 14.7884" stroke="black" stroke-linecap="round"/>
<ellipse cx="6.40472" cy="5.84858" rx="6.40472" ry="5.84858" transform="matrix(-0.318554 -0.712724 0.781495 -0.346602 540.079 117.342)" fill="black"/>
<ellipse cx="6.40472" cy="5.84858" rx="6.40472" ry="5.84858" transform="matrix(-0.318554 -0.712724 0.781495 -0.346602 558.08 21.3354)" fill="black"/>
<path d="M472.04 78.3599L633.395 47.6995" stroke="black" stroke-linecap="round"/>
<ellipse cx="6.40472" cy="5.84858" rx="6.40472" ry="5.84858" transform="matrix(-0.318554 -0.712724 0.781495 -0.346602 469.073 84.3413)" fill="black"/>
<ellipse cx="6.40472" cy="5.84858" rx="6.40472" ry="5.84858" transform="matrix(-0.318554 -0.712724 0.781495 -0.346602 630.073 54.3413)" fill="black"/>
<path d="M567.985 476.139L640.962 392.624" stroke="black" stroke-linecap="round"/>
<ellipse cx="4.63583" cy="5.47889" rx="4.63583" ry="5.47889" transform="matrix(-1.07822 -0.0270077 0.0158175 -0.912457 573.997 480.4)" fill="black"/>
<ellipse cx="4.63583" cy="5.47889" rx="4.63583" ry="5.47889" transform="matrix(-1.07822 -0.0270077 0.0158175 -0.912457 645.997 397.4)" fill="black"/>
<path d="M681.956 431.959L527.082 437.062" stroke="black" stroke-linecap="round"/>
<ellipse cx="5.04551" cy="5.06335" rx="5.04551" ry="5.06335" transform="matrix(-0.822921 0.552126 -0.548669 -0.821033 688.86 433.464)" fill="black"/>
<ellipse cx="5.04551" cy="5.06335" rx="5.04551" ry="5.06335" transform="matrix(-0.822921 0.552126 -0.548669 -0.821033 536.86 438.466)" fill="black"/>
<path d="M642.204 481.503L566.547 387.014" stroke="black" stroke-linecap="round"/>
<ellipse cx="5.04551" cy="5.06335" rx="5.04551" ry="5.06335" transform="matrix(-0.822921 0.552126 -0.548669 -0.821033 648.861 482.465)" fill="black"/>
<ellipse cx="5.04551" cy="5.06335" rx="5.04551" ry="5.06335" transform="matrix(-0.822921 0.552126 -0.548669 -0.821033 571.861 385.466)" fill="black"/>
<path d="M1486.11 438.274L1310.96 485.572" stroke="black" stroke-linecap="round"/>
<circle cx="1486" cy="438.151" r="5" fill="black"/>
<circle cx="1311" cy="485.151" r="5" fill="black"/>
<path d="M1312.2 447.313L1485.44 476.468" stroke="black" stroke-linecap="round"/>
<ellipse cx="5.98639" cy="5.11509" rx="5.98639" ry="5.11509" transform="matrix(0.718824 -0.42532 0.479786 0.851652 1305 445.244)" fill="black"/>
<ellipse cx="5.98639" cy="5.11509" rx="5.98639" ry="5.11509" transform="matrix(0.718824 -0.42532 0.479786 0.851652 1478 474.244)" fill="black"/>
<path d="M1398.82 423.602V500.377" stroke="black" stroke-linecap="round"/>
<circle cx="1399" cy="423.151" r="5" fill="black"/>
<circle cx="1399" cy="498.151" r="5" fill="black"/>
<path d="M1121.54 86.7842L1217.74 190.045" stroke="black" stroke-linecap="round"/>
<ellipse cx="1123.57" cy="88.7233" rx="5" ry="5" transform="matrix(-0.121869 -0.989569 0.995532 -0.121869 1172.18 1211.39)" fill="black"/>
<ellipse cx="1217.57" cy="189.726" rx="5" ry="5" transform="matrix(-0.121869 -0.989569 0.995532 -0.121869 1177.07 1417.72)" fill="black"/>
<path d="M1157.04 193.933L1182.07 82.5444" stroke="black" stroke-linecap="round"/>
<ellipse cx="4.74462" cy="5.32356" rx="4.74462" ry="5.32356" transform="matrix(-0.639409 -0.837677 0.75357 -0.560596 1156.06 202.072)" fill="black"/>
<ellipse cx="4.74462" cy="5.32356" rx="4.74462" ry="5.32356" transform="matrix(-0.639409 -0.837677 0.75357 -0.560596 1181.06 89.0718)" fill="black"/>
<path d="M1108.95 142.905L1230.46 133.548" stroke="black" stroke-linecap="round"/>
<ellipse cx="1108.57" cy="142.725" rx="5" ry="5" transform="matrix(-0.121869 -0.989569 0.995532 -0.121869 1101.58 1257.12)" fill="black"/>
<ellipse cx="1229.57" cy="132.726" rx="5" ry="5" transform="matrix(-0.121869 -0.989569 0.995532 -0.121869 1247.28 1365.64)" fill="black"/>
<path d="M431.07 271.691C431.71 275.132 431.228 278.159 429.622 280.773C428.006 283.326 425.699 285.576 422.702 287.523C419.694 289.409 416.225 291.031 412.294 292.388C408.352 293.684 404.37 294.764 400.349 295.63C396.389 296.489 392.587 297.175 388.943 297.687C385.361 298.193 382.389 298.571 380.027 298.822C380.427 300.972 380.791 303.095 381.117 305.191C381.494 307.219 381.883 309.308 382.283 311.459C382.386 312.012 382.563 312.964 382.815 314.316C383.066 315.668 383.366 317.108 383.714 318.638C384.05 320.106 384.432 321.475 384.858 322.746C385.347 324.01 385.812 324.806 386.253 325.136L369.939 326.868C370.243 326.459 370.331 325.228 370.202 323.174C370.074 321.12 369.809 318.673 369.407 315.833C369.068 312.987 368.59 309.905 367.972 306.587C367.417 303.262 366.865 300.125 366.317 297.176C365.757 294.165 365.228 291.495 364.732 289.167C364.297 286.832 364 285.234 363.84 284.374C363.737 283.821 363.554 282.838 363.292 281.425C363.091 280.005 362.788 278.377 362.383 276.54C362.04 274.696 361.618 272.768 361.116 270.753C360.677 268.732 360.173 266.874 359.604 265.18C359.036 263.486 358.425 262.078 357.773 260.957C357.121 259.836 356.467 259.216 355.811 259.098L369.235 257.672C370.105 257.58 371.255 257.458 372.685 257.306C374.165 257.086 375.351 256.992 376.244 257.022C379.538 256.672 382.813 256.387 386.067 256.167C389.322 255.947 392.625 255.815 395.976 255.773C397.937 255.753 400.096 255.774 402.453 255.837C404.872 255.894 407.288 256.107 409.702 256.477C412.166 256.78 414.572 257.276 416.919 257.967C419.266 258.658 421.404 259.59 423.333 260.763C425.263 261.937 426.902 263.423 428.251 265.223C429.662 267.015 430.601 269.171 431.07 271.691ZM414.179 273.39C413.848 271.608 412.921 270.203 411.398 269.174C409.865 268.083 408.004 267.278 405.815 266.759C403.678 266.171 401.301 265.828 398.684 265.73C396.118 265.564 393.581 265.552 391.072 265.693C388.614 265.766 386.359 265.911 384.308 266.129C382.257 266.347 380.641 266.518 379.46 266.644L374.985 267.119C375.248 270.913 375.696 274.688 376.331 278.442C376.967 282.197 377.633 285.949 378.33 289.697C380.816 289.433 383.265 289.142 385.678 288.823C388.152 288.497 390.615 288.111 393.067 287.662C394.847 287.348 397.044 286.895 399.659 286.304C402.275 285.713 404.72 284.89 406.995 283.834C409.333 282.771 411.234 281.41 412.7 279.75C414.155 278.029 414.648 275.909 414.179 273.39Z" fill="black"/>
<path d="M536.416 290.635C536.931 291.163 537.96 292.249 539.501 293.894C541.042 295.539 542.813 297.415 544.813 299.522C546.875 301.632 549.023 303.84 551.255 306.147C553.55 308.457 555.672 310.602 557.622 312.581C559.639 314.501 561.37 316.125 562.815 317.452C564.261 318.779 565.199 319.485 565.63 319.57L546.251 318.547C545.922 318.029 545.446 317.41 544.823 316.689C544.206 315.906 543.554 315.152 542.869 314.428C542.189 313.642 541.506 312.886 540.821 312.162C540.197 311.441 539.656 310.85 539.197 310.388C536.416 307.239 533.594 304.182 530.733 301.217C527.939 298.192 525.05 295.194 522.063 292.222C519.476 292.398 516.928 292.483 514.42 292.475C511.917 292.405 509.381 292.365 506.811 292.355C506.593 294.032 506.406 295.71 506.25 297.391C506.101 299.009 505.948 300.658 505.792 302.338C505.741 302.898 505.651 303.863 505.525 305.232C505.398 306.601 505.294 308.065 505.212 309.624C505.13 311.184 505.123 312.622 505.189 313.938C505.324 315.196 505.561 316.022 505.901 316.415L489.517 315.549C489.926 315.196 490.348 314.03 490.782 312.052C491.221 310.011 491.636 307.563 492.026 304.707C492.416 301.85 492.795 298.775 493.162 295.48C493.536 292.122 493.864 288.919 494.146 285.869C494.428 282.82 494.648 280.111 494.804 277.743C495.023 275.378 495.176 273.729 495.262 272.795C495.314 272.235 495.406 271.239 495.538 269.808C495.733 268.38 495.886 266.731 495.996 264.86C496.169 262.993 496.288 261.03 496.353 258.969C496.481 256.912 496.501 255.006 496.412 253.25C496.324 251.495 496.116 250.014 495.789 248.808C495.461 247.603 494.994 246.89 494.387 246.671C494.575 246.681 495.167 246.712 496.166 246.765C497.227 246.821 498.475 246.887 499.911 246.962C501.409 247.042 502.969 247.124 504.592 247.21C506.277 247.299 507.837 247.381 509.273 247.457C510.771 247.536 512.016 247.633 513.009 247.748C514.008 247.801 514.6 247.832 514.788 247.842C517.035 247.961 519.869 248.173 523.29 248.479C526.779 248.726 530.438 249.169 534.268 249.809C538.159 250.453 542.031 251.314 545.882 252.393C549.739 253.41 553.156 254.778 556.133 256.499C559.172 258.223 561.581 260.32 563.359 262.791C565.143 265.199 565.88 268.083 565.569 271.444C565.269 274.68 564.074 277.431 561.982 279.697C559.897 281.901 557.375 283.738 554.417 285.207C551.521 286.68 548.432 287.862 545.151 288.752C541.938 289.582 539.027 290.21 536.416 290.635ZM548.641 270.362C548.814 268.495 548.177 266.898 546.732 265.571C545.293 264.182 543.36 263.048 540.932 262.169C538.573 261.231 535.882 260.495 532.858 259.96C529.897 259.428 526.986 259.024 524.127 258.748C521.273 258.41 518.629 258.176 516.195 258.048C513.823 257.922 512.013 257.827 510.765 257.761C510.13 261.229 509.589 264.703 509.142 268.182C508.763 271.601 508.412 275.053 508.089 278.539L507.856 281.059C510.296 281.125 512.736 281.192 515.176 281.258C517.615 281.324 520.03 281.327 522.419 281.266C523.61 281.266 525.057 281.217 526.76 281.12C528.462 281.022 530.264 280.867 532.165 280.655C534.072 280.38 535.957 280.011 537.819 279.546C539.743 279.085 541.463 278.457 542.979 277.661C544.558 276.869 545.841 275.874 546.83 274.675C547.882 273.48 548.485 272.042 548.641 270.362Z" fill="black"/>
<path d="M658.225 256.327C663.274 255.446 668.446 255.394 673.742 256.17C679.038 256.946 683.998 258.536 688.624 260.94C693.293 263.274 697.393 266.399 700.925 270.316C704.5 274.162 707.1 278.745 708.726 284.065C710.333 289.325 710.557 294.197 709.398 298.68C708.301 303.152 706.272 307.126 703.313 310.601C700.336 314.017 696.666 316.86 692.301 319.132C687.937 321.405 683.323 322.965 678.459 323.813C673.164 324.737 667.905 324.93 662.683 324.393C657.503 323.785 652.677 322.424 648.204 320.308C643.775 318.121 639.852 315.154 636.437 311.406C633.004 307.598 630.438 302.914 628.739 297.355C627.058 291.856 626.678 286.792 627.598 282.161C628.579 277.52 630.478 273.443 633.296 269.93C636.113 266.416 639.695 263.494 644.041 261.162C648.387 258.83 653.115 257.218 658.225 256.327ZM644.227 294.559C645.25 297.907 646.803 300.972 648.886 303.757C651.031 306.531 653.528 308.865 656.377 310.761C659.208 312.597 662.271 313.92 665.566 314.73C668.924 315.529 672.357 315.623 675.866 315.011C679.13 314.442 682.038 313.242 684.592 311.411C687.189 309.51 689.257 307.261 690.798 304.663C692.382 301.994 693.413 299.107 693.891 296.002C694.35 292.837 694.096 289.67 693.128 286.502C691.795 282.139 689.997 278.486 687.736 275.544C685.457 272.542 682.89 270.188 680.034 268.483C677.16 266.717 674.09 265.584 670.824 265.084C667.54 264.523 664.235 264.533 660.91 265.113C657.462 265.714 654.48 266.99 651.963 268.94C649.428 270.83 647.408 273.134 645.904 275.852C644.461 278.559 643.559 281.549 643.198 284.823C642.879 288.027 643.223 291.272 644.227 294.559Z" fill="black"/>
<path d="M828.506 247.808C828.22 248.018 828.066 248.719 828.042 249.91C828.073 251.034 828.151 252.28 828.279 253.647C828.459 254.947 828.636 256.216 828.808 257.454C828.981 258.692 829.092 259.496 829.144 259.868C829.842 264.882 830.575 269.925 831.343 274.996C832.103 280.005 832.832 285.017 833.529 290.031C834.27 295.355 833.796 299.868 832.106 303.569C830.478 307.266 828.066 310.305 824.87 312.687C821.665 315.007 817.912 316.776 813.609 317.994C809.306 319.212 804.88 320.001 800.332 320.362C797.341 320.6 794.187 320.569 790.87 320.269C787.553 319.969 784.46 319.244 781.591 318.095C778.776 316.879 776.364 315.162 774.355 312.943C772.274 310.667 770.98 307.703 770.472 304.051C770.308 302.875 770.265 301.658 770.342 300.4C770.419 299.142 770.696 297.962 771.172 296.86L785.127 298.005C784.318 299.885 784.055 301.846 784.339 303.889C784.641 306.055 785.389 307.811 786.584 309.155C787.841 310.495 789.34 311.534 791.08 312.272C792.812 312.948 794.638 313.398 796.559 313.621C798.534 313.777 800.424 313.783 802.231 313.64C808.648 313.13 813.301 311.259 816.19 308.025C819.079 304.791 820.071 299.925 819.167 293.425L817.578 282.003C817.518 281.57 817.367 280.487 817.126 278.754C816.947 277.015 816.694 274.97 816.367 272.618C816.031 270.203 815.647 267.668 815.214 265.011C814.844 262.349 814.437 259.878 813.994 257.597C813.613 255.312 813.19 253.405 812.725 251.877C812.315 250.283 811.936 249.374 811.59 249.151L828.506 247.808Z" fill="black"/>
<path d="M891.149 314.914C891.567 314.566 892.015 313.407 892.495 311.437C892.981 309.404 893.452 306.964 893.908 304.117C894.426 301.273 894.879 298.175 895.267 294.822C895.717 291.474 896.119 288.279 896.471 285.236C896.823 282.194 897.101 279.522 897.305 277.221C897.578 274.862 897.769 273.217 897.877 272.285C897.941 271.727 898.053 270.764 898.211 269.399C898.369 268.033 898.514 266.509 898.646 264.829C898.84 263.153 899.014 261.381 899.167 259.515C899.328 257.586 899.408 255.808 899.408 254.182C899.47 252.559 899.444 251.15 899.332 249.954C899.226 248.696 899.011 247.837 898.687 247.377C898.522 247.179 898.325 246.978 898.097 246.775C897.932 246.577 897.766 246.378 897.601 246.18L965.493 250.855L963.267 261.124C962.97 260.979 962.201 260.834 960.961 260.69C959.783 260.55 958.325 260.391 956.586 260.213C954.847 260.036 952.98 259.881 950.984 259.749C948.996 259.555 947.097 259.398 945.288 259.279C943.542 259.163 941.983 259.06 940.611 258.97C939.239 258.879 938.304 258.817 937.805 258.784C929.822 258.256 921.798 257.82 913.731 257.474C913.06 260.558 912.513 263.65 912.091 266.75C911.677 269.788 911.286 272.89 910.919 276.057L954.004 278.435L952.757 288.394C952.515 288.315 951.898 288.212 950.908 288.084C949.987 287.898 948.871 287.761 947.562 287.675C946.259 287.526 944.828 287.4 943.269 287.297C941.78 287.136 940.349 287.01 938.977 286.92C937.667 286.833 936.482 286.755 935.422 286.685C934.362 286.615 933.645 286.567 933.271 286.543C925.475 286.027 917.638 285.603 909.758 285.27C909.435 288.064 909.08 290.856 908.694 293.645C908.378 296.377 908.058 299.14 907.734 301.934L907.303 305.659C911.709 306.138 916.095 306.521 920.46 306.81C924.888 307.103 929.316 307.395 933.744 307.688C934.181 307.717 935.085 307.777 936.457 307.867C937.829 307.958 939.419 308.063 941.228 308.183C943.036 308.302 944.907 308.426 946.84 308.554C948.843 308.623 950.718 308.716 952.464 308.832C954.217 308.885 955.69 308.92 956.882 308.936C958.137 308.956 958.927 308.915 959.253 308.811L959.085 319.216L891.149 314.914Z" fill="black"/>
<path d="M1089.64 286.085C1090.5 284.578 1091.3 282.856 1092.04 280.919C1092.83 278.916 1093.09 276.955 1092.83 275.036C1092.52 272.869 1091.53 271.165 1089.85 269.921C1088.21 268.611 1086.32 267.636 1084.15 266.994C1081.98 266.353 1079.72 265.969 1077.37 265.842C1075.09 265.711 1073.1 265.712 1071.42 265.845C1067.37 266.167 1063.36 267.236 1059.39 269.054C1055.49 270.866 1052.04 273.236 1049.05 276.165C1046.05 279.094 1043.72 282.472 1042.05 286.297C1040.44 290.118 1039.93 294.195 1040.53 298.528C1040.9 301.128 1041.68 303.381 1042.89 305.288C1044.16 307.19 1045.71 308.788 1047.53 310.083C1049.41 311.373 1051.48 312.43 1053.73 313.252C1055.99 314.074 1058.31 314.672 1060.69 315.046C1063.14 315.416 1065.56 315.63 1067.96 315.69C1070.36 315.749 1072.59 315.697 1074.65 315.534C1079.76 315.128 1084.77 314.292 1089.7 313.024C1094.63 311.757 1099.49 310.245 1104.28 308.487L1109.27 317.854C1106.71 318.934 1103.98 319.902 1101.08 320.758C1098.23 321.61 1095.31 322.343 1092.31 322.956C1089.37 323.565 1086.39 324.084 1083.36 324.512C1080.4 324.935 1077.51 325.258 1074.71 325.481C1071.97 325.698 1068.86 325.758 1065.38 325.658C1061.96 325.554 1058.49 325.235 1054.95 324.703C1051.4 324.108 1047.88 323.261 1044.39 322.161C1040.96 321.057 1037.83 319.585 1034.99 317.745C1032.15 315.905 1029.76 313.685 1027.82 311.084C1025.95 308.479 1024.77 305.413 1024.28 301.884C1023.68 297.613 1023.94 293.556 1025.04 289.713C1026.2 285.803 1027.94 282.223 1030.25 278.972C1032.57 275.659 1035.4 272.68 1038.74 270.036C1042.08 267.33 1045.67 265.011 1049.49 263.08C1053.31 261.087 1057.25 259.523 1061.31 258.387C1065.37 257.188 1069.32 256.436 1073.19 256.129C1076.8 255.842 1080.52 255.829 1084.33 256.089C1088.21 256.345 1091.79 257.156 1095.06 258.523C1098.39 259.823 1101.22 261.789 1103.54 264.422C1105.91 266.987 1107.41 270.498 1108.03 274.956C1108.25 276.565 1108.35 278.184 1108.32 279.814C1108.3 281.443 1108.15 283.051 1107.86 284.638L1089.64 286.085Z" fill="black"/>
<path d="M1246.28 265.032C1246.04 264.898 1245.2 264.771 1243.77 264.652C1242.4 264.535 1240.72 264.437 1238.72 264.358C1236.79 264.219 1234.66 264.104 1232.35 264.012C1230.11 263.861 1227.96 263.744 1225.9 263.663C1223.9 263.583 1222.12 263.513 1220.56 263.451C1219.06 263.392 1218.06 263.352 1217.56 263.333C1216.74 267.989 1216.13 272.654 1215.74 277.328C1215.42 282.004 1215.09 286.68 1214.77 291.357C1214.56 294.35 1214.33 297.31 1214.06 300.238C1213.79 303.166 1213.56 306.126 1213.35 309.119C1213.31 309.618 1213.25 310.584 1213.15 312.018C1213.05 313.39 1212.98 314.857 1212.94 316.418C1212.89 317.979 1212.92 319.418 1213.01 320.735C1213.17 322.054 1213.43 322.877 1213.78 323.204L1197.39 322.554C1197.85 322.198 1198.25 321.025 1198.57 319.038C1198.96 316.99 1199.32 314.534 1199.65 311.671C1200.03 308.811 1200.34 305.697 1200.58 302.33C1200.87 298.965 1201.13 295.756 1201.34 292.701C1201.55 289.645 1201.7 286.963 1201.8 284.654C1201.97 282.284 1202.08 280.632 1202.15 279.697C1202.34 276.891 1202.5 274.084 1202.64 271.276C1202.83 268.47 1202.93 265.661 1202.94 262.847C1198.88 262.687 1194.85 262.558 1190.85 262.462C1186.85 262.304 1182.82 262.176 1178.76 262.078C1178.13 262.053 1177.35 262.053 1176.41 262.078C1175.41 262.039 1174.38 261.998 1173.32 261.956C1172.26 261.914 1171.25 261.906 1170.31 261.931C1169.31 261.954 1168.52 262.016 1167.95 262.119L1168.35 252.381L1247.07 255.029L1246.28 265.032Z" fill="black"/>
<path d="M1350.83 286.027C1350.83 284.647 1350.8 283.301 1350.75 281.99C1350.68 280.618 1350.49 279.232 1350.16 277.832C1349.52 275.093 1348.5 272.907 1347.1 271.274C1345.68 269.58 1343.98 268.331 1342.01 267.528C1340.08 266.655 1337.96 266.185 1335.64 266.117C1333.37 265.979 1331.03 266.072 1328.62 266.394C1327.13 266.592 1325.45 266.94 1323.59 267.44C1321.71 267.878 1319.81 268.477 1317.88 269.236C1315.99 269.926 1314.15 270.769 1312.33 271.763C1310.52 272.758 1308.97 273.906 1307.68 275.208C1306.45 276.501 1305.51 277.975 1304.88 279.629C1304.29 281.213 1304.21 282.949 1304.65 284.836C1305.04 286.479 1305.96 287.831 1307.42 288.891C1308.93 289.883 1310.71 290.681 1312.77 291.285C1314.89 291.881 1317.19 292.297 1319.67 292.531C1322.16 292.765 1324.59 292.942 1326.98 293.063C1329.36 293.123 1331.57 293.142 1333.61 293.122C1335.63 293.04 1337.26 293.012 1338.48 293.038C1340.02 293.084 1341.89 293.149 1344.08 293.233C1346.32 293.249 1348.65 293.378 1351.07 293.62C1353.49 293.862 1355.91 294.231 1358.32 294.725C1360.8 295.211 1363.07 295.912 1365.14 296.829C1367.19 297.686 1368.95 298.8 1370.42 300.173C1371.88 301.485 1372.83 303.115 1373.29 305.063C1373.77 307.132 1373.61 309.037 1372.8 310.776C1372.05 312.507 1370.86 314.109 1369.23 315.582C1367.64 316.986 1365.76 318.241 1363.59 319.345C1361.47 320.381 1359.25 321.303 1356.95 322.112C1354.71 322.913 1352.53 323.549 1350.4 324.02C1348.28 324.492 1346.47 324.826 1344.98 325.024C1338.42 325.899 1331.79 326.249 1325.11 326.072C1318.41 325.835 1311.71 324.938 1305.03 323.381C1304.35 323.22 1303.57 323.041 1302.7 322.844C1301.81 322.586 1300.89 322.333 1299.93 322.083C1298.98 321.833 1298.07 321.64 1297.21 321.504C1296.35 321.368 1295.6 321.311 1294.97 321.333C1295.25 320.918 1295.69 320.326 1296.28 319.558C1296.93 318.781 1297.53 317.947 1298.09 317.057C1298.71 316.159 1299.25 315.333 1299.72 314.581C1300.23 313.76 1300.5 313.159 1300.54 312.777C1306.76 315.337 1313.27 316.98 1320.09 317.704C1326.96 318.42 1333.59 318.353 1339.97 317.503C1341.02 317.362 1342.65 317.083 1344.85 316.664C1347.1 316.176 1349.29 315.54 1351.4 314.756C1353.58 313.964 1355.41 313.03 1356.88 311.955C1358.4 310.811 1358.99 309.509 1358.65 308.048C1358.2 306.1 1356.94 304.668 1354.87 303.751C1352.87 302.825 1350.32 302.192 1347.24 301.849C1344.14 301.446 1340.69 301.279 1336.87 301.348C1333.04 301.356 1329.11 301.346 1325.08 301.318C1321.11 301.282 1317.18 301.147 1313.29 300.911C1309.39 300.615 1305.84 300.022 1302.63 299.132C1299.4 298.181 1296.66 296.821 1294.39 295.052C1292.19 293.274 1290.73 290.864 1290.02 287.821C1289.27 284.595 1289.25 281.647 1289.97 278.979C1290.75 276.302 1292.03 273.871 1293.82 271.687C1295.68 269.495 1297.88 267.57 1300.43 265.912C1303.04 264.246 1305.81 262.811 1308.72 261.608C1311.69 260.395 1314.69 259.4 1317.7 258.623C1320.71 257.845 1323.52 257.283 1326.12 256.936C1330.46 256.358 1334.66 256.144 1338.72 256.294C1342.77 256.443 1346.44 257.211 1349.7 258.596C1353.02 259.973 1355.89 262.133 1358.3 265.075C1360.77 268.009 1362.59 271.971 1363.76 276.962C1364.04 278.18 1364.26 279.375 1364.4 280.548C1364.61 281.712 1364.79 282.911 1364.95 284.145L1350.83 286.027Z" fill="black"/>
</svg>
