<svg width="93" height="105" viewBox="0 0 93 105" fill="none" xmlns="http://www.w3.org/2000/svg">
<path d="M45.8232 2.9082L85.6045 37.6006L88.6201 40.2314H56.2617C59.6564 57.0433 60.6161 69.9009 59.6611 79.4746C58.6736 89.3739 55.6121 95.9837 50.8271 99.6992C46.021 103.431 39.8234 103.977 33.1875 102.533C26.5543 101.09 19.2804 97.6219 12.0332 93.0234L11.4727 92.668L11.3594 92.0146L6.14062 62.0146L5.46973 58.1582L8.5459 60.5781C12.5606 63.7364 17.118 67.5509 21.6016 70.6348C23.8342 72.1704 26.0028 73.4914 28.0225 74.4365C30.0566 75.3883 31.8458 75.9132 33.3408 75.9541C34.7832 75.9935 35.9265 75.5876 36.8447 74.6572C37.8081 73.681 38.6667 71.9819 39.1738 69.166C40.1648 63.6635 39.7068 54.5282 36.9551 40.2314H3.80859L6.5957 37.6338L43.8145 2.94141L44.8037 2.01953L45.8232 2.9082Z" fill="#B5302B" stroke="black" stroke-width="3"/>
<circle cx="17.8369" cy="81.2573" r="3.5" fill="#EEE0B3" stroke="#C89A5C"/>
<circle cx="30.8369" cy="89.2573" r="3.5" fill="#EEE0B3" stroke="#C89A5C"/>
<circle cx="44.8369" cy="91.2573" r="3.5" fill="#EEE0B3" stroke="#C89A5C"/>
<circle cx="48.8369" cy="77.2573" r="3.5" fill="#EEE0B3" stroke="#C89A5C"/>
<circle cx="48.8369" cy="61.2573" r="3.5" fill="#EEE0B3" stroke="#C89A5C"/>
<circle cx="46.8369" cy="46.2573" r="3.5" fill="#EEE0B3" stroke="#C89A5C"/>
<circle cx="44.8369" cy="15.2573" r="3.5" fill="#EEE0B3" stroke="#C89A5C"/>
<circle cx="45.8369" cy="31.2573" r="3.5" fill="#EEE0B3" stroke="#C89A5C"/>
</svg>
