<svg width="1281" height="618" viewBox="0 0 1281 618" fill="none" xmlns="http://www.w3.org/2000/svg">
<path d="M155.833 70.8755L1278 81.9776L41.0061 582.761L449.674 260.232L155.833 70.8755Z" fill="#C89A5C" stroke="#007F7E" stroke-width="10"/>
<circle cx="509.61" cy="316" r="37.6554" fill="#B5302B"/>
<circle cx="492.864" cy="200" r="37.6554" fill="#B5302B"/>
<circle cx="404.316" cy="158.5" r="29.5864" fill="#B5302B"/>
<circle cx="333.13" cy="128" r="21.5174" fill="#B5302B"/>
<circle cx="352.807" cy="405" r="21.5174" fill="#B5302B"/>
<circle cx="267.153" cy="106.138" r="16.138" fill="#B5302B"/>
<circle cx="292.618" cy="440" r="16.138" fill="#B5302B"/>
<circle cx="235.084" cy="472.241" r="10.7587" fill="#B5302B"/>
<circle cx="421.678" cy="366.5" r="29.5864" fill="#B5302B"/>
<rect x="583.148" y="129" width="657.455" height="150" fill="#007F7E"/>
<path d="M727.109 258.64C716.954 258.64 708.122 256.805 700.613 253.136C693.104 249.381 687.344 244.091 683.333 237.264C679.322 230.437 677.317 222.501 677.317 213.456C677.317 200.912 679.664 189.776 684.357 180.048C689.136 170.32 695.578 162.811 703.685 157.52C711.792 152.144 720.794 149.456 730.693 149.456C739.909 149.456 746.906 151.845 751.685 156.624C756.464 161.317 758.853 167.547 758.853 175.312C758.853 180.517 757.914 184.699 756.037 187.856C754.245 191.013 751.642 192.592 748.229 192.592C745.84 192.592 743.962 192.037 742.597 190.928C741.232 189.819 740.549 188.197 740.549 186.064C740.549 185.296 740.72 183.888 741.061 181.84C741.573 179.28 741.829 177.232 741.829 175.696C741.829 167.931 737.69 164.048 729.413 164.048C723.781 164.048 718.405 165.883 713.285 169.552C708.165 173.221 704.026 178.64 700.869 185.808C697.712 192.891 696.133 201.339 696.133 211.152C696.133 221.392 698.992 229.328 704.709 234.96C710.426 240.507 718.874 243.28 730.053 243.28C735.6 243.28 741.189 242.597 746.821 241.232C752.538 239.781 758.853 237.605 765.765 234.704C767.045 234.192 768.112 233.936 768.965 233.936C770.33 233.936 771.354 234.448 772.037 235.472C772.72 236.496 773.061 237.819 773.061 239.44C773.061 244.645 770.245 248.485 764.613 250.96C758.554 253.605 752.24 255.568 745.669 256.848C739.184 258.043 732.997 258.64 727.109 258.64ZM827.049 218.704C828.158 218.704 829.012 219.259 829.609 220.368C830.206 221.477 830.505 222.885 830.505 224.592C830.505 228.688 829.268 231.12 826.793 231.888C821.673 233.68 816.041 234.704 809.897 234.96C808.276 242.128 805.076 247.888 800.297 252.24C795.518 256.507 790.1 258.64 784.041 258.64C778.921 258.64 774.526 257.403 770.857 254.928C767.273 252.453 764.542 249.168 762.665 245.072C760.788 240.976 759.849 236.539 759.849 231.76C759.849 225.275 761.086 219.515 763.561 214.48C766.036 209.36 769.449 205.392 773.801 202.576C778.153 199.675 782.974 198.224 788.265 198.224C794.75 198.224 799.956 200.485 803.881 205.008C807.892 209.445 810.238 214.949 810.921 221.52C814.932 221.264 819.71 220.411 825.257 218.96C825.94 218.789 826.537 218.704 827.049 218.704ZM785.065 245.072C787.796 245.072 790.142 243.963 792.105 241.744C794.153 239.525 795.518 236.325 796.201 232.144C793.556 230.352 791.508 228.005 790.057 225.104C788.692 222.203 788.009 219.131 788.009 215.888C788.009 214.523 788.137 213.157 788.393 211.792H787.753C784.34 211.792 781.481 213.456 779.177 216.784C776.958 220.027 775.849 224.635 775.849 230.608C775.849 235.301 776.745 238.885 778.537 241.36C780.414 243.835 782.59 245.072 785.065 245.072ZM828.607 258.64C825.364 258.64 823.06 256.933 821.695 253.52C820.415 250.107 819.775 244.645 819.775 237.136C819.775 226.043 821.354 215.504 824.511 205.52C825.279 203.045 826.516 201.253 828.223 200.144C830.015 198.949 832.49 198.352 835.647 198.352C837.354 198.352 838.548 198.565 839.231 198.992C839.914 199.419 840.255 200.229 840.255 201.424C840.255 202.789 839.615 205.861 838.335 210.64C837.482 214.053 836.799 217.04 836.287 219.6C835.775 222.16 835.348 225.317 835.007 229.072C837.823 221.733 840.98 215.76 844.479 211.152C847.978 206.544 851.391 203.259 854.719 201.296C858.132 199.333 861.247 198.352 864.063 198.352C869.61 198.352 872.383 201.125 872.383 206.672C872.383 210 871.444 216.016 869.567 224.72C867.946 232.144 867.135 237.051 867.135 239.44C867.135 242.853 868.372 244.56 870.847 244.56C872.554 244.56 874.559 243.536 876.863 241.488C879.252 239.355 882.41 235.941 886.335 231.248C887.359 230.053 888.511 229.456 889.791 229.456C890.9 229.456 891.754 229.968 892.351 230.992C893.034 232.016 893.375 233.424 893.375 235.216C893.375 238.629 892.564 241.275 890.943 243.152C887.274 247.675 883.306 251.387 879.039 254.288C874.858 257.189 870.079 258.64 864.703 258.64C860.351 258.64 857.066 257.403 854.847 254.928C852.628 252.368 851.519 248.699 851.519 243.92C851.519 241.531 852.116 237.264 853.311 231.12C854.42 225.744 854.975 222.032 854.975 219.984C854.975 218.619 854.506 217.936 853.567 217.936C852.458 217.936 850.879 219.387 848.831 222.288C846.868 225.104 844.82 228.859 842.687 233.552C840.639 238.245 838.975 243.195 837.695 248.4C836.756 252.411 835.647 255.141 834.367 256.592C833.172 257.957 831.252 258.64 828.607 258.64ZM940.107 229.456C941.216 229.456 942.07 229.968 942.667 230.992C943.35 232.016 943.691 233.424 943.691 235.216C943.691 238.629 942.88 241.275 941.259 243.152C937.59 247.675 933.579 251.387 929.227 254.288C924.875 257.189 919.883 258.64 914.251 258.64C896.843 258.64 888.139 246.395 888.139 221.904C888.139 218.149 888.267 214.352 888.523 210.512H883.531C880.971 210.512 879.222 210.043 878.283 209.104C877.43 208.165 877.003 206.672 877.003 204.624C877.003 199.845 878.923 197.456 882.763 197.456H890.059C891.51 188.069 893.728 179.493 896.715 171.728C899.702 163.963 903.286 157.776 907.467 153.168C911.734 148.56 916.299 146.256 921.163 146.256C924.747 146.256 927.563 147.835 929.611 150.992C931.659 154.149 932.683 158.117 932.683 162.896C932.683 176.123 927.136 187.643 916.043 197.456H930.379C931.744 197.456 932.726 197.755 933.323 198.352C933.92 198.949 934.219 200.059 934.219 201.68C934.219 207.568 929.398 210.512 919.755 210.512H904.139C903.968 214.779 903.883 218.107 903.883 220.496C903.883 229.371 904.907 235.6 906.955 239.184C909.088 242.768 912.416 244.56 916.939 244.56C920.608 244.56 923.851 243.451 926.667 241.232C929.483 239.013 932.811 235.685 936.651 231.248C937.675 230.053 938.827 229.456 940.107 229.456ZM917.707 158.544C916.427 158.544 914.976 160.165 913.355 163.408C911.819 166.565 910.326 171.003 908.875 176.72C907.51 182.352 906.358 188.624 905.419 195.536C910.454 191.184 914.208 186.32 916.683 180.944C919.243 175.483 920.523 170.533 920.523 166.096C920.523 161.061 919.584 158.544 917.707 158.544ZM949.013 258.64C943.722 258.64 939.498 256.72 936.341 252.88C933.184 249.04 931.605 244.005 931.605 237.776C931.605 230.949 933.184 224.507 936.341 218.448C939.498 212.304 943.68 207.397 948.885 203.728C954.176 199.973 959.765 198.096 965.653 198.096C967.53 198.096 968.768 198.48 969.365 199.248C970.048 199.931 970.602 201.211 971.029 203.088C972.821 202.747 974.698 202.576 976.661 202.576C980.842 202.576 982.933 204.069 982.933 207.056C982.933 208.848 982.293 213.115 981.013 219.856C979.05 229.669 978.069 236.496 978.069 240.336C978.069 241.616 978.368 242.64 978.965 243.408C979.648 244.176 980.501 244.56 981.525 244.56C983.146 244.56 985.109 243.536 987.413 241.488C989.717 239.355 992.832 235.941 996.757 231.248C997.781 230.053 998.933 229.456 1000.21 229.456C1001.32 229.456 1002.18 229.968 1002.77 230.992C1003.46 232.016 1003.8 233.424 1003.8 235.216C1003.8 238.629 1002.99 241.275 1001.37 243.152C997.866 247.504 994.154 251.173 990.229 254.16C986.304 257.147 982.506 258.64 978.837 258.64C976.021 258.64 973.418 257.701 971.029 255.824C968.725 253.861 966.976 251.216 965.781 247.888C961.344 255.056 955.754 258.64 949.013 258.64ZM953.621 245.712C955.498 245.712 957.29 244.603 958.997 242.384C960.704 240.165 961.941 237.221 962.709 233.552L967.445 210C963.861 210.085 960.533 211.451 957.461 214.096C954.474 216.656 952.085 220.069 950.293 224.336C948.501 228.603 947.605 233.125 947.605 237.904C947.605 240.549 948.117 242.512 949.141 243.792C950.25 245.072 951.744 245.712 953.621 245.712ZM1017.84 258.64C1009.48 258.64 1002.95 256.293 998.258 251.6C993.65 246.821 991.346 240.549 991.346 232.784C991.346 225.872 992.711 219.813 995.442 214.608C998.173 209.403 1001.71 205.392 1006.07 202.576C1010.42 199.76 1014.98 198.352 1019.76 198.352C1024.46 198.352 1028.08 199.76 1030.64 202.576C1033.29 205.307 1034.61 208.848 1034.61 213.2C1034.61 216.784 1033.8 219.813 1032.18 222.288C1030.64 224.763 1028.59 226 1026.03 226C1024.41 226 1023.09 225.616 1022.07 224.848C1021.13 224.08 1020.66 223.013 1020.66 221.648C1020.66 221.051 1020.74 220.368 1020.91 219.6C1021.08 218.832 1021.21 218.277 1021.3 217.936C1021.72 216.656 1021.94 215.461 1021.94 214.352C1021.94 213.243 1021.64 212.389 1021.04 211.792C1020.53 211.195 1019.76 210.896 1018.74 210.896C1016.78 210.896 1014.94 211.792 1013.23 213.584C1011.53 215.291 1010.16 217.637 1009.14 220.624C1008.11 223.611 1007.6 226.896 1007.6 230.48C1007.6 240.379 1011.91 245.328 1020.53 245.328C1024.03 245.328 1027.78 244.176 1031.79 241.872C1035.89 239.483 1039.9 235.941 1043.83 231.248C1044.85 230.053 1046 229.456 1047.28 229.456C1048.39 229.456 1049.24 229.968 1049.84 230.992C1050.52 232.016 1050.87 233.424 1050.87 235.216C1050.87 238.459 1050.06 241.104 1048.43 243.152C1044.42 248.101 1039.6 251.941 1033.97 254.672C1028.42 257.317 1023.05 258.64 1017.84 258.64ZM1062.26 210.512C1062.09 214.779 1062.01 218.107 1062.01 220.496C1062.01 226.64 1062.31 231.461 1062.9 234.96C1063.59 238.373 1064.65 240.848 1066.1 242.384C1067.64 243.835 1069.73 244.56 1072.38 244.56C1073.74 244.56 1075.36 244.133 1077.24 243.28C1079.12 242.427 1080.82 241.317 1082.36 239.952C1083.3 239.099 1084.24 238.672 1085.18 238.672C1086.2 238.672 1087.01 239.269 1087.61 240.464C1088.29 241.573 1088.63 242.939 1088.63 244.56C1088.63 246.181 1088.29 247.76 1087.61 249.296C1087.01 250.832 1086.07 252.112 1084.79 253.136C1080.35 256.805 1075.32 258.64 1069.69 258.64C1061.58 258.64 1055.65 255.269 1051.9 248.528C1048.14 241.701 1046.26 232.827 1046.26 221.904C1046.26 218.149 1046.39 214.352 1046.65 210.512H1041.66C1039.1 210.512 1037.35 210.043 1036.41 209.104C1035.55 208.165 1035.13 206.672 1035.13 204.624C1035.13 199.845 1037.05 197.456 1040.89 197.456H1048.18C1049.63 188.069 1051.85 179.493 1054.84 171.728C1057.83 163.963 1061.41 157.776 1065.59 153.168C1069.86 148.56 1074.42 146.256 1079.29 146.256C1082.87 146.256 1085.69 147.835 1087.74 150.992C1089.78 154.149 1090.81 158.117 1090.81 162.896C1090.81 176.123 1085.26 187.643 1074.17 197.456H1088.5C1089.87 197.456 1090.85 197.755 1091.45 198.352C1092.05 198.949 1092.34 200.059 1092.34 201.68C1092.34 207.568 1087.52 210.512 1077.88 210.512H1062.26ZM1075.83 158.544C1074.55 158.544 1073.1 160.165 1071.48 163.408C1069.94 166.565 1068.45 171.003 1067 176.72C1065.63 182.352 1064.48 188.624 1063.54 195.536C1068.58 191.184 1072.33 186.32 1074.81 180.944C1077.37 175.483 1078.65 170.533 1078.65 166.096C1078.65 161.061 1077.71 158.544 1075.83 158.544Z" fill="white"/>
<path d="M1190.73 138.121C1194.88 146.815 1199.15 153.75 1205.28 159.419C1211.44 165.122 1219.35 169.436 1230.59 173.086C1221.13 176.144 1213.46 179.612 1206.94 184.898C1200.15 190.407 1194.77 197.775 1189.83 208.407C1185.88 198.563 1181.22 191.499 1174.72 186.073C1168.29 180.704 1160.21 177.064 1149.66 173.826C1160.5 170.09 1168.61 165.969 1175.09 160.358C1181.65 154.678 1186.41 147.585 1190.73 138.121Z" fill="white" stroke="white" stroke-width="4"/>
<path d="M1138.5 179.022C1141.03 184.094 1143.73 188.264 1147.49 191.739C1151.29 195.255 1156.06 197.969 1162.57 200.267C1157.14 202.138 1152.58 204.321 1148.65 207.511C1144.45 210.918 1141.08 215.373 1138.04 221.568C1135.56 215.859 1132.6 211.6 1128.59 208.249C1124.65 204.958 1119.8 202.65 1113.7 200.641C1119.98 198.347 1124.84 195.768 1128.8 192.335C1132.84 188.839 1135.83 184.553 1138.5 179.022Z" fill="white" stroke="white" stroke-width="4"/>
<path d="M1172.85 218.897C1174.53 221.993 1176.36 224.621 1178.8 226.87C1181.29 229.166 1184.32 230.993 1188.27 232.566C1185.08 233.734 1182.31 235.136 1179.88 237.102C1177.19 239.278 1175.03 242.06 1173.11 245.768C1171.4 242.3 1169.4 239.597 1166.77 237.403C1164.22 235.269 1161.17 233.696 1157.48 232.334C1161.2 230.899 1164.2 229.246 1166.69 227.088C1169.24 224.874 1171.17 222.208 1172.85 218.897Z" fill="white" stroke="white" stroke-width="4"/>
<path d="M599.366 201.953C603.736 211.642 608.334 219.513 614.808 226.022C621.341 232.591 629.625 237.618 641.108 241.866C631.485 245.383 623.511 249.443 616.674 255.469C609.446 261.839 603.672 270.242 598.421 282.098C594.191 271.166 589.17 263.134 582.269 256.877C575.471 250.714 567.04 246.451 556.274 242.717C567.36 238.412 575.831 233.607 582.684 227.161C589.648 220.611 594.771 212.524 599.366 201.953Z" stroke="white" stroke-width="6"/>
<path d="M541.386 249.625C544.133 255.424 547.13 260.289 551.212 264.394C555.365 268.571 560.51 271.835 567.343 274.592C561.645 276.849 556.766 279.51 552.5 283.271C547.855 287.365 544.09 292.626 540.696 299.756C537.951 293.247 534.672 288.262 530.279 284.279C525.99 280.391 520.795 277.602 514.402 275.213C521.017 272.447 526.266 269.316 530.611 265.229C535.057 261.048 538.418 255.995 541.386 249.625Z" stroke="white" stroke-width="6"/>
<path d="M580.657 291.765C582.566 295.385 584.672 298.521 587.392 301.247C590.192 304.053 593.545 306.332 597.795 308.305C594.439 309.718 591.465 311.423 588.828 313.741C585.826 316.377 583.387 319.688 581.245 323.98C579.268 319.932 576.956 316.692 574.001 314.008C571.148 311.417 567.805 309.449 563.844 307.749C567.781 306.015 571.034 304.001 573.78 301.418C576.611 298.755 578.789 295.595 580.657 291.765Z" stroke="white" stroke-width="6"/>
</svg>
