<svg width="1248" height="522" viewBox="0 0 1248 522" fill="none" xmlns="http://www.w3.org/2000/svg">
<path d="M117.924 5H1245.59L3.09766 516.886L411.766 194.356L117.924 5Z" fill="#C89A5C" stroke="#007F7E" stroke-width="10"/>
<circle cx="471.702" cy="250.124" r="37.6554" fill="#B5302B"/>
<circle cx="454.955" cy="134.124" r="37.6554" fill="#B5302B"/>
<circle cx="366.407" cy="92.6247" r="29.5864" fill="#B5302B"/>
<circle cx="295.221" cy="62.1245" r="21.5174" fill="#B5302B"/>
<circle cx="314.898" cy="339.125" r="21.5174" fill="#B5302B"/>
<circle cx="229.244" cy="40.2625" r="16.138" fill="#B5302B"/>
<circle cx="254.709" cy="374.124" r="16.138" fill="#B5302B"/>
<circle cx="197.176" cy="406.366" r="10.7587" fill="#B5302B"/>
<circle cx="383.769" cy="300.625" r="29.5864" fill="#B5302B"/>
<rect x="545.24" y="63.1245" width="657.455" height="150" fill="#007F7E"/>
<path d="M689.201 192.765C679.046 192.765 670.214 190.93 662.705 187.261C655.195 183.506 649.435 178.215 645.425 171.389C641.414 164.562 639.409 156.626 639.409 147.581C639.409 135.037 641.755 123.901 646.449 114.173C651.227 104.445 657.67 96.9352 665.777 91.6445C673.883 86.2685 682.886 83.5805 692.785 83.5805C702.001 83.5805 708.998 85.9698 713.777 90.7485C718.555 95.4418 720.945 101.671 720.945 109.437C720.945 114.642 720.006 118.823 718.129 121.981C716.337 125.138 713.734 126.717 710.321 126.717C707.931 126.717 706.054 126.162 704.689 125.053C703.323 123.943 702.641 122.322 702.641 120.189C702.641 119.421 702.811 118.013 703.153 115.965C703.665 113.405 703.921 111.357 703.921 109.821C703.921 102.055 699.782 98.1725 691.505 98.1725C685.873 98.1725 680.497 100.007 675.377 103.677C670.257 107.346 666.118 112.765 662.961 119.933C659.803 127.015 658.225 135.463 658.225 145.277C658.225 155.517 661.083 163.453 666.801 169.085C672.518 174.631 680.966 177.405 692.145 177.405C697.691 177.405 703.281 176.722 708.913 175.357C714.63 173.906 720.945 171.73 727.857 168.829C729.137 168.317 730.203 168.061 731.057 168.061C732.422 168.061 733.446 168.573 734.129 169.597C734.811 170.621 735.153 171.943 735.153 173.565C735.153 178.77 732.337 182.61 726.705 185.085C720.646 187.73 714.331 189.693 707.761 190.973C701.275 192.167 695.089 192.765 689.201 192.765ZM789.141 152.829C790.25 152.829 791.103 153.383 791.701 154.493C792.298 155.602 792.597 157.01 792.597 158.717C792.597 162.813 791.359 165.245 788.885 166.013C783.765 167.805 778.133 168.829 771.989 169.085C770.367 176.253 767.167 182.013 762.389 186.365C757.61 190.631 752.191 192.765 746.133 192.765C741.013 192.765 736.618 191.527 732.949 189.053C729.365 186.578 726.634 183.293 724.757 179.197C722.879 175.101 721.941 170.663 721.941 165.885C721.941 159.399 723.178 153.639 725.653 148.605C728.127 143.485 731.541 139.517 735.893 136.701C740.245 133.799 745.066 132.349 750.357 132.349C756.842 132.349 762.047 134.61 765.973 139.133C769.983 143.57 772.33 149.074 773.013 155.645C777.023 155.389 781.802 154.535 787.349 153.085C788.031 152.914 788.629 152.829 789.141 152.829ZM747.157 179.197C749.887 179.197 752.234 178.087 754.197 175.869C756.245 173.65 757.61 170.45 758.293 166.269C755.647 164.477 753.599 162.13 752.149 159.229C750.783 156.327 750.101 153.255 750.101 150.013C750.101 148.647 750.229 147.282 750.485 145.917H749.845C746.431 145.917 743.573 147.581 741.269 150.909C739.05 154.151 737.941 158.759 737.941 164.733C737.941 169.426 738.837 173.01 740.629 175.485C742.506 177.959 744.682 179.197 747.157 179.197ZM790.699 192.765C787.456 192.765 785.152 191.058 783.787 187.645C782.507 184.231 781.867 178.77 781.867 171.261C781.867 160.167 783.445 149.629 786.603 139.645C787.371 137.17 788.608 135.378 790.315 134.269C792.107 133.074 794.581 132.477 797.739 132.477C799.445 132.477 800.64 132.69 801.323 133.117C802.005 133.543 802.347 134.354 802.347 135.549C802.347 136.914 801.707 139.986 800.427 144.765C799.573 148.178 798.891 151.165 798.379 153.725C797.867 156.285 797.44 159.442 797.099 163.197C799.915 155.858 803.072 149.885 806.571 145.277C810.069 140.669 813.483 137.383 816.811 135.421C820.224 133.458 823.339 132.477 826.155 132.477C831.701 132.477 834.475 135.25 834.475 140.797C834.475 144.125 833.536 150.141 831.659 158.845C830.037 166.269 829.227 171.175 829.227 173.565C829.227 176.978 830.464 178.685 832.939 178.685C834.645 178.685 836.651 177.661 838.955 175.613C841.344 173.479 844.501 170.066 848.427 165.373C849.451 164.178 850.603 163.581 851.883 163.581C852.992 163.581 853.845 164.093 854.443 165.117C855.125 166.141 855.467 167.549 855.467 169.341C855.467 172.754 854.656 175.399 853.035 177.277C849.365 181.799 845.397 185.511 841.131 188.413C836.949 191.314 832.171 192.765 826.795 192.765C822.443 192.765 819.157 191.527 816.939 189.053C814.72 186.493 813.611 182.823 813.611 178.045C813.611 175.655 814.208 171.389 815.403 165.245C816.512 159.869 817.067 156.157 817.067 154.109C817.067 152.743 816.597 152.061 815.659 152.061C814.549 152.061 812.971 153.511 810.923 156.413C808.96 159.229 806.912 162.983 804.779 167.677C802.731 172.37 801.067 177.319 799.787 182.525C798.848 186.535 797.739 189.266 796.459 190.717C795.264 192.082 793.344 192.765 790.699 192.765ZM902.199 163.581C903.308 163.581 904.161 164.093 904.759 165.117C905.441 166.141 905.783 167.549 905.783 169.341C905.783 172.754 904.972 175.399 903.351 177.277C899.681 181.799 895.671 185.511 891.319 188.413C886.967 191.314 881.975 192.765 876.343 192.765C858.935 192.765 850.231 180.519 850.231 156.029C850.231 152.274 850.359 148.477 850.615 144.637H845.623C843.063 144.637 841.313 144.167 840.375 143.229C839.521 142.29 839.095 140.797 839.095 138.749C839.095 133.97 841.015 131.581 844.855 131.581H852.151C853.601 122.194 855.82 113.618 858.807 105.853C861.793 98.0872 865.377 91.9005 869.559 87.2925C873.825 82.6845 878.391 80.3805 883.255 80.3805C886.839 80.3805 889.655 81.9592 891.703 85.1165C893.751 88.2738 894.775 92.2418 894.775 97.0205C894.775 110.247 889.228 121.767 878.135 131.581H892.471C893.836 131.581 894.817 131.879 895.415 132.477C896.012 133.074 896.311 134.183 896.311 135.805C896.311 141.693 891.489 144.637 881.847 144.637H866.231C866.06 148.903 865.975 152.231 865.975 154.621C865.975 163.495 866.999 169.725 869.047 173.309C871.18 176.893 874.508 178.685 879.031 178.685C882.7 178.685 885.943 177.575 888.759 175.357C891.575 173.138 894.903 169.81 898.743 165.373C899.767 164.178 900.919 163.581 902.199 163.581ZM879.799 92.6685C878.519 92.6685 877.068 94.2898 875.447 97.5325C873.911 100.69 872.417 105.127 870.967 110.845C869.601 116.477 868.449 122.749 867.511 129.661C872.545 125.309 876.3 120.445 878.775 115.069C881.335 109.607 882.615 104.658 882.615 100.221C882.615 95.1858 881.676 92.6685 879.799 92.6685ZM911.105 192.765C905.814 192.765 901.59 190.845 898.433 187.005C895.275 183.165 893.697 178.13 893.697 171.901C893.697 165.074 895.275 158.631 898.433 152.573C901.59 146.429 905.771 141.522 910.977 137.853C916.267 134.098 921.857 132.221 927.745 132.221C929.622 132.221 930.859 132.605 931.457 133.373C932.139 134.055 932.694 135.335 933.121 137.213C934.913 136.871 936.79 136.701 938.753 136.701C942.934 136.701 945.025 138.194 945.025 141.181C945.025 142.973 944.385 147.239 943.105 153.981C941.142 163.794 940.161 170.621 940.161 174.461C940.161 175.741 940.459 176.765 941.057 177.533C941.739 178.301 942.593 178.685 943.617 178.685C945.238 178.685 947.201 177.661 949.505 175.613C951.809 173.479 954.923 170.066 958.849 165.373C959.873 164.178 961.025 163.581 962.305 163.581C963.414 163.581 964.267 164.093 964.865 165.117C965.547 166.141 965.889 167.549 965.889 169.341C965.889 172.754 965.078 175.399 963.457 177.277C959.958 181.629 956.246 185.298 952.321 188.285C948.395 191.271 944.598 192.765 940.929 192.765C938.113 192.765 935.51 191.826 933.121 189.949C930.817 187.986 929.067 185.341 927.873 182.013C923.435 189.181 917.846 192.765 911.105 192.765ZM915.713 179.837C917.59 179.837 919.382 178.727 921.089 176.509C922.795 174.29 924.033 171.346 924.801 167.677L929.537 144.125C925.953 144.21 922.625 145.575 919.553 148.221C916.566 150.781 914.177 154.194 912.385 158.461C910.593 162.727 909.697 167.25 909.697 172.029C909.697 174.674 910.209 176.637 911.233 177.917C912.342 179.197 913.835 179.837 915.713 179.837ZM979.934 192.765C971.571 192.765 965.043 190.418 960.35 185.725C955.742 180.946 953.438 174.674 953.438 166.909C953.438 159.997 954.803 153.938 957.534 148.733C960.264 143.527 963.806 139.517 968.158 136.701C972.51 133.885 977.075 132.477 981.854 132.477C986.547 132.477 990.174 133.885 992.734 136.701C995.379 139.431 996.702 142.973 996.702 147.325C996.702 150.909 995.891 153.938 994.27 156.413C992.734 158.887 990.686 160.125 988.126 160.125C986.504 160.125 985.182 159.741 984.158 158.973C983.219 158.205 982.75 157.138 982.75 155.773C982.75 155.175 982.835 154.493 983.006 153.725C983.176 152.957 983.304 152.402 983.39 152.061C983.816 150.781 984.03 149.586 984.03 148.477C984.03 147.367 983.731 146.514 983.134 145.917C982.622 145.319 981.854 145.021 980.83 145.021C978.867 145.021 977.032 145.917 975.326 147.709C973.619 149.415 972.254 151.762 971.23 154.749C970.206 157.735 969.694 161.021 969.694 164.605C969.694 174.503 974.003 179.453 982.622 179.453C986.12 179.453 989.875 178.301 993.886 175.997C997.982 173.607 1001.99 170.066 1005.92 165.373C1006.94 164.178 1008.09 163.581 1009.37 163.581C1010.48 163.581 1011.34 164.093 1011.93 165.117C1012.62 166.141 1012.96 167.549 1012.96 169.341C1012.96 172.583 1012.15 175.229 1010.53 177.277C1006.52 182.226 1001.69 186.066 996.062 188.797C990.515 191.442 985.139 192.765 979.934 192.765ZM1024.36 144.637C1024.19 148.903 1024.1 152.231 1024.1 154.621C1024.1 160.765 1024.4 165.586 1025 169.085C1025.68 172.498 1026.75 174.973 1028.2 176.509C1029.73 177.959 1031.82 178.685 1034.47 178.685C1035.83 178.685 1037.45 178.258 1039.33 177.405C1041.21 176.551 1042.92 175.442 1044.45 174.077C1045.39 173.223 1046.33 172.797 1047.27 172.797C1048.29 172.797 1049.1 173.394 1049.7 174.589C1050.38 175.698 1050.72 177.063 1050.72 178.685C1050.72 180.306 1050.38 181.885 1049.7 183.421C1049.1 184.957 1048.16 186.237 1046.88 187.261C1042.45 190.93 1037.41 192.765 1031.78 192.765C1023.67 192.765 1017.74 189.394 1013.99 182.653C1010.23 175.826 1008.36 166.951 1008.36 156.029C1008.36 152.274 1008.48 148.477 1008.74 144.637H1003.75C1001.19 144.637 999.438 144.167 998.5 143.229C997.646 142.29 997.22 140.797 997.22 138.749C997.22 133.97 999.14 131.581 1002.98 131.581H1010.28C1011.73 122.194 1013.95 113.618 1016.93 105.853C1019.92 98.0872 1023.5 91.9005 1027.68 87.2925C1031.95 82.6845 1036.52 80.3805 1041.38 80.3805C1044.96 80.3805 1047.78 81.9592 1049.83 85.1165C1051.88 88.2738 1052.9 92.2418 1052.9 97.0205C1052.9 110.247 1047.35 121.767 1036.26 131.581H1050.6C1051.96 131.581 1052.94 131.879 1053.54 132.477C1054.14 133.074 1054.44 134.183 1054.44 135.805C1054.44 141.693 1049.61 144.637 1039.97 144.637H1024.36ZM1037.92 92.6685C1036.64 92.6685 1035.19 94.2898 1033.57 97.5325C1032.04 100.69 1030.54 105.127 1029.09 110.845C1027.73 116.477 1026.57 122.749 1025.64 129.661C1030.67 125.309 1034.43 120.445 1036.9 115.069C1039.46 109.607 1040.74 104.658 1040.74 100.221C1040.74 95.1858 1039.8 92.6685 1037.92 92.6685Z" fill="white"/>
<path d="M1152.82 72.2454C1156.97 80.9397 1161.24 87.8742 1167.37 93.5433C1173.53 99.2463 1181.44 103.56 1192.68 107.21C1183.23 110.269 1175.55 113.736 1169.03 119.023C1162.25 124.531 1156.86 131.899 1151.93 142.531C1147.98 132.687 1143.31 125.623 1136.81 120.197C1130.38 114.828 1122.3 111.189 1111.76 107.95C1122.6 104.215 1130.7 100.093 1137.18 94.4825C1143.74 88.8027 1148.5 81.7092 1152.82 72.2454Z" fill="white" stroke="white" stroke-width="4"/>
<path d="M1100.59 113.147C1103.12 118.218 1105.83 122.388 1109.58 125.864C1113.38 129.379 1118.15 132.094 1124.66 134.391C1119.23 136.262 1114.67 138.446 1110.74 141.635C1106.54 145.042 1103.18 149.497 1100.13 155.692C1097.65 149.983 1094.7 145.724 1090.68 142.374C1086.74 139.082 1081.89 136.775 1075.79 134.765C1082.07 132.471 1086.93 129.892 1090.89 126.46C1094.93 122.964 1097.92 118.677 1100.59 113.147Z" fill="white" stroke="white" stroke-width="4"/>
<path d="M1134.94 153.022C1136.62 156.117 1138.46 158.746 1140.89 160.995C1143.38 163.29 1146.41 165.118 1150.36 166.69C1147.17 167.859 1144.4 169.261 1141.97 171.227C1139.28 173.403 1137.12 176.184 1135.2 179.893C1133.49 176.425 1131.49 173.721 1128.86 171.527C1126.31 169.394 1123.27 167.82 1119.57 166.458C1123.29 165.023 1126.29 163.37 1128.78 161.212C1131.34 158.998 1133.27 156.333 1134.94 153.022Z" fill="white" stroke="white" stroke-width="4"/>
<path d="M561.458 136.078C565.827 145.766 570.426 153.637 576.899 160.146C583.433 166.716 591.717 171.743 603.199 175.991C593.576 179.507 585.603 183.568 578.766 189.593C571.538 195.963 565.763 204.367 560.513 216.222C556.282 205.29 551.262 197.258 544.361 191.002C537.562 184.838 529.131 180.575 518.365 176.841C529.451 172.536 537.922 167.731 544.776 161.285C551.739 154.735 556.862 146.649 561.458 136.078Z" stroke="white" stroke-width="6"/>
<path d="M503.477 183.749C506.225 189.548 509.221 194.413 513.303 198.519C517.457 202.696 522.601 205.959 529.434 208.716C523.737 210.974 518.857 213.635 514.592 217.395C509.947 221.49 506.181 226.751 502.788 233.881C500.043 227.372 496.764 222.386 492.37 218.404C488.081 214.515 482.886 211.727 476.493 209.338C483.109 206.571 488.357 203.441 492.702 199.354C497.148 195.172 500.509 190.12 503.477 183.749Z" stroke="white" stroke-width="6"/>
<path d="M542.749 225.889C544.658 229.509 546.763 232.646 549.484 235.372C552.283 238.177 555.637 240.457 559.887 242.43C556.53 243.842 553.557 245.548 550.919 247.865C547.918 250.502 545.478 253.812 543.337 258.104C541.36 254.056 539.048 250.816 536.093 248.133C533.24 245.542 529.897 243.574 525.936 241.874C529.873 240.14 533.126 238.126 535.872 235.543C538.703 232.88 540.881 229.72 542.749 225.889Z" stroke="white" stroke-width="6"/>
</svg>
