<svg width="1762" height="524" viewBox="0 0 1762 524" fill="none" xmlns="http://www.w3.org/2000/svg">
<path d="M880.99 131.523C1119.93 155.01 1339.56 172.988 1499.67 196.192C1579.85 207.811 1644.57 220.674 1689.12 236.021C1711.43 243.707 1728.14 251.842 1739.15 260.392C1750.12 268.915 1754.5 277.083 1754.5 284.988C1754.5 292.631 1749.84 300.858 1737.8 309.63C1725.81 318.36 1707.74 326.683 1683.93 334.56C1636.41 350.282 1568.13 363.572 1485.62 375.472C1320.84 399.235 1101.22 417.214 881.009 438.452C643.822 414.965 424.199 396.989 263.645 373.784C183.247 362.165 118.188 349.302 73.3633 333.952C50.9118 326.264 34.0694 318.125 22.9746 309.569C11.9071 301.033 7.5 292.868 7.5 284.988C7.5 277.138 11.948 268.941 23.1543 260.336C34.3744 251.721 51.3892 243.51 74.0264 235.742C119.221 220.235 184.724 207.184 265.409 195.441C426.528 171.99 646.168 154.009 880.99 131.523Z" fill="#C8D06D" stroke="#6E8336" stroke-width="15"/>
<path d="M339.557 118.039L193.64 136.509" stroke="black" stroke-width="0.651921" stroke-linecap="round"/>
<ellipse cx="6.34113" cy="5.26564" rx="6.34113" ry="5.26564" transform="matrix(0.633756 0.452897 -0.530686 0.773502 340.484 111.447)" fill="black"/>
<ellipse cx="6.34113" cy="5.26564" rx="6.34113" ry="5.26564" transform="matrix(0.633756 0.452897 -0.530686 0.773502 189.922 129.196)" fill="black"/>
<path d="M183.729 107.875L349.589 146.531" stroke="black" stroke-width="0.651921" stroke-linecap="round"/>
<circle cx="176.034" cy="106.485" r="4.98952" fill="black"/>
<circle cx="350.931" cy="145.852" r="4.98952" fill="black"/>
<path d="M266.599 95.9816V158.729" stroke="black" stroke-width="0.651921" stroke-linecap="round"/>
<circle cx="263.95" cy="97.0595" r="4.98952" fill="black"/>
<circle cx="269.246" cy="157.488" r="4.98952" fill="black"/>
<path d="M493.134 31.2521L611.93 90.5734" stroke="black" stroke-width="0.783183" stroke-linecap="round"/>
<ellipse cx="9.22906" cy="5.77922" rx="9.22906" ry="5.77922" transform="matrix(0.149993 -0.678099 1.09322 0.186739 486.774 39.0798)" fill="black"/>
<ellipse cx="9.22906" cy="5.77922" rx="9.22906" ry="5.77922" transform="matrix(0.149993 -0.678099 1.09322 0.186739 604.705 93.1224)" fill="black"/>
<path d="M543.14 109.207L561.499 12.6314" stroke="black" stroke-width="0.783183" stroke-linecap="round"/>
<ellipse cx="7.69303" cy="7.02502" rx="7.69303" ry="7.02502" transform="matrix(-0.318554 -0.712724 0.781495 -0.346602 536.362 117.618)" fill="black"/>
<ellipse cx="7.69303" cy="7.02502" rx="7.69303" ry="7.02502" transform="matrix(-0.318554 -0.712724 0.781495 -0.346602 560.045 24.0446)" fill="black"/>
<path d="M472.064 76.2028L633.418 45.5425" stroke="black" stroke-width="0.783183" stroke-linecap="round"/>
<ellipse cx="4.49017" cy="4.10028" rx="4.49017" ry="4.10028" transform="matrix(-0.318554 -0.712724 0.781495 -0.346602 465.756 81.6916)" fill="black"/>
<ellipse cx="4.49017" cy="4.10028" rx="4.49017" ry="4.10028" transform="matrix(-0.318554 -0.712724 0.781495 -0.346602 635.82 49.3764)" fill="black"/>
<path d="M567.985 473.975L640.962 390.46" stroke="black" stroke-width="0.783183" stroke-linecap="round"/>
<ellipse cx="5.0905" cy="6.01624" rx="5.0905" ry="6.01624" transform="matrix(-1.07822 -0.0270077 0.0158175 -0.912457 573.051 479.706)" fill="black"/>
<ellipse cx="5.0905" cy="6.01624" rx="5.0905" ry="6.01624" transform="matrix(-1.07822 -0.0270077 0.0158175 -0.912457 644.268 396.5)" fill="black"/>
<path d="M681.956 429.796L527.082 434.899" stroke="black" stroke-width="0.783183" stroke-linecap="round"/>
<ellipse cx="6.04268" cy="6.06405" rx="6.04268" ry="6.06405" transform="matrix(-0.822921 0.552126 -0.548669 -0.821033 694.522 432.006)" fill="black"/>
<ellipse cx="6.04268" cy="6.06405" rx="6.04268" ry="6.06405" transform="matrix(-0.822921 0.552126 -0.548669 -0.821033 537.717 436.667)" fill="black"/>
<path d="M642.203 479.34L566.546 384.85" stroke="black" stroke-width="0.783183" stroke-linecap="round"/>
<ellipse cx="4.67693" cy="4.69346" rx="4.67693" ry="4.69346" transform="matrix(-0.822921 0.552126 -0.548669 -0.821033 650.816 482.27)" fill="black"/>
<ellipse cx="4.67693" cy="4.69346" rx="4.67693" ry="4.69346" transform="matrix(-0.822921 0.552126 -0.548669 -0.821033 570.945 384.708)" fill="black"/>
<path d="M1486.11 436.109L1310.96 483.407" stroke="black" stroke-width="0.79766" stroke-linecap="round"/>
<circle cx="1488.41" cy="436.214" r="6.10494" fill="black"/>
<circle cx="1305.06" cy="484.36" r="6.10494" fill="black"/>
<path d="M1312.2 445.148L1485.44 474.302" stroke="black" stroke-width="0.79766" stroke-linecap="round"/>
<ellipse cx="7.22116" cy="6.17014" rx="7.22116" ry="6.17014" transform="matrix(0.718824 -0.42532 0.479786 0.851652 1299.91 443.37)" fill="black"/>
<ellipse cx="7.22116" cy="6.17014" rx="7.22116" ry="6.17014" transform="matrix(0.718824 -0.42532 0.479786 0.851652 1480.87 471.641)" fill="black"/>
<path d="M1398.82 421.437V498.212" stroke="black" stroke-width="0.79766" stroke-linecap="round"/>
<circle cx="1395.58" cy="422.756" r="6.10494" fill="black"/>
<circle cx="1402.06" cy="496.694" r="6.10494" fill="black"/>
<path d="M1121.54 84.6165L1217.75 187.878" stroke="black" stroke-width="0.79766" stroke-linecap="round"/>
<circle cx="1121.92" cy="85.6689" r="6.10494" transform="matrix(-0.121869 -0.989569 0.995532 -0.121869 1173.36 1206.32)" fill="black"/>
<circle cx="1219.48" cy="188.933" r="6.10494" transform="matrix(-0.121869 -0.989569 0.995532 -0.121869 1180.01 1418.72)" fill="black"/>
<path d="M1157.04 191.766L1182.07 80.3768" stroke="black" stroke-width="0.79766" stroke-linecap="round"/>
<ellipse cx="5.83075" cy="6.54222" rx="5.83075" ry="6.54222" transform="matrix(-0.639409 -0.837677 0.75357 -0.560596 1155.84 200.081)" fill="black"/>
<ellipse cx="5.83075" cy="6.54222" rx="5.83075" ry="6.54222" transform="matrix(-0.639409 -0.837677 0.75357 -0.560596 1181.11 89.176)" fill="black"/>
<path d="M1108.96 140.737L1230.47 131.381" stroke="black" stroke-width="0.79766" stroke-linecap="round"/>
<circle cx="1107.43" cy="140.855" r="5.63742" transform="matrix(-0.121869 -0.989569 0.995532 -0.121869 1102.17 1253.9)" fill="black"/>
<circle cx="1231.68" cy="131.288" r="5.63742" transform="matrix(-0.121869 -0.989569 0.995532 -0.121869 1251.08 1366.12)" fill="black"/>
<path d="M431.07 269.526C431.71 272.967 431.228 275.994 429.622 278.608C428.006 281.161 425.699 283.411 422.702 285.358C419.694 287.244 416.225 288.866 412.294 290.223C408.352 291.519 404.37 292.599 400.349 293.465C396.389 294.324 392.587 295.01 388.943 295.522C385.361 296.028 382.389 296.406 380.027 296.657C380.427 298.807 380.791 300.93 381.117 303.026C381.494 305.054 381.883 307.143 382.283 309.294C382.386 309.847 382.563 310.799 382.815 312.151C383.066 313.503 383.366 314.943 383.714 316.473C384.05 317.941 384.432 319.31 384.858 320.581C385.347 321.845 385.812 322.641 386.253 322.971L369.939 324.703C370.243 324.295 370.331 323.063 370.202 321.009C370.074 318.955 369.809 316.508 369.407 313.668C369.068 310.822 368.59 307.74 367.972 304.422C367.417 301.097 366.865 297.96 366.317 295.011C365.757 292 365.228 289.33 364.732 287.002C364.297 284.667 364 283.069 363.84 282.209C363.737 281.656 363.554 280.673 363.292 279.26C363.091 277.84 362.788 276.212 362.383 274.375C362.04 272.532 361.618 270.603 361.116 268.588C360.677 266.567 360.173 264.709 359.604 263.015C359.036 261.321 358.425 259.913 357.773 258.792C357.121 257.671 356.467 257.051 355.811 256.933L369.235 255.507C370.105 255.415 371.255 255.293 372.685 255.141C374.165 254.921 375.351 254.827 376.244 254.857C379.538 254.507 382.813 254.222 386.067 254.002C389.322 253.782 392.625 253.65 395.976 253.608C397.937 253.588 400.096 253.609 402.453 253.672C404.872 253.729 407.288 253.942 409.702 254.312C412.166 254.615 414.572 255.111 416.919 255.802C419.266 256.493 421.404 257.425 423.333 258.598C425.263 259.772 426.902 261.258 428.251 263.058C429.662 264.85 430.601 267.006 431.07 269.526ZM414.179 271.225C413.848 269.443 412.921 268.038 411.398 267.009C409.865 265.918 408.004 265.113 405.815 264.594C403.678 264.006 401.301 263.663 398.684 263.565C396.118 263.399 393.581 263.387 391.072 263.528C388.614 263.601 386.359 263.746 384.308 263.964C382.257 264.182 380.641 264.353 379.46 264.479L374.985 264.954C375.248 268.748 375.696 272.523 376.331 276.277C376.967 280.032 377.633 283.784 378.33 287.532C380.816 287.268 383.265 286.977 385.678 286.658C388.152 286.332 390.615 285.946 393.067 285.497C394.847 285.183 397.044 284.73 399.659 284.139C402.275 283.548 404.72 282.725 406.995 281.669C409.333 280.606 411.234 279.245 412.7 277.585C414.155 275.864 414.648 273.744 414.179 271.225Z" fill="black"/>
<path d="M536.415 288.47C536.931 288.998 537.959 290.084 539.501 291.729C541.042 293.374 542.812 295.25 544.812 297.357C546.875 299.467 549.022 301.675 551.255 303.982C553.55 306.292 555.672 308.437 557.621 310.416C559.639 312.336 561.37 313.96 562.815 315.287C564.26 316.614 565.198 317.32 565.629 317.405L546.25 316.382C545.922 315.864 545.446 315.245 544.823 314.524C544.205 313.741 543.554 312.987 542.868 312.263C542.188 311.477 541.506 310.721 540.82 309.997C540.197 309.276 539.656 308.685 539.197 308.223C536.415 305.074 533.594 302.017 530.732 299.052C527.939 296.027 525.049 293.029 522.063 290.057C519.475 290.233 516.927 290.318 514.419 290.31C511.917 290.24 509.38 290.2 506.81 290.19C506.592 291.867 506.405 293.545 506.25 295.226C506.1 296.844 505.947 298.493 505.792 300.173C505.74 300.733 505.651 301.698 505.524 303.067C505.397 304.436 505.293 305.9 505.212 307.46C505.13 309.019 505.122 310.457 505.189 311.773C505.323 313.031 505.56 313.857 505.9 314.25L489.517 313.385C489.926 313.031 490.347 311.865 490.781 309.887C491.221 307.846 491.636 305.398 492.026 302.542C492.415 299.685 492.794 296.61 493.162 293.315C493.535 289.957 493.863 286.754 494.145 283.704C494.428 280.655 494.647 277.946 494.803 275.578C495.022 273.213 495.175 271.564 495.261 270.63C495.313 270.07 495.405 269.075 495.538 267.643C495.733 266.215 495.885 264.566 495.996 262.696C496.169 260.829 496.288 258.865 496.353 256.805C496.481 254.748 496.5 252.841 496.412 251.085C496.324 249.33 496.116 247.849 495.788 246.643C495.461 245.438 494.994 244.725 494.387 244.506C494.574 244.516 495.167 244.547 496.166 244.6C497.227 244.656 498.475 244.722 499.91 244.797C501.408 244.877 502.969 244.959 504.591 245.045C506.276 245.134 507.837 245.216 509.272 245.292C510.77 245.371 512.016 245.468 513.008 245.583C514.007 245.636 514.6 245.667 514.787 245.677C517.034 245.796 519.868 246.008 523.289 246.314C526.779 246.561 530.438 247.004 534.267 247.644C538.159 248.288 542.03 249.149 545.882 250.228C549.739 251.245 553.156 252.613 556.133 254.334C559.172 256.058 561.58 258.155 563.359 260.626C565.143 263.034 565.879 265.918 565.568 269.279C565.269 272.515 564.073 275.266 561.982 277.532C559.896 279.736 557.374 281.573 554.416 283.042C551.52 284.515 548.432 285.697 545.151 286.587C541.938 287.418 539.026 288.045 536.415 288.47ZM548.64 268.197C548.813 266.33 548.177 264.733 546.732 263.406C545.292 262.017 543.359 260.883 540.932 260.004C538.572 259.066 535.881 258.33 532.857 257.795C529.896 257.263 526.986 256.859 524.126 256.583C521.273 256.245 518.629 256.011 516.195 255.883C513.823 255.757 512.013 255.662 510.765 255.596C510.13 259.065 509.589 262.538 509.142 266.017C508.762 269.436 508.411 272.889 508.089 276.374L507.856 278.894C510.295 278.96 512.735 279.027 515.175 279.093C517.615 279.16 520.029 279.162 522.418 279.101C523.61 279.101 525.057 279.052 526.759 278.955C528.462 278.857 530.264 278.702 532.165 278.49C534.072 278.215 535.956 277.846 537.818 277.381C539.742 276.92 541.462 276.292 542.979 275.496C544.557 274.704 545.841 273.709 546.83 272.51C547.881 271.315 548.485 269.877 548.64 268.197Z" fill="black"/>
<path d="M658.225 254.162C663.274 253.281 668.446 253.229 673.742 254.005C679.037 254.781 683.998 256.371 688.624 258.775C693.293 261.109 697.393 264.234 700.925 268.151C704.5 271.997 707.1 276.58 708.726 281.9C710.333 287.16 710.557 292.032 709.398 296.515C708.3 300.987 706.272 304.961 703.313 308.436C700.336 311.852 696.665 314.695 692.301 316.968C687.937 319.24 683.323 320.8 678.459 321.648C673.164 322.572 667.905 322.765 662.682 322.228C657.503 321.62 652.677 320.259 648.204 318.143C643.775 315.956 639.852 312.989 636.437 309.241C633.003 305.433 630.437 300.749 628.739 295.19C627.058 289.691 626.678 284.627 627.598 279.996C628.579 275.355 630.478 271.278 633.296 267.765C636.113 264.251 639.695 261.329 644.041 258.997C648.387 256.665 653.115 255.053 658.225 254.162ZM644.227 292.394C645.25 295.742 646.803 298.808 648.886 301.592C651.031 304.366 653.527 306.7 656.376 308.596C659.207 310.432 662.27 311.755 665.566 312.565C668.923 313.364 672.357 313.458 675.866 312.846C679.129 312.277 682.038 311.077 684.591 309.246C687.188 307.345 689.257 305.096 690.798 302.498C692.382 299.829 693.413 296.942 693.891 293.837C694.35 290.672 694.096 287.505 693.128 284.337C691.794 279.974 689.997 276.321 687.736 273.379C685.457 270.377 682.889 268.023 680.033 266.318C677.159 264.552 674.089 263.42 670.823 262.919C667.539 262.358 664.235 262.368 660.91 262.948C657.462 263.55 654.48 264.825 651.963 266.775C649.427 268.665 647.408 270.969 645.903 273.687C644.461 276.394 643.559 279.384 643.197 282.658C642.879 285.862 643.222 289.107 644.227 292.394Z" fill="black"/>
<path d="M828.506 245.643C828.22 245.853 828.066 246.554 828.043 247.745C828.073 248.869 828.152 250.115 828.279 251.481C828.46 252.781 828.636 254.05 828.809 255.288C828.981 256.526 829.093 257.331 829.144 257.703C829.842 262.717 830.575 267.76 831.343 272.831C832.103 277.84 832.832 282.852 833.53 287.866C834.27 293.19 833.796 297.702 832.106 301.404C830.479 305.101 828.067 308.14 824.871 310.522C821.666 312.842 817.912 314.611 813.609 315.828C809.306 317.046 804.88 317.836 800.332 318.197C797.341 318.435 794.187 318.403 790.87 318.103C787.553 317.804 784.46 317.079 781.591 315.93C778.777 314.714 776.364 312.997 774.355 310.778C772.275 308.502 770.98 305.538 770.472 301.886C770.309 300.71 770.265 299.492 770.342 298.235C770.419 296.977 770.696 295.797 771.173 294.695L785.127 295.84C784.318 297.719 784.055 299.681 784.339 301.723C784.641 303.89 785.389 305.646 786.584 306.99C787.841 308.33 789.34 309.369 791.081 310.107C792.812 310.783 794.639 311.233 796.559 311.456C798.534 311.612 800.425 311.618 802.231 311.475C808.649 310.965 813.302 309.093 816.19 305.86C819.079 302.626 820.071 297.759 819.167 291.26L817.578 279.838C817.518 279.405 817.367 278.322 817.126 276.588C816.947 274.85 816.694 272.805 816.367 270.452C816.031 268.038 815.647 265.503 815.214 262.846C814.844 260.184 814.437 257.713 813.994 255.432C813.613 253.147 813.19 251.24 812.726 249.712C812.315 248.117 811.936 247.209 811.59 246.986L828.506 245.643Z" fill="black"/>
<path d="M891.149 312.748C891.566 312.401 892.015 311.242 892.494 309.271C892.981 307.239 893.452 304.799 893.908 301.951C894.425 299.108 894.878 296.01 895.267 292.657C895.717 289.309 896.119 286.113 896.471 283.071C896.823 280.029 897.101 277.357 897.305 275.056C897.578 272.697 897.769 271.052 897.876 270.12C897.941 269.562 898.053 268.599 898.211 267.233C898.369 265.867 898.514 264.344 898.646 262.664C898.84 260.988 899.014 259.216 899.167 257.349C899.327 255.421 899.408 253.643 899.407 252.016C899.47 250.394 899.444 248.985 899.331 247.789C899.226 246.53 899.011 245.672 898.687 245.212C898.522 245.014 898.325 244.813 898.097 244.61C897.931 244.412 897.766 244.213 897.6 244.014L965.493 248.69L963.267 258.959C962.97 258.814 962.201 258.669 960.961 258.525C959.783 258.384 958.325 258.225 956.586 258.048C954.847 257.87 952.979 257.716 950.984 257.584C948.995 257.39 947.097 257.233 945.288 257.113C943.542 256.998 941.983 256.895 940.611 256.804C939.239 256.714 938.303 256.652 937.805 256.619C929.822 256.091 921.797 255.655 913.731 255.309C913.06 258.393 912.513 261.485 912.091 264.585C911.677 267.623 911.286 270.725 910.919 273.891L954.004 276.27L952.757 286.228C952.514 286.15 951.898 286.047 950.907 285.919C949.986 285.733 948.871 285.596 947.561 285.51C946.259 285.361 944.828 285.235 943.269 285.132C941.779 284.971 940.349 284.845 938.977 284.755C937.667 284.668 936.482 284.59 935.422 284.52C934.362 284.45 933.645 284.402 933.27 284.377C925.475 283.862 917.637 283.438 909.758 283.105C909.434 285.899 909.08 288.69 908.694 291.48C908.377 294.212 908.058 296.975 907.734 299.769L907.303 303.494C911.709 303.973 916.095 304.356 920.46 304.645C924.888 304.938 929.316 305.23 933.744 305.523C934.18 305.552 935.085 305.611 936.457 305.702C937.829 305.793 939.419 305.898 941.227 306.017C943.036 306.137 944.907 306.261 946.84 306.388C948.843 306.458 950.718 306.551 952.464 306.666C954.217 306.72 955.69 306.754 956.882 306.771C958.136 306.791 958.927 306.749 959.253 306.646L959.085 317.051L891.149 312.748Z" fill="black"/>
<path d="M1089.64 283.92C1090.5 282.412 1091.3 280.69 1092.04 278.754C1092.83 276.751 1093.09 274.79 1092.83 272.871C1092.52 270.704 1091.53 268.999 1089.85 267.756C1088.22 266.446 1086.32 265.47 1084.15 264.829C1081.98 264.187 1079.72 263.803 1077.37 263.677C1075.09 263.546 1073.1 263.547 1071.42 263.68C1067.37 264.002 1063.36 265.071 1059.39 266.888C1055.49 268.701 1052.04 271.071 1049.05 274C1046.05 276.929 1043.72 280.306 1042.05 284.132C1040.44 287.952 1039.93 292.029 1040.53 296.363C1040.9 298.963 1041.68 301.216 1042.89 303.123C1044.16 305.024 1045.71 306.623 1047.53 307.918C1049.41 309.208 1051.48 310.264 1053.73 311.087C1055.99 311.909 1058.31 312.507 1060.69 312.881C1063.14 313.25 1065.56 313.465 1067.96 313.524C1070.36 313.584 1072.59 313.532 1074.65 313.369C1079.76 312.963 1084.77 312.127 1089.7 310.859C1094.63 309.592 1099.49 308.079 1104.28 306.322L1109.27 315.689C1106.71 316.769 1103.98 317.737 1101.08 318.593C1098.23 319.445 1095.31 320.177 1092.31 320.791C1089.37 321.4 1086.39 321.919 1083.36 322.347C1080.4 322.77 1077.51 323.093 1074.71 323.315C1071.97 323.533 1068.86 323.592 1065.38 323.493C1061.96 323.389 1058.49 323.07 1054.95 322.538C1051.4 321.943 1047.88 321.096 1044.39 319.996C1040.96 318.892 1037.83 317.419 1034.99 315.579C1032.15 313.739 1029.76 311.519 1027.82 308.919C1025.95 306.314 1024.77 303.247 1024.28 299.719C1023.68 295.448 1023.94 291.39 1025.04 287.548C1026.2 283.638 1027.94 280.058 1030.25 276.807C1032.57 273.494 1035.4 270.515 1038.74 267.871C1042.08 265.165 1045.67 262.846 1049.49 260.915C1053.31 258.922 1057.25 257.358 1061.31 256.221C1065.37 255.023 1069.32 254.271 1073.19 253.964C1076.8 253.677 1080.52 253.664 1084.33 253.924C1088.21 254.179 1091.79 254.991 1095.06 256.358C1098.39 257.658 1101.22 259.624 1103.54 262.257C1105.91 264.822 1107.41 268.333 1108.03 272.79C1108.25 274.4 1108.35 276.019 1108.32 277.649C1108.3 279.278 1108.15 280.886 1107.86 282.473L1089.64 283.92Z" fill="black"/>
<path d="M1246.28 262.867C1246.04 262.733 1245.2 262.606 1243.77 262.487C1242.4 262.37 1240.72 262.272 1238.72 262.193C1236.79 262.054 1234.66 261.938 1232.35 261.847C1230.11 261.696 1227.96 261.579 1225.9 261.498C1223.9 261.418 1222.12 261.348 1220.56 261.286C1219.06 261.227 1218.06 261.187 1217.56 261.167C1216.73 265.824 1216.13 270.489 1215.74 275.163C1215.42 279.839 1215.09 284.515 1214.77 289.192C1214.56 292.184 1214.33 295.145 1214.06 298.073C1213.79 301.001 1213.56 303.961 1213.35 306.954C1213.31 307.453 1213.25 308.419 1213.15 309.853C1213.05 311.225 1212.98 312.691 1212.94 314.253C1212.89 315.814 1212.92 317.253 1213.01 318.57C1213.17 319.889 1213.43 320.712 1213.78 321.038L1197.39 320.389C1197.85 320.033 1198.25 318.86 1198.57 316.872C1198.96 314.825 1199.32 312.369 1199.65 309.506C1200.03 306.646 1200.34 303.532 1200.58 300.165C1200.87 296.8 1201.13 293.591 1201.34 290.535C1201.55 287.48 1201.7 284.798 1201.8 282.489C1201.97 280.119 1202.08 278.467 1202.15 277.532C1202.34 274.726 1202.5 271.919 1202.64 269.111C1202.83 266.305 1202.93 263.496 1202.94 260.682C1198.88 260.522 1194.85 260.393 1190.85 260.297C1186.85 260.139 1182.82 260.011 1178.76 259.912C1178.13 259.888 1177.35 259.888 1176.41 259.913C1175.41 259.874 1174.38 259.833 1173.32 259.791C1172.26 259.749 1171.25 259.74 1170.31 259.766C1169.31 259.789 1168.52 259.851 1167.95 259.954L1168.35 250.216L1247.07 252.864L1246.28 262.867Z" fill="black"/>
<path d="M1350.83 283.862C1350.83 282.481 1350.8 281.136 1350.75 279.825C1350.69 278.453 1350.49 277.067 1350.16 275.667C1349.52 272.928 1348.5 270.742 1347.1 269.109C1345.68 267.415 1343.98 266.166 1342.01 265.363C1340.08 264.49 1337.96 264.02 1335.64 263.951C1333.37 263.814 1331.03 263.907 1328.62 264.228C1327.13 264.426 1325.45 264.775 1323.59 265.274C1321.71 265.713 1319.81 266.312 1317.88 267.071C1315.99 267.761 1314.15 268.603 1312.34 269.598C1310.52 270.592 1308.97 271.741 1307.68 273.042C1306.45 274.336 1305.51 275.81 1304.88 277.463C1304.29 279.048 1304.21 280.784 1304.65 282.67C1305.04 284.314 1305.96 285.666 1307.42 286.726C1308.93 287.717 1310.71 288.515 1312.77 289.12C1314.89 289.716 1317.19 290.131 1319.67 290.366C1322.16 290.6 1324.59 290.777 1326.98 290.898C1329.36 290.958 1331.57 290.977 1333.61 290.957C1335.63 290.875 1337.26 290.847 1338.48 290.873C1340.02 290.918 1341.89 290.983 1344.08 291.068C1346.32 291.083 1348.65 291.212 1351.07 291.455C1353.49 291.697 1355.91 292.066 1358.32 292.56C1360.8 293.046 1363.07 293.747 1365.14 294.664C1367.19 295.52 1368.95 296.635 1370.42 298.008C1371.88 299.32 1372.83 300.95 1373.29 302.898C1373.77 304.967 1373.61 306.871 1372.8 308.611C1372.05 310.342 1370.86 311.944 1369.23 313.417C1367.64 314.821 1365.76 316.075 1363.59 317.18C1361.47 318.216 1359.25 319.138 1356.95 319.947C1354.71 320.748 1352.53 321.384 1350.4 321.855C1348.28 322.326 1346.47 322.661 1344.98 322.859C1338.42 323.734 1331.79 324.083 1325.11 323.907C1318.41 323.67 1311.71 322.773 1305.03 321.216C1304.35 321.055 1303.57 320.876 1302.7 320.679C1301.81 320.421 1300.89 320.167 1299.93 319.918C1298.98 319.668 1298.07 319.475 1297.21 319.339C1296.35 319.203 1295.6 319.146 1294.97 319.167C1295.25 318.753 1295.69 318.161 1296.28 317.392C1296.93 316.616 1297.53 315.782 1298.09 314.892C1298.71 313.993 1299.25 313.168 1299.72 312.416C1300.23 311.595 1300.5 310.993 1300.54 310.612C1306.76 313.172 1313.27 314.814 1320.09 315.539C1326.96 316.255 1333.59 316.187 1339.97 315.337C1341.02 315.197 1342.65 314.918 1344.85 314.499C1347.1 314.011 1349.29 313.375 1351.4 312.591C1353.58 311.798 1355.41 310.865 1356.88 309.79C1358.4 308.646 1358.99 307.343 1358.65 305.883C1358.2 303.935 1356.94 302.503 1354.87 301.586C1352.87 300.66 1350.32 300.026 1347.24 299.684C1344.14 299.281 1340.69 299.113 1336.87 299.183C1333.04 299.191 1329.11 299.181 1325.08 299.153C1321.11 299.117 1317.18 298.981 1313.29 298.746C1309.39 298.45 1305.84 297.857 1302.63 296.967C1299.4 296.016 1296.66 294.656 1294.39 292.886C1292.19 291.109 1290.73 288.699 1290.02 285.655C1289.27 282.43 1289.25 279.482 1289.97 276.814C1290.75 274.137 1292.03 271.706 1293.82 269.522C1295.68 267.33 1297.88 265.405 1300.43 263.747C1303.04 262.081 1305.81 260.646 1308.72 259.442C1311.69 258.23 1314.69 257.235 1317.7 256.457C1320.71 255.68 1323.52 255.117 1326.12 254.771C1330.46 254.193 1334.66 253.979 1338.72 254.129C1342.78 254.278 1346.44 255.046 1349.7 256.431C1353.02 257.808 1355.89 259.968 1358.3 262.91C1360.77 265.844 1362.59 269.806 1363.76 274.797C1364.04 276.014 1364.26 277.209 1364.4 278.382C1364.61 279.547 1364.79 280.746 1364.95 281.98L1350.83 283.862Z" fill="black"/>
</svg>
