<svg width="1026" height="404" viewBox="0 0 1026 404" fill="none" xmlns="http://www.w3.org/2000/svg">
<path d="M616.352 44.9786C616.352 45.0439 616.365 45.1226 616.365 45.2026C609.839 44.7946 603.075 44.4666 596.575 45.1493C596.469 44.5986 596.377 44.0466 596.273 43.5079C602.511 43.6266 608.972 44.4532 615.183 43.9412C615.695 43.9026 616.023 43.9146 616.233 43.928C616.299 44.2826 616.352 44.6506 616.352 44.9786Z" fill="#464648"/>
<path d="M593.318 40.3962C593.542 43.1402 593.778 45.8722 594.054 48.6162C592.176 45.6095 589.983 42.7989 587.554 40.1989C589.471 40.2642 591.402 40.3309 593.318 40.3962Z" fill="#464648"/>
<path d="M1019.35 202.681C1020.35 204.756 1019.9 206.397 1018.85 207.789C1011.06 209.129 1003.25 210.061 995.354 210.245C996.432 206.2 997.377 202.142 998.415 198.242C1000.61 189.942 1002.75 181.644 1004.73 173.305C1011.51 175.34 1010.14 191.309 1009.68 195.748C1009.58 196.745 1010.55 198.085 1011.57 198.229C1014.42 198.649 1018.01 199.936 1019.35 202.681Z" fill="#CDCCCA"/>
<path d="M1009.3 114.487C1009.94 115.747 1010.18 117.428 1010.1 119.595C1009.87 126.345 1008.58 133.2 1007.32 139.897C968.709 140.973 930.141 143.561 891.599 146.2C872.4 147.513 853.188 148.669 834.001 150.271C820.777 151.361 804.861 154.88 800.055 168.826C788.591 168.761 777.127 168.761 765.663 168.84C765.099 165.412 764.481 161.985 763.785 158.584C763.247 155.971 762.76 153.252 762.183 150.546C765.663 152.569 769.799 153.384 774.08 152.49C778.047 151.65 781.671 149.444 784.231 146.318C785.873 144.322 786.832 141.972 788.184 139.805C790.613 135.892 794.093 134.118 798.532 133.213C805.557 131.781 813.108 131.729 820.265 131.138C828.303 130.468 836.352 129.812 844.389 129.141C882.905 125.95 921.408 122.589 959.899 119.148C974.843 117.809 989.748 116.364 1004.68 114.933C1006.21 114.776 1007.76 114.631 1009.3 114.487Z" fill="#B5302B"/>
<path d="M1014.54 211.572C1012.27 213.357 1010.48 215.367 1008.8 217.769C1006.82 220.58 1005.13 223.613 1003.65 226.713C1002.12 229.956 1001.34 232.951 997.968 234.841C994.632 236.693 990.653 237.349 986.989 238.203C984.784 238.728 982.577 239.228 980.37 239.74V239.753C980.029 239.832 979.674 239.911 979.333 239.989C980.988 238.768 982.564 237.271 984.048 235.485C989.445 228.959 992.4 220.908 994.698 212.688C994.894 212.688 995.092 212.701 995.289 212.701C1001.78 212.897 1008.18 212.583 1014.54 211.572Z" fill="#B1B1B0"/>
<path d="M1002.93 111.637C1003.44 111.637 1003.92 111.663 1004.36 111.703C940.002 116.68 875.669 122.103 811.361 127.829C803.193 128.551 792.95 128.328 787.146 135.077C782.721 140.212 781.841 146.779 774.592 149.221C770.613 150.547 766.673 150.075 763.338 148.328C762.668 147.973 762.012 147.567 761.394 147.107C760.646 144.099 759.74 141.144 758.48 138.427C755.669 132.359 750.456 125.951 744.322 121.709C746.017 122.34 747.948 122.628 749.838 122.812C754.264 124.033 758.518 125.807 762.393 128.367C766.306 130.955 770.404 133.344 774.356 129.431C776.3 127.5 777.232 124.808 779.201 122.891C781.985 120.185 785.898 119.175 789.641 118.649C794.592 117.953 799.674 117.809 804.73 117.731C807.632 117.677 810.534 117.651 813.41 117.56C846.7 116.456 879.989 115.497 913.28 114.513C913.489 114.539 913.713 114.539 913.922 114.5C914.12 114.487 914.33 114.487 914.54 114.473C931.376 113.975 948.21 113.449 965.046 112.911C973.24 112.648 981.421 112.385 989.602 112.096C994.041 111.952 998.493 111.689 1002.93 111.637Z" fill="#B5302B"/>
<path d="M1006.43 144.664C1004.97 152.596 1003.29 160.488 1001.46 168.341C1000.49 172.477 999.518 176.64 998.532 180.791C998.35 180.685 998.152 180.607 997.903 180.567C954.567 174.644 910.811 171.664 867.12 170.14C845.479 169.392 823.824 168.984 802.156 168.84C810.312 154.276 830.286 155.012 844.94 154.356C863.274 153.541 881.619 152.675 899.938 151.637C935.46 149.615 970.982 147.789 1006.43 144.664Z" fill="#B1B1B0"/>
<path d="M997.377 184.453C997.469 184.467 997.561 184.453 997.64 184.453C996.825 187.855 995.972 191.256 995.092 194.657C953.424 185.36 910.521 181.027 867.948 178.611C834.25 176.707 800.514 176.076 766.778 176.352C766.634 175.353 766.502 174.343 766.358 173.344C793.765 173.173 821.185 173.384 848.578 174.105C893.424 175.275 938.309 177.495 982.892 182.655C987.725 183.22 992.557 183.811 997.377 184.453Z" fill="#CDCCCA"/>
<path d="M994.081 198.557C992.478 204.559 990.771 210.521 988.879 216.391C985.978 225.452 980.961 236.339 971.086 239.437C965.229 241.276 959.043 239.871 953.502 237.652C945.821 234.565 938.138 231.177 930.613 227.737C917.639 221.815 903.732 212.807 889.156 211.9C861.998 210.232 850.954 239.792 838.426 258.755C813.056 262.367 787.698 266.031 762.326 269.707C768.132 241.473 770.64 212.544 767.658 183.811C794.96 183.548 822.247 183.771 849.523 184.664C897.954 186.24 946.345 190.035 994.081 198.557Z" fill="#B5302B"/>
<path d="M968.263 244.257L968.316 244.664C939.544 248.171 910.876 252.439 882.183 256.561C875.67 257.508 869.143 258.413 862.63 259.385C861.698 252.255 854.383 248.328 847.908 250.903C854.356 239.767 860.726 228.039 871.808 220.935C887.239 211.047 903.036 219.595 917.744 226.529C927.922 231.335 938.323 235.616 948.552 240.304C955.052 243.285 961.882 244.98 968.263 244.257Z" fill="#B5302B"/>
<path d="M893.752 259.294C896.26 258.939 898.781 258.584 901.29 258.23C901.014 263.364 900.292 268.526 899.044 273.516C895.144 286.464 886.122 297.98 871.677 298.335C857.18 298.69 849.064 282.787 847.777 270.246C847.777 270.207 847.764 270.167 847.764 270.127C848.354 269.615 848.933 269.064 849.51 268.499C850.941 278.059 855.813 288.578 866.044 290.219C883.206 292.964 893.24 274.094 893.752 259.294Z" fill="#DFCEA3"/>
<path d="M885.795 98.2682C894.764 100.252 901.763 104.822 908.421 110.547C891.349 109.471 874.776 106.699 859.372 99.5682C867.921 96.9816 877.023 96.3389 885.795 98.2682Z" fill="#B5302B"/>
<path d="M886.174 260.357C887.12 260.225 888.066 260.095 889.025 259.949C887.357 271.664 878.637 288.499 864.966 285.072C862.012 284.323 859.609 282.459 857.665 280.029C860.948 282.327 865.177 283.377 869.996 282.589C879.097 281.092 885.532 269.313 886.174 260.357Z" fill="#5E6061"/>
<path d="M883.956 111.388C875.801 111.651 867.658 111.913 859.517 112.188C859.202 112.188 858.886 112.202 858.585 112.215C853.042 110.048 850.574 104.047 848.774 98.5842C848.866 98.6362 848.958 98.7015 849.05 98.7548C860.081 105.163 871.808 109.049 883.956 111.388Z" fill="#DFCEA3"/>
<path d="M880.514 261.159C881.224 261.053 881.933 260.961 882.629 260.856C881.172 267.58 876.509 276.233 870.364 278.375C861.106 281.604 853.83 274.671 852.636 266.056C854.264 265.176 856.064 264.691 858.085 264.323C865.492 262.944 873.069 262.209 880.514 261.159Z" fill="#959595"/>
<path d="M884.679 299.951C882.669 301.907 880.449 303.719 878.007 305.335C874.829 307.448 871.547 309.103 868.184 310.351C865.584 309.969 862.971 309.497 860.411 308.88C852.937 307.093 845.86 304.073 840.411 298.4C835.052 292.82 833.148 286.031 831.927 278.689C835.433 278.045 838.952 277.403 842.472 276.799C843.377 276.641 843.929 276.155 844.179 275.537C845.768 289.76 857.259 304.179 872.243 303.456C876.839 303.233 880.988 301.972 884.679 299.951Z" fill="#2E2D2D"/>
<path d="M859.911 259.792C855.485 260.449 850.443 261.237 847.461 264.796C845.611 267.001 843.417 268.946 841.001 270.614C840.2 271.166 839.372 271.69 838.519 272.176C836.287 272.558 834.055 272.938 831.821 273.319C835.328 270.115 838.375 266.123 841.027 262.143C841.264 261.947 841.421 261.696 841.5 261.421C842.984 259.163 844.336 256.93 845.571 254.882C845.873 254.37 846.175 253.857 846.477 253.332C846.687 253.476 846.949 253.541 847.252 253.424C847.567 253.305 847.883 253.2 848.197 253.108C853.476 251.572 858.323 254.527 859.911 259.792Z" fill="#B1B1B0"/>
<path d="M845.676 96.6015C845.939 101.762 848.316 108.446 852.452 112.426C837.219 112.938 821.985 113.45 806.765 114.014C806.069 114.04 805.373 114.054 804.677 114.067C802.34 108.171 799.924 102.182 797.232 96.3256C797.127 95.9309 796.956 95.5509 796.707 95.2215C791.06 83.1669 784.113 71.7549 774.041 63.0482C765.912 56.0362 756.392 51.2695 746.437 47.4482C725.768 39.4895 702.025 39.1882 680.239 38.0976C648.184 36.4962 616.011 35.9842 583.928 36.2722C583.797 36.2722 583.679 36.2855 583.561 36.2989C582.616 35.4589 581.657 34.6442 580.659 33.8696C570.1 25.4776 558.045 21.7348 545.032 19.4108C510.495 13.2388 474.552 11.6242 439.555 13.3309C419.056 14.3296 398.019 16.2722 378.124 21.7229C383.075 16.9296 390.179 14.4869 396.745 12.8322C405.531 10.6255 414.604 9.77219 423.639 9.35219C447.107 8.23619 470.612 7.69753 494.092 6.69887C538.728 4.83487 583.456 2.91757 628.144 4.16423C664.992 5.20157 702.747 7.98554 738.085 19.2015C745.649 21.6042 752.832 24.6775 760.133 27.7495C765.427 29.9829 771.191 31.1642 776.733 32.5429C783.141 34.1322 789.668 35.5109 795.919 37.6256C803.653 40.2642 809.668 48.8922 813.581 55.6815C817.652 62.7602 820.187 70.7042 825.465 77.0468C831.244 83.9682 838.047 91.3615 845.676 96.6015Z" fill="#DFCEA3"/>
<path d="M835.17 263.404C831.978 267.685 827.79 272.544 822.932 274.828C775.262 282.852 727.474 290.245 679.766 298.045C654.933 302.104 630.101 306.134 605.216 309.917C597.652 311.073 590.088 312.228 582.484 313.213C574.67 314.237 566.541 315.42 558.689 315.288C554.381 315.222 551.15 314.578 548.642 310.968C547.08 308.722 545.596 306.41 544.165 304.073C554.342 302.957 564.532 301.801 574.709 300.606C575.09 301.525 576.534 301.565 576.902 300.462C576.916 300.422 576.929 300.384 576.942 300.33C643.548 292.438 710.022 282.825 776.312 272.872C795.97 269.917 815.577 266.778 835.17 263.404Z" fill="#B1B1B0"/>
<path d="M799.28 108.551C800.003 110.1 800.712 111.662 801.421 113.213C793.187 112.228 785.807 113.265 778.296 115.117C775.721 114.815 773.148 114.527 770.562 114.237C770.654 112.123 770.692 110.008 770.705 107.895C780.029 108.328 789.34 108.643 798.663 108.656C798.887 108.656 799.097 108.616 799.28 108.551Z" fill="#225D63"/>
<path d="M766.227 107.684C766.319 109.733 766.424 111.781 766.608 113.817C747.973 111.821 729.3 110.284 710.613 108.945C711.06 108.065 711.611 107.224 712.399 106.463C712.977 105.899 713.595 105.439 714.264 105.045C715.932 105.111 717.6 105.189 719.267 105.241C734.908 105.832 750.573 106.896 766.227 107.684Z" fill="#225D63"/>
<path d="M762.472 186.7C764.652 214.749 761.723 242.813 757.048 270.469C705.598 277.928 654.146 285.439 602.695 292.885C594.474 294.08 586.254 295.275 578.032 296.471C579.411 290.797 579.963 284.861 580.699 279.123C581.644 271.729 582.354 264.323 582.904 256.904C584.047 241.671 584.296 226.372 583.928 211.099C583.784 204.796 583.535 198.44 583.167 192.071C642.747 187.776 702.484 184.612 762.222 183.876C762.302 184.808 762.394 185.755 762.472 186.7Z" fill="#B5302B"/>
<path d="M761.105 173.384C761.237 174.381 761.367 175.393 761.486 176.404C748.525 176.536 735.577 176.81 722.629 177.178C675.931 178.544 629.286 181.145 582.694 184.572C582.562 182.852 582.431 181.132 582.286 179.398C620.303 177.232 658.361 175.602 696.43 174.552C717.979 173.948 739.542 173.554 761.105 173.384Z" fill="#CDCCCA"/>
<path d="M766.884 118.268C763.797 118.991 760.829 119.293 757.533 119.359C755.867 119.385 753.779 119.529 751.637 119.569C749.432 118.939 747.185 118.452 744.927 118.072C740.463 117.323 735.932 117.008 731.428 116.889C722.497 116.667 713.528 116.903 704.559 117.244C704.691 116.968 704.821 116.693 705.019 116.443C705.609 115.643 706.332 115.131 706.779 114.211C706.923 113.921 706.949 113.555 706.871 113.225C726.884 114.815 746.884 116.509 766.884 118.268Z" fill="#225D63"/>
<path d="M755.958 144.532C757.849 152.569 759.358 160.699 760.514 168.88C745.347 169.011 730.179 169.233 715.025 169.576C670.626 170.587 626.239 172.531 581.906 175.209C580.238 157.455 577.427 139.765 572.845 122.76C582.969 122.944 593.094 122.996 603.219 122.957C603.823 123.351 604.637 123.324 605.267 122.957C605.557 122.957 605.858 122.957 606.147 122.944C615.681 122.904 625.202 122.774 634.722 122.603C637.795 122.55 640.869 122.497 643.941 122.432C660.79 122.091 677.651 121.617 694.499 121.144C708.183 120.777 722.261 119.543 735.983 120.593C742.261 123.088 748.078 128.735 751.913 135.012C750.087 134.093 747.829 133.699 745.977 133.409C739.214 132.372 729.943 131.795 723.691 135.235C717.178 138.82 721.578 144.585 727.001 146.319C735.078 148.88 745.597 148.288 752.963 144.087C753.357 143.849 753.554 143.535 753.607 143.193C753.765 143.115 753.882 143.009 753.974 142.879C754.237 142.668 754.461 142.405 754.645 142.143C755.025 142.969 755.471 143.771 755.958 144.532Z" fill="#B5302B"/>
<path d="M709.549 104.835C708.591 105.977 707.843 107.304 707.423 108.721C706.622 108.656 705.82 108.604 705.032 108.551C698.519 108.091 692.006 107.645 685.492 107.224C685.676 106.081 686.043 104.94 686.687 103.995C694.33 104.112 701.985 104.48 709.549 104.835Z" fill="#225D63"/>
<path d="M684.65 111.505C691.033 111.992 697.416 112.477 703.797 112.976C703.246 113.409 702.8 114.001 702.418 114.749C702.129 115.327 701.854 115.997 701.684 116.68C701.63 116.903 701.592 117.139 701.565 117.363C694.841 117.639 688.105 117.953 681.394 118.177C680.645 118.189 679.884 118.216 679.136 118.243C679.845 115.3 681.814 113.041 684.572 111.571C684.598 111.559 684.625 111.532 684.65 111.505Z" fill="#225D63"/>
<path d="M654.895 105.674C664.507 104.282 674.302 103.889 684.113 103.968C683.718 104.965 683.496 106.042 683.377 107.106C673.896 106.516 664.388 106.016 654.895 105.674Z" fill="#225D63"/>
<path d="M627.567 100.304C628.276 106.66 628.525 113.358 630.18 119.582C622.156 119.74 614.145 119.858 606.121 119.923C606.121 118.046 606.056 116.168 605.951 114.29C612.556 114.934 620.016 114.5 626.437 112.819C627.789 112.464 627.619 110.691 626.516 110.271C626.503 110.192 626.503 110.113 626.489 110.035C624.179 87.5655 620.961 65.1762 617.915 42.7988C617.861 42.3922 617.389 42.1162 617.008 42.1162C609.996 41.9722 602.983 41.9975 595.971 41.8801C595.879 41.4068 595.773 40.9349 595.668 40.4615C603.916 40.7242 612.149 40.9468 620.383 41.1708C620.396 41.2762 620.396 41.3681 620.409 41.4721C621.42 54.2241 623.587 66.9748 625.149 79.6602C626.004 86.5282 626.779 93.4228 627.567 100.304Z" fill="#B1B1B0"/>
<path d="M625.334 110.154C618.952 109.93 612.044 110.587 605.78 111.729C604.927 100.409 602.682 88.9455 601.198 77.8615C600.291 71.0722 599.478 64.2442 598.519 57.4282C598.007 53.7909 597.455 50.1535 596.824 46.5282C603.391 46.2135 609.956 47.4615 616.483 46.9615C616.719 49.1282 617.258 51.3615 617.547 53.4495C620.187 72.3455 622.787 91.2428 625.334 110.154Z" fill="#464648"/>
<path d="M602.064 119.949C592.334 120.001 582.616 119.989 572.884 119.832C539.294 119.372 505.754 117.585 472.359 113.344C463.18 112.188 454.027 110.809 444.887 109.325L444.952 108.183C452.871 108.604 460.776 109.049 468.683 109.509C468.762 109.509 468.854 109.523 468.932 109.523C492.386 110.875 515.826 112.293 539.267 113.239C550.758 113.699 562.34 114.197 573.843 113.528C580.987 113.121 587.592 112.911 590.284 105.216C591.335 102.208 591.992 99.0041 592.36 95.6948C592.491 95.4974 592.596 95.2747 592.596 94.9854C592.622 94.4734 592.596 93.9747 592.57 93.4761C593.306 83.1267 591.31 71.9521 588.735 62.7601C587.015 56.6401 584.624 50.2454 580.383 45.3854C573.91 37.9667 564.283 33.1601 555.064 30.1534C542.13 25.9508 528.302 25.1227 514.815 24.1121C499.319 22.9561 483.758 22.4187 468.223 22.4574C437.704 22.5494 407.119 24.7694 376.995 29.7067C376.838 29.7321 376.746 29.8374 376.706 29.9694L375.419 29.6401C375.787 28.2227 376.128 26.8174 376.483 25.4121C376.575 25.0054 376.562 24.6508 376.456 24.3228C377.152 24.1774 377.862 24.0334 378.558 23.9014C414.644 16.6534 451.466 15.3134 488.196 17.2707C504.454 18.1241 520.711 19.5947 536.798 22.1161C548.026 23.8761 559.307 25.8721 569.404 31.3614C579.53 36.8628 590.942 47.2907 595.064 57.9267C595.879 65.1361 596.772 72.3587 597.52 79.5681C598.886 92.8454 599.175 106.857 602.064 119.949Z" fill="#B1B1B0"/>
<path d="M589.141 93.1867C588.958 95.6427 588.642 98.0587 588.17 100.396C587.421 104.177 586.424 108.131 582.378 109.195C581.486 109.431 580.566 109.601 579.648 109.733C578.885 102.615 573.75 96.7053 567.553 93.2133C566.581 87.1587 565.149 81.1307 563.022 75.4587C574.04 77.1267 584.756 83.3641 589.141 93.1867Z" fill="#464648"/>
<path d="M583.469 56.7841C586.844 65.2281 588.958 75.1174 589.313 84.8081C586.056 80.3308 580.856 76.9815 575.905 74.7628C571.164 72.6215 566.069 71.0588 560.894 70.4295C558.689 65.7535 555.905 61.4068 552.412 57.5988C539.686 43.7308 517.809 41.8148 500.277 39.8575C485.898 38.2428 471.44 37.6255 456.968 37.4668C458.36 33.3042 460.684 29.3121 462.522 25.4388C462.641 25.2028 462.668 24.9788 462.654 24.7561C486.265 24.6375 509.877 25.8188 533.396 28.5508C552.398 30.7575 575.694 37.3095 583.469 56.7841Z" fill="#464648"/>
<path d="M577.639 212.006C578.137 226.674 577.98 241.342 577.415 256.011C577.152 263.128 576.693 270.246 576.193 277.35C575.721 283.851 574.697 290.443 574.592 296.983C563.981 298.532 553.384 300.134 542.799 301.802C541.815 300.147 540.843 298.492 539.884 296.824C535.301 288.827 531.099 280.607 526.424 272.648C517.047 256.654 505.268 242.051 489.523 231.952C461.485 213.988 423.771 210.955 394.355 227.475C381.919 234.474 371.977 245.151 365.32 257.731C363.876 260.475 362.655 263.299 361.564 266.162C357.02 262.038 351.072 260.712 344.913 260.935C336.836 261.224 328.747 262.734 320.697 263.51C311.701 264.388 302.693 264.796 293.685 265.151C288.708 242.852 270.861 231.546 250.559 224.875L250.835 224.047C251.571 224.271 252.319 224.48 253.08 224.651C261.236 228.014 273.605 228.604 280.291 221.999C283.14 219.175 284.729 214.842 285.648 210.286C312.503 215.026 339.804 213.66 366.843 211.204C385.596 209.51 404.335 207.632 423.075 205.847C467.395 201.618 511.716 197.534 556.101 194.094C562.904 193.568 569.72 193.056 576.535 192.556C577.035 199.018 577.415 205.492 577.639 212.006Z" fill="#B5302B"/>
<path d="M575.431 179.805C575.602 181.565 575.773 183.324 575.93 185.084C530.31 188.525 484.742 192.74 439.239 197.376C417.611 199.569 395.982 201.736 374.381 204.112C347.959 207.028 320.973 209.891 294.341 207.947C329.179 202.549 364.177 198.191 399.213 194.381C446.343 189.247 493.606 185.216 540.907 181.999C552.411 181.211 563.915 180.488 575.431 179.805Z" fill="#CDCCCA"/>
<path d="M575.446 110.113C574.527 110.153 573.594 110.192 572.688 110.232C571.532 110.284 570.39 110.324 569.247 110.351C569.063 106.791 568.8 103.115 568.394 99.4105C571.743 102.26 574.447 105.991 575.446 110.113Z" fill="#464648"/>
<path d="M312.502 192.163C313.908 184.716 312.621 175.865 304.296 173.423C303.086 173.068 301.8 174.053 301.813 175.315C301.865 179.635 301.905 183.968 302.062 188.276C302.22 192.464 303.074 197.428 303.126 201.249C303.14 202.129 304.085 202.405 304.676 202.077C309.35 201.985 311.793 195.892 312.502 192.163ZM324.426 189.536C325.845 182.944 324.741 174.947 317.336 172.767C316.114 172.399 314.84 173.397 314.853 174.644C314.893 178.373 314.918 182.091 315.077 185.807C315.221 189.392 316.074 193.752 316.114 196.956C316.128 197.836 317.06 198.111 317.65 197.796C321.577 197.731 323.744 192.701 324.426 189.536ZM336.442 186.739C337.756 180.803 336.744 173.593 330.073 171.624C328.852 171.269 327.578 172.255 327.592 173.515C327.63 176.811 327.644 180.107 327.788 183.391C327.933 186.529 328.773 190.587 328.813 193.279C328.826 194.145 329.745 194.421 330.336 194.119C333.842 194.067 335.825 189.563 336.442 186.739ZM568.209 123.128C570.717 140.672 573.186 158.111 575.012 175.629C569.666 175.971 564.322 176.299 558.99 176.653C510.468 179.884 462.01 183.981 413.685 189.313C374.538 193.633 335.326 198.427 296.6 205.636C293.632 206.2 290.65 206.779 287.67 207.356C287.17 207.304 286.672 207.251 286.16 207.199C286.645 203.732 286.829 200.291 286.948 197.455C287.368 186.988 283.809 179.805 276.272 172.543C267.788 164.375 257.453 155.957 245.989 152.412C308.786 136.943 372.976 127.671 437.585 124.783C439.424 124.703 439.437 121.828 437.585 121.907C371.4 124.861 305.596 134.473 241.328 150.6C240.841 150.717 240.552 151.02 240.408 151.361C232.188 151.059 223.809 155.984 226.737 165.557C226.75 165.583 226.764 165.596 226.764 165.623C227.157 168.104 228.838 170.271 230.48 172.189C234.617 176.956 238.044 181.303 236.822 188.052C236.822 188.079 236.822 188.092 236.822 188.105C236.797 188.209 236.784 188.315 236.77 188.447C236.652 191.873 236.534 195.827 236.77 199.857C236.822 200.948 236.901 202.037 237.02 203.128C236.928 207.461 236.534 212.544 233.317 215.643C231.754 217.153 229.456 218.151 227.354 219.004C221.418 217.823 215.601 216.824 210.138 215.865C167.696 208.38 124.348 202.248 81.1821 201.999C74.7478 201.959 66.3165 201.801 58.0566 202.733C59.9212 201.631 61.9702 200.869 63.966 200.028C65.9754 199.201 67.9582 198.308 69.6785 196.943C73.9072 193.593 75.6536 188.328 76.652 183.22C79.265 169.904 78.8712 155.301 92.0426 147.527C102.154 141.565 113.618 138.072 124.952 135.235C145.726 130.008 167.092 126.936 188.326 124.217C224.413 119.608 260.697 116.377 296.954 113.423C307.88 112.529 318.07 112.044 328.038 107.041C328.484 106.817 328.93 106.555 329.377 106.319C331.15 106.24 332.91 106.173 334.682 106.121C371.452 104.835 408.209 106.213 444.952 108.183L444.886 109.325C444.006 109.181 443.613 110.508 444.505 110.679C485.241 118.623 526.686 121.761 568.182 122.668C568.182 122.812 568.182 122.969 568.209 123.128Z" fill="#B5302B"/>
<path d="M547.291 110.1C544.611 109.996 541.932 109.891 539.267 109.772C537.52 109.707 535.787 109.615 534.04 109.536C534 109.431 533.948 109.325 533.869 109.221C531.768 106.029 530.679 102.707 530.416 99.4507C537.244 100.789 545.425 103.495 547.291 110.1Z" fill="#225D63"/>
<path d="M524.794 98.544C525.032 102.248 526.357 105.924 529.037 109.312C510.086 108.407 491.164 107.251 472.228 106.135C479.621 96.2067 496.404 96.5093 507.421 96.9813C513.225 97.2307 519.03 97.756 524.794 98.544Z" fill="#1D4852"/>
<path d="M457.257 240.2C478.543 259.74 487.643 289.589 486.619 318.072C485.701 318.164 484.781 318.256 483.875 318.361C485.07 304.98 482.614 291.821 477.046 279.345C471.583 267.093 462.798 255.274 450.218 249.733C437.23 244.008 423.166 246.792 411.453 254.12C410.519 254.71 410.205 255.564 410.297 256.378C387.893 270.048 374.565 295.314 374.367 321.473C374.197 346.345 385.135 372.793 409.167 382.957C429.469 391.545 450.481 384.756 463.967 367.632C473.291 355.813 479.83 340.974 482.746 326.24C482.995 325.005 483.193 323.785 483.377 322.55C484.374 322.537 485.373 322.524 486.383 322.51C486.291 323.693 486.186 324.874 486.055 326.056C485.425 326.28 484.913 326.805 484.769 327.737C479.805 358.19 458.95 393.462 425.07 396.942C393.698 400.16 371.321 372.386 363.533 344.966C355.483 316.706 360.631 285.636 376.915 261.237C385.503 248.38 397.677 235.892 412.227 230.034C428.615 223.429 444.689 228.669 457.257 240.2Z" fill="#2E2D2D"/>
<path d="M442.378 364.586C459.24 351.651 468.236 331.112 467.697 310.036C467.264 292.715 458.846 268.106 438.964 265.046C438.162 264.927 437.401 265.216 436.824 265.702C428.616 263.838 418.937 266.674 411.846 270.574C403.586 275.118 396.994 283.088 392.634 291.323C383.113 309.287 382.246 332.242 391.478 350.522C396.141 359.754 403.862 367.62 414.026 370.443C424.06 373.214 434.224 370.838 442.378 364.586ZM468.117 276.155C474.906 288.631 478.294 302.722 477.073 316.93C475.838 331.126 470.297 345.348 462.864 357.443C452.529 374.212 435.353 384.862 415.562 378.939C393.842 372.439 382.246 351.428 379.581 329.996C376.114 302.17 387.881 273.726 411.505 258.295C412.161 258.69 413.016 258.795 413.921 258.348C424.006 253.306 435.445 250.338 446.33 254.711C456.088 258.624 463.193 267.147 468.117 276.155Z" fill="#DFCEA3"/>
<path d="M445.201 350.798C457.179 337.206 461.079 319.202 458.82 301.526C457.139 288.355 449.339 275.144 437.06 269.563C436.508 269.314 436.155 268.972 435.957 268.578C416.575 268.079 400.895 282.866 394.841 300.555C389.352 316.628 390.284 336.404 399.909 350.784C405.293 358.822 413.738 364.363 423.679 363.719C432.595 363.155 439.529 357.219 445.201 350.798ZM467.697 310.036C468.236 331.112 459.24 351.651 442.379 364.586C434.224 370.838 424.06 373.214 414.027 370.443C403.863 367.62 396.142 359.754 391.479 350.522C382.247 332.242 383.113 309.287 392.635 291.323C396.995 283.088 403.587 275.118 411.847 270.574C418.937 266.674 428.616 263.838 436.824 265.702C437.401 265.216 438.163 264.927 438.964 265.046C458.847 268.106 467.264 292.715 467.697 310.036Z" fill="#B5302B"/>
<path d="M435.917 351.783C448.984 344.835 455.445 327.895 453.528 313.739C453.436 313.083 453.081 312.649 452.608 312.399C451.112 297.863 441.826 279.608 424.585 281.959C411.19 283.797 403.31 296.812 401.117 309.037C398.937 321.237 399.936 335.039 407.578 345.229C414.59 354.567 425.346 357.403 435.917 351.783ZM458.82 301.525C461.078 319.201 457.178 337.205 445.201 350.797C439.529 357.219 432.594 363.155 423.678 363.719C413.737 364.363 405.293 358.821 399.909 350.784C390.284 336.404 389.352 316.628 394.841 300.555C400.894 282.865 416.574 268.079 435.957 268.577C436.154 268.972 436.508 269.313 437.06 269.563C449.338 275.144 457.138 288.355 458.82 301.525Z" fill="#B1B1B0"/>
<path d="M460.014 24.7814C457.69 28.4588 454.853 32.9107 453.317 37.4414C446.882 37.4147 440.434 37.4414 434 37.5334C422.668 37.6908 411.334 37.9534 400.001 38.1761C392.661 38.3214 381.38 36.8107 379.87 46.5681C378.478 55.6427 378.596 65.1761 377.756 74.3294C376.902 83.5347 376.18 92.7667 375.3 101.972C369.114 101.932 362.929 101.985 356.757 102.129C360.578 95.8654 362.628 87.9468 364.229 80.9868C366.094 72.8974 367.026 64.6641 367.644 56.4041C370.756 47.6574 373.159 38.6094 375.418 29.6401L376.705 29.9694C376.64 30.2188 376.797 30.5734 377.098 30.5334C404.624 27.0534 432.319 25.0308 460.014 24.7814Z" fill="#464648"/>
<path d="M440.881 318.992C441.63 313.411 439.253 307.134 433.278 305.69C427.185 304.218 423.205 310.036 422.26 315.38C421.446 320.003 422.208 329.13 428.169 330.194C429.26 330.378 430.205 329.695 430.586 328.828C432.385 328.972 433.882 329.103 435.892 327.908C439.042 326.018 440.409 322.484 440.881 318.992ZM449.72 312.832C449.325 313.2 449.089 313.712 449.114 314.33C449.628 324.586 445.254 335.604 437.9 342.76C431.045 349.444 421.144 351.559 413.921 344.507C401.078 331.966 401.617 301.736 416.377 290.508C423.757 284.888 432.621 285.268 439.581 291.494C445.648 296.93 448.418 304.954 449.72 312.832Z" fill="#B1B1B0"/>
<path d="M358.295 267.501C359.043 267.973 359.779 268.525 360.475 269.156C358.807 273.988 357.453 278.925 356.036 283.837L353.593 283.128C353.632 282.971 353.632 282.813 353.593 282.643C351.833 274.5 338.412 276.693 332.727 277.744C323.416 279.437 311.059 282.616 304.952 290.508C303.863 291.9 303.1 293.397 302.667 294.895L301.865 294.645C302.181 293.489 301.315 292.032 299.869 292.517C294.46 294.343 287.893 294.749 282.26 294.868C276.955 294.987 271.584 294.592 266.501 292.977C260.881 291.191 256.784 287.843 252.424 284.165C251.151 282.839 250.455 281.592 251.281 280.62C252.451 279.267 256.272 278.611 257.9 277.928C260.185 276.969 262.417 275.932 264.637 274.816C267.249 273.489 269.719 272.019 272.056 270.245C286.58 270.784 301.157 269.956 315.615 268.564C322.825 267.856 329.995 266.923 337.165 265.833C344.229 264.769 352.096 263.613 358.295 267.501Z" fill="#B1B1B0"/>
<path d="M346.095 296.076C347.684 295.262 346.541 292.924 344.913 293.292C343.403 293.634 341.853 293.739 340.304 293.804C339.305 293.844 337.217 294.186 337.283 292.767C337.415 290.18 340.868 289.406 342.825 290.062C344.137 290.508 345.057 288.394 343.784 287.816C339.857 286.031 334.184 288.027 333.737 292.794C333.488 295.367 335.195 297.246 337.664 297.731C340.619 298.322 343.481 297.416 346.095 296.076ZM353.593 283.128L356.036 283.838C353.685 292.019 351.177 300.134 346.817 307.567C346.672 307.816 346.515 308.066 346.371 308.315C340.291 308.999 334.236 309.786 328.183 310.627L327.893 308.566C333.856 307.724 339.725 306.044 344.663 304.022C347.421 302.892 346.449 298.822 343.403 299.478C336.075 301.04 328.681 302.498 321.171 302.735C318.189 302.839 314.368 303.22 311.492 302.248C305.924 300.358 307.972 294.947 311.321 291.782C316.14 287.199 323.441 284.994 329.68 283.168C334.761 281.684 347.92 277.652 351.663 283.456C352.215 284.323 353.409 283.982 353.593 283.128Z" fill="#B1B1B0"/>
<path d="M353.593 282.643C353.632 282.813 353.632 282.971 353.593 283.128C353.409 283.981 352.214 284.323 351.662 283.456C347.92 277.652 334.761 281.684 329.68 283.168C323.441 284.993 316.14 287.199 311.321 291.781C307.972 294.947 305.924 300.357 311.492 302.248C314.368 303.22 318.189 302.839 321.17 302.735C328.681 302.497 336.074 301.04 343.402 299.477C346.449 298.821 347.421 302.892 344.662 304.021C339.725 306.044 333.856 307.724 327.893 308.565C321.905 309.419 315.838 309.444 310.533 308.144C303.77 306.477 300.946 300.607 302.666 294.895C303.1 293.397 303.862 291.9 304.952 290.508C311.058 282.616 323.416 279.437 332.726 277.744C338.412 276.693 351.833 274.5 353.593 282.643Z" fill="#B1B1B0"/>
<path d="M344.913 293.292C346.541 292.924 347.684 295.262 346.094 296.076C343.481 297.416 340.618 298.322 337.664 297.731C335.194 297.246 333.488 295.367 333.737 292.794C334.184 288.027 339.857 286.031 343.784 287.816C345.057 288.394 344.137 290.508 342.825 290.062C340.868 289.406 337.414 290.18 337.282 292.767C337.217 294.186 339.305 293.844 340.304 293.804C341.853 293.739 343.402 293.634 344.913 293.292Z" fill="#B1B1B0"/>
<path d="M343.495 312.78C339.148 319.096 333.751 324.967 327.355 328.972C321.301 332.78 314.46 334.33 307.513 335.656C287.251 339.556 267.447 341.198 246.816 339.884C225.267 338.519 203.953 334.908 182.732 331.074C161.275 327.199 139.777 323.483 118.464 318.9C97.4008 314.383 76.0216 309.419 55.7325 302.064C47.0264 298.9 39.2915 292.65 34.1175 285.019C29.4691 278.164 26.8816 270.286 25.792 262.118C27.1972 262.576 28.6284 262.892 30.1779 262.918C30.7951 262.931 31.2545 262.695 31.5701 262.34C31.3071 269.471 39.8169 275.446 45.9363 278.952C48.3659 280.935 51.4253 282.34 54.5112 283.299C65.5555 288.263 77.1644 291.244 89.0617 293.923C103.586 297.192 118.109 300.396 132.687 303.456C153.605 307.856 174.629 312.006 195.825 314.855C207.92 316.471 220.448 318.047 232.66 316.826C235.168 316.575 237.716 316.155 240.159 315.459C239.24 317.731 240.015 320.659 241.813 322.551C244.269 325.138 249.535 325.834 251.4 322.104C252.332 320.214 251.741 317.534 250.927 315.722C250.192 314.042 249.075 312.794 247.683 311.979C248.695 311.258 249.64 310.416 250.507 309.471C255.156 308.434 258.937 305.544 260.237 300.423C260.632 298.874 260.815 297.167 260.711 295.499C266.672 298.427 273.751 299.648 279.791 299.648C284.649 299.635 289.588 299.071 294.276 297.85C295.839 297.442 297.401 297.008 298.924 296.471C299.397 296.3 300.895 295.735 300.841 295.735C301.407 295.512 301.735 295.104 301.865 294.646L302.667 294.895C300.947 300.607 303.771 306.478 310.533 308.144C315.839 309.444 321.905 309.419 327.893 308.566L328.183 310.627C324.164 311.166 320.145 311.743 316.115 312.32C310.06 313.2 304.02 314.212 297.94 314.92C295.313 315.236 291.715 315.748 289.285 314.37C283.547 311.099 292.424 307.632 294.815 307.12C295.852 306.898 295.392 305.4 294.393 305.558C291.176 306.07 282.615 308.867 284.387 313.647C286.239 318.638 294.065 318.48 298.163 318.126C313.277 316.826 328.445 314.987 343.495 312.78Z" fill="#B1B1B0"/>
<path d="M331.558 176.799C334.29 179.24 334.46 183.811 333.632 187.396C333.252 189.051 332.411 191.047 330.875 191.979C331.006 189.392 331.531 186.056 331.584 183.39C331.623 181.197 331.598 178.991 331.558 176.799Z" fill="#959595"/>
<path d="M318.82 177.822C322.339 180.553 322.588 186.082 321.577 190.364C321.117 192.333 320.08 194.776 318.149 195.76C318.255 192.714 318.82 188.958 318.859 185.806C318.899 183.141 318.859 180.488 318.82 177.822Z" fill="#959595"/>
<path d="M305.779 178.373C310.034 181.197 310.506 187.172 309.771 192.176C309.338 194.999 307.854 199.004 305.162 200.133C305.227 196.496 305.818 192.057 305.858 188.276C305.883 184.979 305.831 181.671 305.779 178.373Z" fill="#959595"/>
<path d="M283.087 186.621C285.924 194.855 283.875 206.213 281.223 214.237C279.725 218.781 277.545 221.355 272.871 222.892C270.717 223.6 268.459 224.008 266.187 224.125C278.491 218.781 281.039 201.224 278.203 189.641C277.348 186.161 275.668 183.272 273.513 180.724C273.383 180.317 273.12 180.055 272.817 179.911C270.927 177.835 268.747 175.971 266.463 174.185C259.344 168.629 251.596 162.879 243.14 159.543C239.568 158.137 233.553 156.797 229.851 158.82C231.584 155.445 236.023 153.712 240.448 154.053C245.28 154.448 250.637 156.837 254.683 159.372C260.973 163.312 267.067 168.013 272.543 172.989C276.692 176.759 281.209 181.197 283.087 186.621Z" fill="#CDCCCA"/>
<path d="M289.167 265.308C283.507 265.517 277.847 265.728 272.187 266.031C272.109 265.991 272.03 265.964 271.938 265.925C269.837 247.751 243.757 242.576 229.087 238.519C225.45 237.52 221.786 236.575 218.122 235.681C218.097 235.524 218.043 235.367 217.965 235.196C217.597 234.54 217.295 233.869 217.046 233.2C215.654 229.287 216.467 225.387 221.182 223.863C221.669 223.705 222.167 223.575 222.679 223.456C229.666 224.913 236.599 226.489 243.494 228.236C263.809 233.397 282.167 245.032 289.167 265.308Z" fill="#B1B1B0"/>
<path d="M275.195 189.549C276.481 194.04 276.18 198.912 275.693 203.508C275.379 206.384 274.801 209.155 273.789 211.703C273.776 211.703 273.776 211.716 273.764 211.729C269.247 216.588 263.14 220.436 256.297 218.243C249.745 216.141 245.937 209.536 243.731 203.443C239.305 191.139 239.489 174.881 250.835 166.621C251.255 166.884 251.676 167.159 252.109 167.421C243.783 174.855 242.799 186.503 244.965 197.219C246.777 206.175 253.843 220.975 265.228 215.695C274.723 211.296 276.311 199.713 275.195 189.549Z" fill="#959595"/>
<path d="M270.848 181.841C273.015 190.009 274.131 201.132 269.299 208.472C266.791 212.281 261.695 215.577 257.164 213.081C252.372 210.443 249.588 203.692 248.262 198.703C245.595 188.643 245.963 176.023 254.578 169.063C256.351 170.284 258.098 171.532 259.778 172.753C263.508 175.419 267.684 178.269 270.848 181.841Z" fill="#D4C9C3"/>
<path d="M263.257 255.773C266.528 258.453 268.957 261.841 269.824 266.227C263.481 268.604 257.375 271.624 251.072 274.12C243.679 277.048 242.509 284.192 248.931 289.181C252.568 292.019 255.785 293.607 254.564 298.86C253.711 302.537 251.151 303.719 247.749 304.428C243.875 305.229 239.148 304.823 235.365 303.903C233.12 303.351 231.36 301.947 229.535 300.647C234.945 297.717 239.673 292.228 239.883 286.345C240.185 278.191 234.539 269.511 227 266.227C228.392 265.4 229.797 264.625 231.203 263.889C241.144 258.768 251.755 255.932 263.257 255.773Z" fill="#2E2D2D"/>
<path d="M240.394 245.793C246.041 247.553 252.976 249.511 258.74 252.74C251.557 253.173 244.728 254.816 238.241 257.455C236.981 253.029 234.236 247.356 229.718 245.807C227.04 244.888 223.888 245.78 221.248 246.359C216.613 247.383 212.213 248.604 207.42 248.723C207.224 248.723 207.092 248.853 207.026 248.997C205.857 248.972 204.624 249.156 203.362 249.615C202.916 249.772 202.785 250.14 202.837 250.481C202.469 250.889 202.114 251.323 201.8 251.769C201.734 251.743 201.694 251.703 201.629 251.677C184.018 246.464 165.201 243.824 147.092 241.04C126.396 237.861 105.411 235.84 84.4651 234.999C84.5969 234.776 84.6359 234.5 84.5177 234.199C83.3619 231.191 81.6422 228.039 78.6083 226.595C75.9557 225.333 72.9354 225.899 70.1385 226.227C67.0655 226.568 64.0187 226.963 60.9589 227.383C59.9349 227.527 58.9103 227.684 57.8859 227.843C57.3213 227.921 56.7437 228.013 56.1791 228.092C55.9031 228.131 55.6666 228.157 55.4437 228.184C53.1979 227.829 50.8078 228.748 49.4947 231.283C48.4969 233.227 48.6021 235.052 49.3635 236.812C47.0261 237.652 44.6098 238.229 42.1146 238.348C39.5275 238.453 37.0985 237.625 34.5505 237.508C33.5922 237.468 33.0537 238.768 33.7625 239.424C38.1879 243.575 46.1985 242.655 51.1098 239.845C52.2786 241.696 53.1979 243.351 53.6051 245.82C53.6182 245.912 53.6313 246.017 53.6578 246.109C53.487 246.109 53.3161 246.121 53.1322 246.175C46.2775 248.079 40.3682 247.199 33.4474 246.727C32.1999 246.635 32.0291 248.499 33.1589 248.84C36.7307 249.891 40.237 250.665 43.7297 250.836C38.7265 252.648 33.5922 255.065 32.0161 259.819C31.9505 260.016 31.9109 260.2 31.8583 260.396C31.6745 259.884 31.2807 259.437 30.6765 259.215C28.2994 258.335 25.8307 257.757 23.4275 256.929C22.3245 256.536 21.2213 256.168 20.1051 255.905C23.5198 252.569 24.6885 246.201 24.7015 242.156C24.7275 236.785 22.0879 231.493 17.4922 229.024C18.1354 228.88 18.7922 228.748 19.4354 228.617C28.7067 226.635 37.8729 224.913 47.4854 224.533C49.5209 224.441 49.5474 221.303 47.4854 221.341C45.6209 221.381 43.7562 221.46 41.8781 221.579C44.137 220.528 47.1442 220.108 48.9827 219.765C53.6708 218.912 58.4641 218.545 63.2177 218.373C66.9603 218.243 70.6635 218.373 74.4062 218.624C86.2646 219.437 98.1094 220.699 109.928 222.051C145.017 226.069 180.145 231.02 214.59 238.965C223.257 240.975 231.898 243.141 240.394 245.793Z" fill="#2E2D2D"/>
<path d="M248.812 319.28C248.917 320.843 248.378 321.828 246.501 321.788C243.245 321.723 240.093 316.667 243.586 314.579C243.809 314.448 243.928 314.277 243.993 314.093C244.294 313.949 244.597 313.817 244.898 313.66C247.078 314.749 248.629 316.641 248.812 319.28Z" fill="#B1B1B0"/>
<path d="M242.588 309.694C240.172 310.6 237.572 311.125 235.076 311.466C225.266 312.806 215.181 311.992 205.398 310.941C188.142 309.102 171.032 305.938 154.025 302.629C129.232 297.809 104.466 292.674 79.8428 287.041C73.8808 285.676 67.4464 284.046 61.1953 281.866C60.9985 281.644 60.736 281.46 60.3813 281.342C58.937 280.896 57.2822 280.357 55.6146 279.713C54.3141 279.162 53.027 278.584 51.7797 277.98C49.3505 276.693 47.1833 275.078 45.9098 273.002C41.7994 266.318 47.9584 260.344 54.4718 259.805C55.4698 259.713 55.9297 258.44 55.2729 257.849L56.4813 257.086C67.6172 275.144 93.5792 280.212 112.791 285.137C137.755 291.532 163.362 297.284 189.101 299.412C198.989 300.225 209.18 300.436 218.937 298.321C219.961 299.398 220.973 300.462 221.918 301.552C222.693 302.432 224.032 302.668 225.122 302.405C225.556 302.288 225.976 302.169 226.409 302.025C228.957 304.046 231.124 306.529 234.314 307.71C236.822 308.644 239.738 309.352 242.588 309.694Z" fill="#B1B1B0"/>
<path d="M231.938 250.456C233.934 252.582 235.221 255.577 236.18 258.321C234.038 259.266 231.95 260.317 229.889 261.473C227.788 262.642 225.726 263.929 223.704 265.294C223.1 265.36 222.64 265.714 222.377 266.188C222.325 266.226 222.285 266.253 222.233 266.293C221.892 266.529 221.734 266.87 221.694 267.212C221.196 267.488 220.684 267.789 220.185 268.092C220.96 261.814 216.954 252.714 210.69 249.877C214.13 249.917 217.44 249.221 220.92 248.552C224.938 247.776 228.72 247.028 231.938 250.456Z" fill="#5E6061"/>
<path d="M219.055 268.223C219.042 268.447 219.147 268.591 219.278 268.669C218.162 269.419 217.059 270.219 215.995 271.073C217.991 266.923 216.179 258.912 212.147 256.339C211.162 255.261 210.007 254.329 208.811 253.515C207.498 252.636 205.791 251.204 204.11 251.467C203.822 251.507 203.519 251.624 203.231 251.769C203.335 251.545 203.467 251.323 203.611 251.085C203.665 251.085 203.703 251.099 203.757 251.085C213.041 249.352 219.121 260.252 219.055 268.092C219.055 268.131 219.055 268.184 219.055 268.223Z" fill="#B1B1B0"/>
<path d="M217.296 222.353C216.324 222.892 215.457 223.588 214.735 224.533C212.725 227.212 212.976 230.481 214.025 233.449C214.196 233.909 214.368 234.356 214.564 234.803C200.723 231.519 186.699 228.88 172.687 226.489C140.592 221.013 108.051 216.417 75.5227 214.473C70.2046 214.159 64.965 214.119 59.6462 214.527C57.755 214.671 55.168 214.776 52.3842 215.052C51.8722 212.241 52.2926 209.392 53.6712 206.988C63.2836 205.571 73.8155 206.148 81.1826 206.292C101.327 206.687 121.419 208.683 141.432 211.02C166.645 213.975 192.213 217.363 217.296 222.353Z" fill="#B1B1B0"/>
<path d="M211.07 273.528C211.858 273.674 212.554 273.647 213.172 273.49C212.489 274.12 211.806 274.75 211.176 275.394C207.945 274.671 206.566 272.74 205.87 270.286C205.345 268.368 205.214 266.135 204.952 263.876C204.741 262.091 204.124 260.567 203.56 259.123C202.956 257.587 202.404 256.142 202.469 254.566C202.653 254.303 202.758 254.002 202.772 253.699C202.994 253.476 203.257 253.306 203.546 253.187C204.386 252.846 205.45 252.964 206.488 253.699C207.354 254.316 208.142 254.974 208.904 255.656C208.865 255.67 208.825 255.695 208.8 255.722C203.874 255.538 203.441 272.203 211.07 273.528Z" fill="#5E6061"/>
<path d="M207.854 284.756C209.732 288.407 212.476 291.572 215.352 294.605C205.346 295.8 194.892 294.776 184.991 293.791C169.692 292.255 154.512 289.471 139.463 286.28C123.94 282.984 108.392 279.399 93.1067 275.117C80.5395 271.599 68.09 266.28 60.001 256.312C63.0608 257.297 66.5666 256.155 68.6026 252.675C69.5218 251.099 69.9551 249.392 70.0468 247.632C92.3318 250.075 114.722 252.032 136.902 255.367C159.068 258.689 180.986 263.429 202.786 268.683C202.864 268.696 202.93 268.709 203.008 268.709C203.1 269.405 203.244 270.115 203.455 270.823C204.348 273.869 206.266 276.745 209.167 277.468C207.092 279.792 206.291 281.763 207.854 284.756Z" fill="#2E2D2D"/>
<path d="M201.63 259.661C202.26 261.473 202.483 263.115 202.64 264.848C159.135 253.24 115.05 247.947 70.1521 245.663C70.0994 245.649 70.0469 245.649 69.9942 245.649C69.6922 242.655 68.4709 239.635 66.8428 236.995C88.5234 239.937 110.323 242.077 132.016 244.992C154.867 248.052 177.676 251.519 200.448 255.144C200.408 255.472 200.408 255.813 200.435 256.168C200.54 257.127 200.974 257.98 201.327 258.873C201.432 259.136 201.538 259.399 201.63 259.661Z" fill="#959595"/>
<path d="M199.582 117.493C195.222 118.032 190.862 118.597 186.515 119.188C165.24 122.077 143.875 125.333 123.1 130.888C111.728 133.934 100.198 137.677 90.0599 143.797C76.0876 152.228 75.7068 166.752 73.3302 181.262C72.7917 184.598 72.1089 188.105 70.349 191.033C68.5104 194.132 65.6343 195.708 62.5614 197.1V197.113C61.5109 197.586 60.4214 198.058 59.3442 198.557C56.7048 199.792 54.4328 201.486 52.6994 203.508C48.6677 204.244 44.8073 205.321 41.3797 206.884C41.3401 206.66 41.301 206.45 41.2881 206.266C41.1828 205.189 41.0912 204.125 40.999 203.049C51.0974 202.576 60.6052 198.636 62.299 187.632C64.098 175.957 64.9385 162.524 56.4161 153.33C52.2401 148.84 47.0396 145.084 42.0756 141.498C38.399 138.846 34.039 135.892 29.4297 134.5C42.2729 131.177 55.3917 128.826 68.5761 127.014C81.774 125.216 95.037 123.968 108.222 122.852C138.622 120.304 169.102 118.925 199.582 117.493Z" fill="#B5302B"/>
<path d="M82.43 234.92C79.83 234.828 77.23 234.749 74.6431 234.684C74.3013 234.684 74.1701 234.947 74.1967 235.183C71.7669 235.065 69.3379 234.96 66.9212 234.868C66.3831 234.841 65.8445 234.815 65.306 234.803C64.6363 233.936 63.9404 233.135 63.218 232.439C62.7191 231.952 62.1279 232.071 61.7732 232.439H60.3816C60.4081 232.385 60.4212 232.293 60.3816 232.203C59.8956 230.941 59.0685 229.956 58.0967 229.26C60.4868 229.051 62.9159 228.617 65.1352 228.407C67.5909 228.184 70.0467 227.935 72.5155 227.803C78.1492 227.513 80.1451 230.548 82.43 234.92Z" fill="#5E6061"/>
<path d="M67.0531 243.955C67.7223 246.871 67.8536 250.378 65.5296 252.702C62.7192 255.551 59.1869 253.988 57.3088 251.126C57.3744 251.164 57.4269 251.204 57.4927 251.231C61.7473 253.135 64.0588 248.158 63.376 244.691C62.4432 239.95 58.7536 235.315 54.4067 233.24C50.3093 231.296 51.6359 235.248 52.5812 237.534C52.4239 237.691 52.3187 237.902 52.3713 238.138C52.3187 238.072 52.2791 238.02 52.24 237.967C52.1744 237.416 51.8984 236.903 51.4651 236.628C50.966 235.578 50.6769 234.408 50.6113 233.108C53.9337 228.775 56.9807 228.564 59.7384 232.464C59.8957 232.702 60.2635 232.662 60.3817 232.439H61.7733C61.4323 232.819 61.314 233.423 61.7343 233.936C64.1504 236.864 66.1993 240.212 67.0531 243.955Z" fill="#B1B1B0"/>
<path d="M57.335 159.123C61.9574 166.345 60.6308 177.599 59.6719 185.755C58.4376 196.207 50.3615 199.792 40.749 200.199C40.6964 199.451 40.6308 198.703 40.5782 197.953C40.5386 197.56 40.5126 197.165 40.4995 196.785C40.6964 196.811 40.8932 196.837 41.0907 196.864C46.5142 197.495 51.4386 195.367 53.7104 190.284C56.547 183.863 58.0964 174.579 56.586 167.671C55.4699 162.563 52.3839 158.703 48.523 155.511C48.4834 155.472 48.4314 155.432 48.3918 155.405C47.5647 154.723 46.698 154.08 45.8178 153.449C43.2438 151.651 40.4995 149.772 37.6366 148.025C37.5183 147.921 37.374 147.829 37.2298 147.763C33.0798 145.255 28.7199 143.009 24.3735 141.631C21.6287 140.764 17.7814 140.869 15.4043 142.603C15.9558 139.923 18.0828 137.691 21.6287 136.864C27.1314 135.564 32.8303 138.82 37.2819 141.683C44.2552 146.175 52.7776 152.005 57.335 159.123Z" fill="#B1B1B0"/>
<path d="M56.4813 257.086L55.2729 257.849C55.1546 257.73 54.9838 257.652 54.7739 257.598C47.3807 255.905 40.7223 262.142 40.9718 269.522C40.9985 270.153 41.0641 270.757 41.1693 271.334C40.8931 271.098 40.5911 270.876 40.3026 270.64C34.9313 266.042 32.5937 260.238 39.2255 255.84C40.9458 254.697 42.8103 253.777 44.7015 252.937C46.7635 252.018 48.8775 251.19 50.913 250.232C51.6223 250.074 52.3313 249.877 53.027 249.654C53.9203 252.36 55.0761 254.828 56.4813 257.086Z" fill="#B1B1B0"/>
<path d="M53.9863 169.668C54.7743 175.354 53.4874 181.474 51.8197 186.91C49.7446 193.686 43.2967 195.722 37.1249 192.819C31.8326 190.324 31.0446 185.282 30.6243 180.016C30.4014 177.192 29.7842 174.776 29.0358 172.36C29.0879 172.215 29.1145 172.058 29.1145 171.874C29.0358 163.364 26.9869 155.735 33.6973 149.287C33.8941 149.392 34.0915 149.496 34.2883 149.602C29.7707 155.118 29.4951 162.812 30.0863 169.734C30.6639 176.575 31.2941 188 39.0946 190.692C46.6717 193.331 51.2285 186.53 52.279 180.082C53.1066 175.026 53.5399 169.918 52.6467 165.084C53.2905 166.516 53.7634 168.039 53.9863 169.668Z" fill="#959595"/>
<path d="M47.2377 161.179C51.1513 166.603 51.7685 172.788 51.0721 179.275C50.7836 181.927 50.5472 184.908 49.5623 187.404C47.6711 192.223 41.9983 194.061 38.2951 189.912C34.2503 185.381 34.0139 176.74 33.7773 170.936C33.5409 165.303 34.0268 159.315 37.8748 154.98C41.092 156.753 44.3617 158.736 47.1852 161.087C47.2117 161.127 47.2248 161.152 47.2377 161.179Z" fill="#D4C9C3"/>
<path d="M50.1651 212.619C49.2062 214.996 48.9177 217.623 49.4823 220.393C43.7827 221.195 37.9657 222.888 35.9823 226.999C35.9562 227.037 35.9562 227.064 35.9433 227.104C34.1703 227.3 32.4103 227.549 30.6641 227.852C33.0411 218.844 40.8937 214.576 50.1651 212.619Z" fill="#B1B1B0"/>
<path d="M195.077 177.202C178.913 178.972 144.569 187.325 144.569 187.325C144.569 187.325 136.864 181.545 131.473 178.816C125.54 175.814 118.797 170.476 112.272 169.021C107.792 168.024 112.254 170.973 114.158 172.732C119.469 177.636 124.872 182.674 130.501 187.201C134.612 190.508 144.244 196.968 144.244 196.968C144.244 196.968 156.452 192.78 162.297 190.622C169.65 187.909 176.948 184.974 184.284 182.201C186.696 181.29 194.896 179.541 195.077 177.202Z" fill="#EFC281"/>
<path d="M1018.85 207.789C1011.06 209.129 1003.25 210.061 995.355 210.245C996.432 206.2 997.377 202.142 998.415 198.242C1000.61 189.942 1002.75 181.644 1004.73 173.305C1011.51 175.34 1010.14 191.309 1009.68 195.748C1009.58 196.745 1010.55 198.085 1011.57 198.229C1014.42 198.649 1018.01 199.936 1019.35 202.681C1020.35 204.756 1019.9 206.397 1018.85 207.789ZM1008.8 217.769C1006.82 220.58 1005.13 223.613 1003.65 226.713C1002.12 229.956 1001.34 232.95 997.968 234.841C994.632 236.693 990.653 237.349 986.989 238.203C984.784 238.728 982.577 239.228 980.371 239.74V239.753C980.029 239.832 979.675 239.911 979.333 239.989C980.988 238.768 982.564 237.27 984.048 235.485C989.445 228.958 992.4 220.908 994.699 212.688C994.895 212.688 995.092 212.701 995.289 212.701C1001.78 212.897 1008.18 212.582 1014.54 211.572C1012.27 213.357 1010.48 215.367 1008.8 217.769ZM971.087 239.437C965.229 241.276 959.044 239.87 953.503 237.652C945.821 234.565 938.139 231.177 930.613 227.737C917.64 221.814 903.732 212.807 889.156 211.9C861.999 210.232 850.955 239.792 838.427 258.754C813.056 262.366 787.699 266.03 762.327 269.706C768.132 241.473 770.64 212.544 767.659 183.81C794.96 183.548 822.248 183.771 849.524 184.664C897.955 186.24 946.345 190.034 994.081 198.557C992.479 204.558 990.772 210.521 988.88 216.39C985.979 225.452 980.961 236.338 971.087 239.437ZM882.183 256.561C875.669 257.508 869.143 258.413 862.629 259.385C861.697 252.254 854.383 248.328 847.908 250.903C854.356 239.767 860.725 228.038 871.808 220.934C887.239 211.046 903.036 219.594 917.744 226.529C927.921 231.334 938.323 235.616 948.552 240.304C955.052 243.285 961.881 244.98 968.263 244.257L968.316 244.664C939.544 248.171 910.876 252.438 882.183 256.561ZM899.044 273.516C895.144 286.464 886.123 297.98 871.677 298.334C857.18 298.689 849.064 282.786 847.777 270.245C847.777 270.206 847.764 270.166 847.764 270.126C848.355 269.614 848.933 269.064 849.511 268.498C850.941 278.058 855.813 288.577 866.044 290.219C883.207 292.964 893.24 274.093 893.752 259.293C896.26 258.938 898.781 258.584 901.291 258.229C901.015 263.364 900.292 268.525 899.044 273.516ZM878.007 305.334C874.829 307.448 871.547 309.103 868.184 310.351C865.584 309.969 862.971 309.497 860.411 308.88C852.937 307.093 845.86 304.073 840.411 298.4C835.052 292.82 833.148 286.03 831.927 278.689C835.433 278.045 838.952 277.402 842.472 276.798C843.377 276.641 843.929 276.154 844.179 275.537C845.768 289.76 857.259 304.178 872.243 303.456C876.839 303.233 880.988 301.972 884.679 299.951C882.669 301.907 880.449 303.718 878.007 305.334ZM844.008 273.213C843.956 273.121 843.916 273.042 843.864 272.964C843.916 272.937 843.956 272.91 843.995 272.872C844.008 272.99 843.995 273.095 844.008 273.213ZM847.461 264.796C845.611 267.001 843.417 268.945 841.001 270.613C840.2 271.165 839.372 271.689 838.519 272.176C836.287 272.557 834.055 272.937 831.821 273.319C835.328 270.115 838.375 266.122 841.027 262.142C841.264 261.946 841.421 261.696 841.5 261.421C842.984 259.162 844.336 256.929 845.571 254.881C845.873 254.369 846.175 253.857 846.477 253.332C846.687 253.476 846.949 253.541 847.252 253.424C847.567 253.305 847.883 253.2 848.197 253.108C853.476 251.572 858.323 254.526 859.911 259.792C855.485 260.449 850.443 261.237 847.461 264.796ZM886.175 260.357C887.12 260.225 888.067 260.094 889.025 259.949C887.357 271.664 878.637 288.498 864.967 285.072C862.012 284.322 859.609 282.458 857.665 280.029C860.948 282.326 865.177 283.377 869.996 282.589C879.097 281.092 885.532 269.313 886.175 260.357ZM870.364 278.374C861.107 281.604 853.831 274.67 852.636 266.056C854.264 265.176 856.064 264.69 858.085 264.322C865.492 262.944 873.069 262.209 880.515 261.158C881.224 261.053 881.933 260.961 882.629 260.856C881.172 267.58 876.509 276.233 870.364 278.374ZM679.767 298.045C654.933 302.104 630.101 306.135 605.216 309.917C597.652 311.073 590.088 312.228 582.484 313.213C574.671 314.237 566.541 315.42 558.689 315.288C554.381 315.222 551.151 314.578 548.643 310.968C547.08 308.722 545.596 306.41 544.165 304.073C554.343 302.957 564.532 301.801 574.709 300.606C575.091 301.525 576.535 301.565 576.903 300.462C576.916 300.422 576.929 300.384 576.943 300.33C643.548 292.438 710.023 282.825 776.312 272.872C795.971 269.917 815.577 266.778 835.171 263.404C831.979 267.685 827.791 272.544 822.932 274.828C775.263 282.852 727.475 290.245 679.767 298.045ZM539.884 296.824C535.301 288.826 531.099 280.607 526.424 272.648C517.047 256.653 505.268 242.05 489.523 231.952C461.485 213.988 423.771 210.954 394.355 227.474C381.919 234.473 371.977 245.15 365.32 257.73C363.876 260.474 362.655 263.298 361.564 266.161C357.02 262.037 351.072 260.712 344.913 260.934C336.836 261.224 328.747 262.733 320.697 263.509C311.701 264.388 302.693 264.796 293.685 265.15C288.708 242.852 270.861 231.545 250.559 224.874L250.835 224.046C251.571 224.27 252.319 224.48 253.08 224.65C261.236 228.013 273.605 228.604 280.291 221.998C283.14 219.174 284.729 214.841 285.648 210.285C312.503 215.025 339.804 213.66 366.843 211.204C385.596 209.509 404.335 207.632 423.075 205.846C467.395 201.617 511.716 197.533 556.101 194.093C562.904 193.568 569.72 193.056 576.535 192.556C577.035 199.017 577.415 205.492 577.639 212.005C578.137 226.673 577.98 241.341 577.415 256.01C577.152 263.128 576.693 270.245 576.193 277.349C575.721 283.851 574.697 290.443 574.592 296.983C563.981 298.532 553.384 300.133 542.799 301.801C541.815 300.146 540.843 298.492 539.884 296.824ZM477.073 316.929C475.839 331.125 470.297 345.348 462.864 357.442C452.529 374.212 435.353 384.861 415.563 378.938C393.843 372.438 382.247 351.428 379.581 329.996C376.115 302.169 387.881 273.725 411.505 258.294C412.161 258.689 413.016 258.794 413.921 258.348C424.007 253.305 435.445 250.337 446.331 254.71C456.088 258.624 463.193 267.146 468.117 276.154C474.907 288.63 478.295 302.721 477.073 316.929ZM486.62 318.072C485.701 318.164 484.781 318.256 483.876 318.361C485.071 304.98 482.615 291.821 477.047 279.345C471.584 267.093 462.799 255.275 450.219 249.733C437.231 244.008 423.167 246.792 411.453 254.12C410.52 254.71 410.205 255.564 410.297 256.378C387.893 270.048 374.565 295.314 374.368 321.473C374.197 346.345 385.136 372.793 409.168 382.957C429.469 391.545 450.481 384.756 463.968 367.632C473.292 355.813 479.831 340.974 482.747 326.24C482.996 325.005 483.193 323.785 483.377 322.551C484.375 322.537 485.373 322.524 486.384 322.51C486.292 323.693 486.187 324.874 486.056 326.056C485.425 326.28 484.913 326.805 484.769 327.737C479.805 358.19 458.951 393.462 425.071 396.942C393.699 400.16 371.321 372.386 363.533 344.966C355.484 316.706 360.632 285.636 376.916 261.237C385.504 248.38 397.677 235.892 412.228 230.034C428.616 223.429 444.689 228.669 457.257 240.2C478.544 259.74 487.644 289.589 486.62 318.072ZM346.817 307.566C346.672 307.816 346.515 308.065 346.371 308.314C340.291 308.998 334.236 309.785 328.183 310.626C324.164 311.165 320.145 311.743 316.115 312.32C310.06 313.2 304.02 314.212 297.94 314.92C295.313 315.236 291.715 315.748 289.285 314.369C283.547 311.098 292.424 307.632 294.815 307.12C295.852 306.897 295.392 305.4 294.393 305.557C291.176 306.069 282.615 308.866 284.387 313.646C286.239 318.637 294.065 318.48 298.163 318.125C313.277 316.825 328.445 314.986 343.495 312.78C339.148 319.096 333.751 324.966 327.355 328.972C321.301 332.78 314.46 334.329 307.513 335.656C287.251 339.556 267.447 341.197 246.816 339.884C225.267 338.519 203.953 334.908 182.732 331.073C161.275 327.198 139.777 323.482 118.464 318.9C97.4007 314.382 76.0215 309.418 55.7324 302.064C47.0263 298.9 39.2913 292.649 34.1173 285.019C29.4689 278.164 26.8815 270.285 25.7919 262.117C27.1971 262.576 28.6283 262.892 30.1777 262.917C30.7949 262.93 31.2544 262.694 31.57 262.34C31.3069 269.47 39.8168 275.445 45.9361 278.952C48.3657 280.935 51.4252 282.34 54.5111 283.298C65.5553 288.262 77.1643 291.244 89.0616 293.922C103.586 297.192 118.109 300.396 132.687 303.456C153.605 307.856 174.629 312.005 195.825 314.854C207.92 316.47 220.448 318.046 232.66 316.825C235.168 316.574 237.716 316.154 240.159 315.458C239.24 317.73 240.015 320.659 241.813 322.551C244.269 325.137 249.535 325.833 251.4 322.104C252.332 320.213 251.741 317.533 250.927 315.721C250.192 314.041 249.075 312.793 247.683 311.978C248.695 311.257 249.64 310.416 250.507 309.47C255.156 308.433 258.937 305.544 260.237 300.422C260.632 298.873 260.815 297.166 260.711 295.498C266.672 298.426 273.751 299.648 279.791 299.648C284.649 299.635 289.588 299.071 294.276 297.849C295.839 297.441 297.401 297.008 298.924 296.47C299.397 296.3 300.895 295.734 300.841 295.734C301.407 295.512 301.735 295.104 301.865 294.645C302.181 293.489 301.315 292.032 299.869 292.517C294.46 294.343 287.893 294.749 282.26 294.868C276.955 294.986 271.584 294.592 266.501 292.977C260.881 291.19 256.784 287.842 252.424 284.165C251.151 282.838 250.455 281.592 251.281 280.62C252.451 279.267 256.272 278.61 257.9 277.928C260.185 276.969 262.417 275.932 264.637 274.816C267.249 273.489 269.719 272.018 272.056 270.245C286.58 270.784 301.157 269.956 315.615 268.564C322.825 267.856 329.995 266.922 337.165 265.833C344.229 264.769 352.096 263.613 358.295 267.501C359.043 267.973 359.779 268.525 360.475 269.156C358.807 273.988 357.453 278.925 356.036 283.837C353.685 292.018 351.177 300.133 346.817 307.566ZM20.1053 255.905C23.52 252.569 24.6887 246.201 24.7017 242.156C24.7277 236.785 22.0881 231.493 17.4924 229.024C18.1356 228.88 18.7924 228.748 19.4356 228.617C28.7069 226.634 37.8731 224.913 47.4856 224.533C49.5211 224.441 49.5476 221.302 47.4856 221.341C45.6211 221.381 43.7564 221.46 41.8783 221.578C44.1372 220.528 47.1444 220.108 48.9829 219.765C53.6711 218.912 58.4643 218.545 63.2179 218.373C66.9605 218.242 70.6637 218.373 74.4064 218.624C86.2648 219.437 98.1096 220.698 109.928 222.05C145.017 226.069 180.145 231.02 214.591 238.965C223.257 240.974 231.899 243.141 240.395 245.793C246.041 247.553 252.976 249.51 258.74 252.74C251.557 253.173 244.728 254.816 238.241 257.454C236.981 253.029 234.236 247.356 229.719 245.806C227.04 244.888 223.888 245.78 221.248 246.359C216.613 247.383 212.213 248.604 207.42 248.723C207.224 248.723 207.092 248.853 207.027 248.997C205.857 248.972 204.624 249.156 203.363 249.614C202.916 249.772 202.785 250.14 202.837 250.481C202.469 250.889 202.115 251.323 201.8 251.769C201.735 251.743 201.695 251.702 201.629 251.677C184.019 246.464 165.201 243.824 147.092 241.04C126.396 237.861 105.411 235.84 84.4653 234.998C84.5971 234.776 84.6361 234.5 84.5179 234.198C83.3621 231.19 81.6424 228.039 78.6085 226.595C75.9559 225.333 72.9356 225.898 70.1387 226.226C67.0657 226.568 64.0189 226.962 60.9591 227.382C59.9351 227.526 58.9105 227.684 57.8861 227.842C57.3215 227.921 56.7439 228.013 56.1793 228.092C55.9033 228.131 55.6668 228.157 55.4439 228.184C53.1981 227.829 50.808 228.748 49.4949 231.282C48.4971 233.226 48.6023 235.052 49.3637 236.812C47.0263 237.652 44.61 238.229 42.1148 238.348C39.5277 238.453 37.0987 237.625 34.5507 237.508C33.5924 237.468 33.0539 238.768 33.7627 239.424C38.1881 243.574 46.1987 242.654 51.11 239.845C52.2788 241.696 53.1981 243.351 53.6053 245.82C53.6184 245.912 53.6315 246.017 53.658 246.109C53.4872 246.109 53.3163 246.121 53.1324 246.174C46.2777 248.078 40.3684 247.198 33.4476 246.726C32.2001 246.634 32.0293 248.498 33.1591 248.84C36.7309 249.89 40.2372 250.665 43.7299 250.836C38.7267 252.648 33.5924 255.065 32.0163 259.818C31.9507 260.016 31.9111 260.2 31.8585 260.396C31.6747 259.884 31.2809 259.437 30.6767 259.214C28.2996 258.334 25.8309 257.757 23.4277 256.929C22.3247 256.536 21.2215 256.168 20.1053 255.905ZM50.1648 207.618C49.2059 209.996 48.9173 212.622 49.482 215.393C43.7824 216.194 37.9653 217.888 35.982 221.998C35.9559 222.037 35.9559 222.064 35.9429 222.104C34.17 222.3 32.41 222.549 30.6637 222.852C33.0408 213.844 40.8933 209.576 50.1648 207.618ZM37.1247 192.818C31.8324 190.324 31.0444 185.281 30.6241 180.016C30.4012 177.192 29.784 174.776 29.0356 172.36C29.0877 172.214 29.1143 172.057 29.1143 171.873C29.0356 163.364 26.9867 155.735 33.6971 149.287C33.8939 149.392 34.0913 149.496 34.2881 149.601C29.7705 155.117 29.4949 162.812 30.0861 169.733C30.6637 176.575 31.2939 188 39.0944 190.692C46.6715 193.331 51.2283 186.529 52.2788 180.081C53.1064 175.025 53.5397 169.917 52.6465 165.084C53.2903 166.516 53.7632 168.038 53.9861 169.668C54.7741 175.353 53.4872 181.473 51.8195 186.909C49.7444 193.685 43.2965 195.721 37.1247 192.818ZM50.0725 175.274C49.784 177.926 49.5476 180.908 48.5627 183.404C46.6715 188.222 40.9987 190.061 37.2955 185.912C33.2507 181.381 33.0143 172.74 32.7777 166.936C32.5413 161.303 33.0272 155.314 36.8752 150.98C40.0924 152.753 43.3621 154.736 46.1856 157.087C46.2121 157.127 46.2252 157.152 46.2381 157.178C50.1517 162.602 50.7689 168.788 50.0725 175.274ZM21.6288 136.864C27.1315 135.564 32.8304 138.82 37.282 141.682C44.2553 146.174 52.7777 152.005 57.3351 159.123C61.9575 166.345 60.6309 177.598 59.672 185.754C58.4377 196.206 50.3616 199.792 40.7491 200.198C40.6965 199.45 40.6309 198.703 40.5783 197.953C40.5387 197.56 40.5127 197.165 40.4996 196.785C40.6965 196.81 40.8933 196.837 41.0908 196.864C46.5143 197.495 51.4387 195.367 53.7105 190.284C56.5471 183.863 58.0965 174.578 56.5861 167.67C55.47 162.562 52.384 158.702 48.5231 155.51C48.4835 155.472 48.4315 155.432 48.3919 155.405C47.5648 154.722 46.6981 154.08 45.8179 153.449C43.2439 151.65 40.4996 149.772 37.6367 148.025C37.5184 147.921 37.3741 147.829 37.2299 147.762C33.0799 145.254 28.72 143.009 24.3736 141.631C21.6288 140.764 17.7815 140.869 15.4044 142.603C15.9559 139.923 18.0829 137.691 21.6288 136.864ZM68.5757 127.015C81.7736 125.216 95.0367 123.968 108.221 122.852C138.621 120.304 169.101 118.925 199.581 117.493C195.221 118.032 190.861 118.597 186.515 119.188C165.24 122.077 143.875 125.333 123.1 130.888C111.728 133.934 100.198 137.677 90.0596 143.797C76.0872 152.228 75.7064 166.752 73.3299 181.262C72.7913 184.598 72.1085 188.105 70.3487 191.033C68.51 194.132 65.634 195.708 62.5611 197.1V197.113C61.5105 197.586 60.4211 198.058 59.3439 198.557C56.7044 199.792 54.4324 201.486 52.6991 203.508C48.6673 204.244 44.8069 205.321 41.3793 206.884C41.3397 206.66 41.3007 206.451 41.2877 206.267C41.1824 205.189 41.0908 204.125 40.9987 203.049C51.0971 202.576 60.6048 198.636 62.2987 187.632C64.0976 175.957 64.9381 162.524 56.4157 153.331C52.2397 148.84 47.0392 145.084 42.0752 141.498C38.3987 138.846 34.0387 135.892 29.4293 134.5C42.2725 131.177 55.3913 128.827 68.5757 127.015ZM278.203 189.641C277.348 186.161 275.668 183.272 273.513 180.724C273.383 180.317 273.12 180.054 272.817 179.91C270.927 177.834 268.747 175.97 266.463 174.185C259.344 168.629 251.596 162.878 243.14 159.542C239.568 158.137 233.553 156.797 229.851 158.82C231.584 155.445 236.023 153.712 240.448 154.053C245.28 154.448 250.637 156.837 254.683 159.372C260.973 163.312 267.067 168.013 272.543 172.989C276.692 176.759 281.209 181.197 283.087 186.621C285.924 194.854 283.875 206.213 281.223 214.237C279.725 218.781 277.545 221.355 272.871 222.892C270.717 223.6 268.459 224.008 266.187 224.125C278.491 218.781 281.039 201.224 278.203 189.641ZM254.577 169.062C256.351 170.284 258.097 171.532 259.777 172.753C263.508 175.419 267.684 178.269 270.848 181.841C273.015 190.009 274.131 201.132 269.299 208.472C266.791 212.281 261.695 215.577 257.164 213.081C252.372 210.442 249.588 203.692 248.261 198.703C245.595 188.643 245.963 176.022 254.577 169.062ZM243.731 203.442C239.305 191.138 239.489 174.881 250.835 166.621C251.255 166.884 251.676 167.158 252.109 167.421C243.783 174.854 242.799 186.502 244.965 197.218C246.777 206.174 253.843 220.975 265.228 215.695C274.723 211.296 276.311 199.713 275.195 189.549C276.481 194.04 276.18 198.912 275.693 203.508C275.379 206.384 274.801 209.155 273.789 211.703C273.776 211.703 273.776 211.716 273.764 211.729C269.247 216.588 263.14 220.436 256.297 218.242C249.745 216.141 245.937 209.536 243.731 203.442ZM214.564 234.803C200.723 231.519 186.699 228.88 172.687 226.489C140.592 221.013 108.051 216.417 75.5225 214.473C70.2044 214.158 64.9648 214.118 59.646 214.526C57.7548 214.67 55.1679 214.776 52.384 215.052C51.872 212.241 52.2924 209.392 53.6711 206.988C63.2835 205.57 73.8153 206.148 81.1824 206.292C101.327 206.687 121.419 208.683 141.432 211.02C166.645 213.975 192.213 217.363 217.296 222.353C216.324 222.892 215.457 223.588 214.735 224.533C212.725 227.212 212.976 230.481 214.025 233.449C214.196 233.909 214.368 234.356 214.564 234.803ZM229.088 238.518C225.451 237.52 221.787 236.574 218.123 235.681C218.097 235.524 218.044 235.366 217.965 235.196C217.597 234.54 217.296 233.869 217.047 233.2C215.655 229.287 216.468 225.386 221.183 223.862C221.669 223.705 222.168 223.575 222.68 223.456C229.667 224.913 236.6 226.489 243.495 228.236C263.809 233.397 282.168 245.032 289.168 265.308C283.508 265.517 277.848 265.728 272.188 266.03C272.109 265.99 272.031 265.964 271.939 265.925C269.837 247.75 243.757 242.576 229.088 238.518ZM243.587 314.578C243.809 314.448 243.928 314.277 243.993 314.093C244.295 313.949 244.597 313.817 244.899 313.66C247.079 314.749 248.629 316.641 248.812 319.28C248.917 320.842 248.379 321.828 246.501 321.788C243.245 321.722 240.093 316.666 243.587 314.578ZM222.377 266.188C222.325 266.226 222.285 266.253 222.233 266.293C221.892 266.529 221.735 266.87 221.695 267.212C221.196 267.488 220.684 267.789 220.185 268.092C220.96 261.814 216.955 252.714 210.691 249.877C214.131 249.917 217.44 249.221 220.92 248.552C224.939 247.776 228.72 247.028 231.939 250.456C233.935 252.583 235.221 255.577 236.18 258.321C234.039 259.266 231.951 260.317 229.889 261.473C227.788 262.642 225.727 263.929 223.704 265.294C223.1 265.36 222.64 265.714 222.377 266.188ZM207.853 284.756C209.732 288.406 212.476 291.572 215.352 294.605C205.345 295.8 194.892 294.776 184.991 293.79C169.692 292.254 154.512 289.47 139.463 286.28C123.94 282.984 108.392 279.399 93.1064 275.117C80.5392 271.599 68.0897 266.28 60.0007 256.312C63.0605 257.297 66.5663 256.154 68.6023 252.674C69.5215 251.098 69.9548 249.392 70.0465 247.632C92.3315 250.074 114.721 252.032 136.901 255.366C159.068 258.689 180.985 263.429 202.785 268.683C202.864 268.696 202.929 268.709 203.008 268.709C203.1 269.405 203.244 270.114 203.455 270.822C204.348 273.869 206.265 276.745 209.167 277.468C207.092 279.792 206.291 281.762 207.853 284.756ZM203.612 251.085C203.665 251.085 203.704 251.098 203.757 251.085C213.041 249.352 219.121 260.252 219.056 268.092C219.056 268.13 219.056 268.184 219.056 268.222C219.043 268.446 219.148 268.59 219.279 268.669C218.163 269.418 217.06 270.218 215.996 271.073C217.992 266.922 216.18 258.912 212.148 256.338C211.163 255.261 210.008 254.329 208.812 253.514C207.499 252.636 205.792 251.204 204.111 251.467C203.823 251.507 203.52 251.624 203.232 251.769C203.336 251.545 203.468 251.322 203.612 251.085ZM202.469 254.565C202.653 254.302 202.759 254.001 202.772 253.698C202.995 253.476 203.257 253.305 203.547 253.186C204.387 252.845 205.451 252.964 206.488 253.698C207.355 254.316 208.143 254.973 208.904 255.656C208.865 255.669 208.825 255.694 208.8 255.721C203.875 255.537 203.441 272.202 211.071 273.528C211.859 273.673 212.555 273.646 213.172 273.489C212.489 274.12 211.807 274.749 211.176 275.393C207.945 274.67 206.567 272.74 205.871 270.285C205.345 268.368 205.215 266.134 204.952 263.876C204.741 262.09 204.124 260.566 203.56 259.122C202.956 257.586 202.404 256.141 202.469 254.565ZM201.327 258.873C201.432 259.136 201.537 259.398 201.629 259.661C202.26 261.473 202.483 263.114 202.64 264.848C159.135 253.24 115.049 247.946 70.1517 245.662C70.0991 245.649 70.0465 245.649 69.9939 245.649C69.6919 242.654 68.4705 239.635 66.8424 236.995C88.5231 239.937 110.323 242.077 132.016 244.992C154.867 248.052 177.676 251.518 200.448 255.144C200.408 255.472 200.408 255.813 200.435 256.168C200.54 257.126 200.973 257.98 201.327 258.873ZM52.5809 237.533C52.4236 237.691 52.3184 237.901 52.3711 238.137C52.3184 238.072 52.2788 238.02 52.2397 237.967C52.1741 237.416 51.8981 236.903 51.4648 236.628C50.9657 235.577 50.6767 234.408 50.6111 233.108C53.9335 228.774 56.9804 228.564 59.7381 232.464C59.8955 232.701 60.2632 232.661 60.3815 232.438C60.408 232.385 60.4211 232.293 60.3815 232.203C59.8955 230.941 59.0684 229.956 58.0965 229.26C60.4867 229.05 62.9157 228.617 65.1351 228.406C67.5908 228.184 70.0465 227.935 72.5153 227.803C78.1491 227.513 80.1449 230.548 82.4299 234.92C79.8299 234.828 77.2299 234.749 74.6429 234.684C74.3012 234.684 74.17 234.946 74.1965 235.182C71.7668 235.065 69.3377 234.96 66.9211 234.868C66.3829 234.841 65.8444 234.815 65.3059 234.803C64.6361 233.936 63.9403 233.134 63.2179 232.438C62.7189 231.952 62.1277 232.07 61.7731 232.438C61.432 232.818 61.3137 233.423 61.734 233.936C64.1501 236.864 66.1991 240.212 67.0528 243.954C67.722 246.87 67.8533 250.377 65.5293 252.701C62.7189 255.55 59.1867 253.988 57.3085 251.125C57.3741 251.164 57.4267 251.204 57.4924 251.231C61.7471 253.135 64.0585 248.157 63.3757 244.69C62.4429 239.949 58.7533 235.314 54.4064 233.24C50.3091 231.296 51.6356 235.248 52.5809 237.533ZM55.2731 257.849C55.1548 257.73 54.984 257.652 54.7741 257.598C47.3809 255.905 40.7225 262.142 40.972 269.522C40.9987 270.153 41.0643 270.757 41.1695 271.334C40.8933 271.098 40.5913 270.876 40.3028 270.64C34.9315 266.042 32.5939 260.238 39.2257 255.84C40.946 254.697 42.8105 253.777 44.7017 252.937C46.7637 252.018 48.8777 251.19 50.9132 250.232C51.6225 250.074 52.3315 249.877 53.0272 249.654C53.9205 252.36 55.0763 254.828 56.4815 257.086C67.6173 275.144 93.5793 280.212 112.791 285.137C137.755 291.532 163.363 297.284 189.101 299.412C198.989 300.225 209.18 300.436 218.937 298.321C219.961 299.398 220.973 300.463 221.919 301.552C222.693 302.432 224.032 302.668 225.123 302.405C225.556 302.288 225.976 302.169 226.409 302.025C228.957 304.046 231.124 306.529 234.315 307.71C236.823 308.644 239.739 309.352 242.588 309.694C240.172 310.6 237.572 311.125 235.076 311.466C225.267 312.806 215.181 311.992 205.399 310.941C188.143 309.102 171.032 305.938 154.025 302.629C129.232 297.809 104.466 292.674 79.8429 287.041C73.8809 285.676 67.4465 284.046 61.1955 281.866C60.9987 281.644 60.7361 281.46 60.3815 281.342C58.9372 280.896 57.2824 280.357 55.6148 279.713C54.3143 279.162 53.0272 278.584 51.7799 277.98C49.3507 276.693 47.1835 275.078 45.91 273.002C41.7996 266.318 47.9585 260.344 54.472 259.805C55.47 259.713 55.9299 258.44 55.2731 257.849ZM248.931 289.181C252.568 292.019 255.785 293.606 254.564 298.86C253.711 302.537 251.151 303.718 247.749 304.428C243.875 305.229 239.148 304.822 235.365 303.902C233.12 303.35 231.36 301.946 229.535 300.646C234.945 297.717 239.673 292.228 239.883 286.345C240.185 278.19 234.539 269.51 227 266.226C228.392 265.4 229.797 264.625 231.203 263.889C241.144 258.768 251.755 255.932 263.257 255.773C266.528 258.453 268.957 261.841 269.824 266.226C263.481 268.604 257.375 271.624 251.072 274.12C243.679 277.048 242.509 284.192 248.931 289.181ZM399.725 101.631C399.712 101.999 399.844 102.3 400.055 102.524C393.212 102.286 386.371 102.102 379.529 102.01C381.564 87.9078 382.563 73.6852 384.505 59.5678C384.965 56.2985 385.293 52.5959 386.252 49.4305C387.172 46.3839 388.445 45.6745 391.413 45.5305C393.961 45.3985 396.508 45.4252 399.056 45.3732C400.816 45.3332 402.588 45.2945 404.361 45.2545C401.499 63.8758 400.737 82.8519 399.725 101.631ZM529.037 109.312C510.087 108.407 491.164 107.25 472.228 106.134C479.621 96.2065 496.404 96.5092 507.421 96.9812C513.225 97.2305 519.031 97.7558 524.795 98.5438C525.032 102.248 526.357 105.924 529.037 109.312ZM575.905 74.7625C571.164 72.6212 566.069 71.0585 560.895 70.4292C558.689 65.7532 555.905 61.4065 552.412 57.5985C539.687 43.7305 517.809 41.8145 500.277 39.8572C485.899 38.2425 471.44 37.6252 456.968 37.4665C458.36 33.3039 460.684 29.3118 462.523 25.4385C462.641 25.2025 462.668 24.9785 462.655 24.7558C486.265 24.6372 509.877 25.8185 533.396 28.5505C552.399 30.7572 575.695 37.3092 583.469 56.7838C586.844 65.2278 588.959 75.1171 589.313 84.8078C586.056 80.3305 580.856 76.9812 575.905 74.7625ZM541.197 98.5305C545.609 91.8865 557.599 93.0292 563.665 96.2065C563.863 96.3118 564.06 96.4305 564.257 96.5478C565.373 101.132 566.187 105.793 566.608 110.403C561.119 110.481 555.629 110.376 550.14 110.192C549.563 104.821 546.043 101.119 541.197 98.5305ZM530.587 94.8012C531.965 86.0425 539.175 78.4265 548.721 75.9972C551.269 75.3532 553.961 75.0252 556.705 74.9985C557.493 76.6665 558.216 78.3598 558.912 80.0678C560.356 83.6132 561.657 87.3038 562.773 91.0718C554.933 88.4318 542.484 88.9318 538.268 97.1652C535.865 96.1932 533.265 95.4185 530.587 94.8012ZM547.291 110.1C544.611 109.996 541.932 109.89 539.267 109.772C537.52 109.706 535.787 109.615 534.04 109.536C534 109.431 533.948 109.325 533.869 109.221C531.768 106.029 530.679 102.707 530.416 99.4505C537.244 100.789 545.425 103.495 547.291 110.1ZM575.445 110.113C574.527 110.153 573.593 110.192 572.688 110.232C571.532 110.284 570.389 110.324 569.247 110.351C569.063 106.791 568.8 103.114 568.393 99.4105C571.743 102.26 574.447 105.99 575.445 110.113ZM567.553 93.2131C566.581 87.1585 565.149 81.1305 563.023 75.4585C574.04 77.1265 584.756 83.3638 589.141 93.1865C588.959 95.6425 588.643 98.0585 588.171 100.396C587.421 104.177 586.424 108.131 582.379 109.195C581.487 109.431 580.567 109.601 579.648 109.733C578.885 102.615 573.751 96.7051 567.553 93.2131ZM453.108 57.0865C454.539 59.5945 460.212 59.0172 462.497 59.1092C466.135 59.2532 469.799 59.3052 473.449 59.3585C475.353 59.3852 477.376 59.6998 478.859 58.2812C481.656 55.6025 480.737 49.7718 480.659 46.3838C480.645 45.9772 480.527 45.6092 480.331 45.2812C482.641 45.4118 484.952 45.5559 487.264 45.7279C497.493 46.4625 507.724 47.5918 517.835 49.3385C525.728 50.7038 533.909 52.4251 540.948 56.3905C546.817 59.6998 550.955 64.5852 554.172 70.1398C551.427 70.2572 548.696 70.6785 546.003 71.4532C535.708 74.4078 526.804 83.7185 525.057 93.7639C519.043 92.8319 513.173 92.5171 509.076 92.2545C495.537 91.4131 473.751 91.2038 467.145 105.832C457.599 105.281 448.065 104.743 438.517 104.269C426.463 103.665 414.341 103.048 402.181 102.589C402.325 102.444 402.417 102.248 402.471 102.01C405.661 83.2718 407.001 64.1385 408.169 45.1758C415.221 45.0185 422.273 44.8732 429.312 44.7425C436.968 44.6105 444.611 44.5185 452.267 44.5452C452.412 45.8985 452.819 47.1985 453.449 48.3798C453.252 48.5118 453.108 48.7079 453.068 48.9972C452.767 50.9932 452.083 55.3132 453.108 57.0865ZM296.955 113.423C307.88 112.529 318.071 112.044 328.039 107.041C328.484 106.817 328.931 106.554 329.377 106.318C331.151 106.24 332.911 106.173 334.683 106.121C371.452 104.834 408.209 106.213 444.952 108.182C452.871 108.604 460.776 109.049 468.683 109.509C468.761 109.509 468.853 109.523 468.932 109.523C492.385 110.875 515.825 112.293 539.267 113.238C550.757 113.698 562.34 114.197 573.843 113.528C580.987 113.121 587.592 112.91 590.284 105.216C591.335 102.208 591.992 99.0039 592.36 95.6945C592.491 95.4972 592.596 95.2745 592.596 94.9851C592.621 94.4731 592.596 93.9745 592.569 93.4758C593.305 83.1265 591.309 71.9518 588.735 62.7598C587.015 56.6398 584.624 50.2451 580.383 45.3851C573.909 37.9665 564.283 33.1598 555.064 30.1532C542.129 25.9505 528.301 25.1225 514.815 24.1118C499.319 22.9558 483.757 22.4185 468.223 22.4572C437.704 22.5492 407.119 24.7692 376.995 29.7065C376.837 29.7318 376.745 29.8372 376.705 29.9692C376.64 30.2185 376.797 30.5732 377.099 30.5332C404.624 27.0532 432.32 25.0305 460.015 24.7812C457.691 28.4585 454.853 32.9105 453.317 37.4411C446.883 37.4145 440.435 37.4412 434 37.5332C422.668 37.6905 411.335 37.9532 400.001 38.1758C392.661 38.3212 381.38 36.8105 379.871 46.5678C378.479 55.6425 378.596 65.1758 377.756 74.3292C376.903 83.5345 376.18 92.7665 375.3 101.972C369.115 101.932 362.929 101.985 356.757 102.129C360.579 95.8652 362.628 87.9465 364.229 80.9865C366.095 72.8972 367.027 64.6638 367.644 56.4038C370.756 47.6572 373.16 38.6092 375.419 29.6398C375.787 28.2225 376.128 26.8172 376.483 25.4118C376.575 25.0052 376.561 24.6505 376.456 24.3225C377.152 24.1772 377.861 24.0332 378.557 23.9012C414.644 16.6532 451.465 15.3132 488.196 17.2705C504.453 18.1238 520.711 19.5945 536.797 22.1158C548.025 23.8758 559.307 25.8719 569.404 31.3612C579.529 36.8625 590.941 47.2905 595.064 57.9265C595.879 65.1358 596.772 72.3585 597.52 79.5678C598.885 92.8452 599.175 106.857 602.064 119.949C592.333 120.001 582.616 119.989 572.884 119.832C539.293 119.372 505.753 117.585 472.359 113.344C463.18 112.188 454.027 110.809 444.887 109.325C444.007 109.181 443.613 110.508 444.505 110.679C485.241 118.623 526.687 121.761 568.183 122.668C568.183 122.812 568.183 122.969 568.209 123.128C570.717 140.672 573.187 158.11 575.012 175.629C569.667 175.97 564.323 176.299 558.991 176.653C510.468 179.884 462.011 183.981 413.685 189.313C374.539 193.633 335.327 198.427 296.6 205.636C293.632 206.2 290.651 206.779 287.671 207.356C287.171 207.304 286.672 207.25 286.16 207.198C286.645 203.732 286.829 200.29 286.948 197.454C287.368 186.988 283.809 179.805 276.272 172.542C267.788 164.374 257.453 155.957 245.989 152.412C308.787 136.942 372.976 127.67 437.585 124.782C439.424 124.702 439.437 121.828 437.585 121.906C371.4 124.861 305.596 134.473 241.328 150.6C240.841 150.717 240.552 151.02 240.408 151.361C232.188 151.059 223.809 155.984 226.737 165.557C226.751 165.582 226.764 165.596 226.764 165.623C227.157 168.104 228.839 170.271 230.48 172.189C234.617 176.956 238.044 181.302 236.823 188.052C236.823 188.078 236.823 188.092 236.823 188.105C236.797 188.209 236.784 188.314 236.771 188.446C236.652 191.873 236.535 195.826 236.771 199.857C236.823 200.948 236.901 202.037 237.02 203.128C236.928 207.461 236.535 212.544 233.317 215.642C231.755 217.153 229.456 218.15 227.355 219.004C221.419 217.822 215.601 216.824 210.139 215.865C167.696 208.38 124.348 202.248 81.1824 201.998C74.7481 201.958 66.3168 201.801 58.0569 202.733C59.9215 201.631 61.9705 200.869 63.9663 200.028C65.9757 199.201 67.9585 198.308 69.6788 196.942C73.9075 193.593 75.6539 188.328 76.6523 183.22C79.2653 169.904 78.8715 155.301 92.0429 147.526C102.154 141.565 113.619 138.072 124.952 135.234C145.727 130.008 167.092 126.936 188.327 124.217C224.413 119.608 260.697 116.377 296.955 113.423ZM350.52 88.4318C355.143 82.7332 358.872 76.5479 362.011 70.0612C360.053 80.5532 357.48 90.8879 353.607 100.895C353.436 101.341 353.265 101.788 353.081 102.234C346.896 102.432 340.724 102.746 334.577 103.193C340.605 99.1478 345.976 94.0532 350.52 88.4318ZM594.053 48.6158C592.176 45.6091 589.983 42.7985 587.553 40.1985C589.471 40.2638 591.401 40.3305 593.317 40.3958C593.541 43.1398 593.777 45.8718 594.053 48.6158ZM396.745 12.8318C405.531 10.6252 414.604 9.77181 423.639 9.35181C447.107 8.23581 470.612 7.69716 494.092 6.69849C538.728 4.83449 583.456 2.91719 628.144 4.16386C664.992 5.20119 702.747 7.98516 738.085 19.2012C745.649 21.6038 752.832 24.6771 760.133 27.7491C765.427 29.9825 771.191 31.1638 776.733 32.5425C783.141 34.1318 789.668 35.5105 795.919 37.6252C803.653 40.2639 809.668 48.8918 813.581 55.6812C817.652 62.7598 820.187 70.7038 825.465 77.0465C831.244 83.9678 838.047 91.3612 845.676 96.6012C845.939 101.761 848.316 108.445 852.452 112.425C837.219 112.937 821.985 113.449 806.765 114.013C806.069 114.04 805.373 114.053 804.677 114.067C802.34 108.171 799.924 102.181 797.232 96.3252C797.127 95.9305 796.956 95.5505 796.707 95.2211C791.06 83.1665 784.113 71.7545 774.041 63.0478C765.912 56.0358 756.392 51.2692 746.437 47.4478C725.768 39.4892 702.025 39.1879 680.239 38.0972C648.184 36.4959 616.011 35.9838 583.928 36.2718C583.797 36.2718 583.679 36.2852 583.561 36.2985C582.616 35.4585 581.657 34.6439 580.659 33.8692C570.1 25.4772 558.045 21.7345 545.032 19.4105C510.495 13.2385 474.552 11.6239 439.555 13.3305C419.056 14.3292 398.019 16.2718 378.124 21.7225C383.075 16.9292 390.179 14.4865 396.745 12.8318ZM849.051 98.7545C860.081 105.162 871.808 109.049 883.956 111.388C875.801 111.65 867.659 111.913 859.517 112.188C859.203 112.188 858.887 112.201 858.585 112.215C853.043 110.048 850.575 104.047 848.775 98.5838C848.867 98.6358 848.959 98.7011 849.051 98.7545ZM885.795 98.2678C894.764 100.252 901.763 104.821 908.421 110.546C891.349 109.47 874.776 106.698 859.372 99.5678C867.921 96.9812 877.023 96.3385 885.795 98.2678ZM913.28 114.513C913.489 114.538 913.713 114.539 913.923 114.5C914.12 114.487 914.331 114.486 914.54 114.473C931.376 113.974 948.211 113.449 965.047 112.91C973.24 112.648 981.421 112.385 989.603 112.096C994.041 111.952 998.493 111.689 1002.93 111.637C1003.44 111.637 1003.92 111.663 1004.36 111.703C940.003 116.68 875.669 122.102 811.361 127.829C803.193 128.55 792.951 128.328 787.147 135.077C782.721 140.212 781.841 146.778 774.592 149.221C770.613 150.546 766.673 150.075 763.339 148.328C762.668 147.973 762.012 147.566 761.395 147.106C760.647 144.098 759.74 141.144 758.48 138.426C755.669 132.358 750.456 125.95 744.323 121.709C746.017 122.34 747.948 122.628 749.839 122.812C754.264 124.033 758.519 125.807 762.393 128.367C766.307 130.955 770.404 133.344 774.356 129.431C776.3 127.5 777.232 124.808 779.201 122.89C781.985 120.185 785.899 119.174 789.641 118.649C794.592 117.953 799.675 117.809 804.731 117.731C807.632 117.677 810.535 117.65 813.411 117.56C846.7 116.456 879.989 115.497 913.28 114.513ZM580.699 279.122C581.644 271.729 582.353 264.322 582.904 256.904C584.047 241.67 584.296 226.372 583.928 211.098C583.784 204.796 583.535 198.44 583.167 192.07C642.747 187.776 702.484 184.612 762.221 183.876C762.301 184.808 762.393 185.755 762.472 186.7C764.652 214.749 761.723 242.813 757.048 270.469C705.597 277.928 654.145 285.439 602.695 292.885C594.473 294.08 586.253 295.274 578.032 296.47C579.411 290.797 579.963 284.861 580.699 279.122ZM761.105 173.384C761.237 174.381 761.368 175.393 761.487 176.404C748.525 176.536 735.577 176.81 722.629 177.178C675.932 178.544 629.287 181.145 582.695 184.572C582.563 182.852 582.432 181.132 582.287 179.398C620.304 177.232 658.361 175.602 696.431 174.552C717.98 173.948 739.543 173.555 761.105 173.384ZM747.291 141.026C743.864 141.249 740.409 141.512 737.061 141.026C734.96 140.724 734.54 140.764 736.457 140.474C738.375 140.198 740.58 140.488 742.511 140.593C743.101 140.632 745.216 140.802 747.291 141.026ZM747.028 138.177C743.535 137.704 739.989 137.428 736.457 137.546C734.828 137.585 732.688 137.454 731.729 139.096C729.116 143.494 736.969 144.125 743.903 143.941C741.013 144.336 738.059 144.401 735.223 144.27C732.832 144.165 730.14 144.046 727.856 143.245C725.084 142.261 722.564 139.713 726.056 138.097C729.773 136.391 734.408 136.377 738.413 136.377C739.924 136.377 748.276 136.758 751.44 138.846C749.891 138.426 748.079 138.334 747.028 138.177ZM596.824 46.5279C603.391 46.2132 609.956 47.4612 616.483 46.9612C616.719 49.1279 617.257 51.3611 617.547 53.4491C620.187 72.3451 622.787 91.2425 625.333 110.153C618.952 109.929 612.044 110.586 605.78 111.729C604.927 100.409 602.681 88.9452 601.197 77.8612C600.291 71.0719 599.477 64.2439 598.519 57.4279C598.007 53.7905 597.455 50.1532 596.824 46.5279ZM616.365 45.2025C609.839 44.7945 603.075 44.4665 596.575 45.1491C596.469 44.5985 596.377 44.0465 596.273 43.5078C602.511 43.6265 608.972 44.4531 615.183 43.9411C615.695 43.9025 616.023 43.9145 616.233 43.9279C616.299 44.2825 616.352 44.6505 616.352 44.9785C616.352 45.0438 616.365 45.1225 616.365 45.2025ZM625.149 79.6598C626.004 86.5278 626.779 93.4225 627.567 100.304C628.276 106.66 628.525 113.357 630.18 119.581C622.156 119.74 614.145 119.857 606.121 119.923C606.121 118.045 606.056 116.168 605.951 114.289C612.556 114.933 620.016 114.5 626.437 112.818C627.789 112.464 627.619 110.69 626.516 110.27C626.503 110.192 626.503 110.113 626.489 110.034C624.179 87.5652 620.961 65.1758 617.915 42.7985C617.861 42.3918 617.389 42.1158 617.008 42.1158C609.996 41.9718 602.983 41.9971 595.971 41.8798C595.879 41.4065 595.773 40.9345 595.668 40.4612C603.916 40.7239 612.149 40.9465 620.383 41.1705C620.396 41.2758 620.396 41.3678 620.409 41.4718C621.42 54.2238 623.587 66.9745 625.149 79.6598ZM710.613 108.945C711.06 108.065 711.611 107.224 712.399 106.462C712.977 105.898 713.595 105.439 714.264 105.045C715.932 105.111 717.6 105.189 719.267 105.241C734.908 105.832 750.573 106.896 766.227 107.684C766.319 109.733 766.424 111.781 766.608 113.817C747.973 111.821 729.3 110.284 710.613 108.945ZM684.572 111.57C684.599 111.558 684.625 111.532 684.651 111.505C691.033 111.992 697.416 112.477 703.797 112.976C703.247 113.409 702.8 114.001 702.419 114.749C702.129 115.326 701.855 115.997 701.684 116.68C701.631 116.902 701.592 117.138 701.565 117.362C694.841 117.638 688.105 117.953 681.395 118.177C680.645 118.189 679.884 118.216 679.136 118.242C679.845 115.3 681.815 113.041 684.572 111.57ZM684.113 103.968C683.719 104.965 683.496 106.042 683.377 107.106C673.896 106.516 664.388 106.016 654.895 105.674C664.507 104.282 674.303 103.889 684.113 103.968ZM709.549 104.834C708.591 105.977 707.843 107.304 707.423 108.721C706.621 108.656 705.82 108.604 705.032 108.551C698.519 108.091 692.005 107.645 685.492 107.224C685.676 106.081 686.043 104.94 686.687 103.995C694.329 104.112 701.985 104.48 709.549 104.834ZM757.533 119.359C755.867 119.385 753.779 119.529 751.637 119.569C749.432 118.939 747.185 118.452 744.927 118.072C740.463 117.322 735.932 117.008 731.428 116.889C722.497 116.667 713.528 116.902 704.559 117.244C704.691 116.968 704.821 116.693 705.019 116.442C705.609 115.642 706.332 115.13 706.779 114.21C706.923 113.921 706.949 113.555 706.871 113.225C726.884 114.815 746.884 116.509 766.884 118.268C763.797 118.99 760.829 119.293 757.533 119.359ZM770.153 90.5211C769.681 81.8798 769.103 73.2385 769.091 64.6238C778.716 72.3065 785.833 82.5105 791.795 93.4491C784.717 91.9131 777.455 91.0331 770.153 90.5211ZM770.705 107.895C780.029 108.328 789.34 108.643 798.663 108.656C798.887 108.656 799.097 108.616 799.28 108.551C800.003 110.1 800.712 111.662 801.421 113.213C793.187 112.228 785.807 113.265 778.296 115.117C775.721 114.815 773.148 114.526 770.561 114.237C770.653 112.122 770.692 110.008 770.705 107.895ZM765.991 86.0025C766.017 87.4212 766.031 88.8398 766.031 90.2585C757.704 89.8118 749.352 89.7332 741.184 89.6012C733.397 89.4705 725.609 89.4705 717.823 89.5225C727.12 82.2865 736.22 74.3545 743.601 65.4518C744.244 64.6771 743.391 63.2319 742.432 63.9279C731.637 71.7679 721.552 80.8678 711.361 89.5878C703.036 89.6798 694.711 89.8252 686.397 89.9425C680.593 90.0212 674.776 90.1398 668.972 89.9425C664.704 89.7985 664.415 89.9425 661.565 85.7932C657.232 79.5292 653.961 72.2145 651.768 64.9398C651.06 62.5892 649.707 59.0558 650.285 56.5745C651.269 52.2531 657.861 49.2732 661.631 48.1172C671.677 45.0052 682.747 44.6372 693.173 44.3225C695.236 44.2558 697.311 44.2038 699.385 44.1771C705.544 44.6238 711.716 45.1758 717.849 45.9238C732.688 47.7238 747.252 51.5452 760.409 58.8065C762.275 59.8305 764.06 60.9478 765.768 62.1292C765.531 70.0745 765.885 78.0719 765.991 86.0025ZM575.931 185.084C530.311 188.525 484.743 192.74 439.24 197.376C417.612 199.569 395.983 201.736 374.381 204.112C347.96 207.028 320.973 209.89 294.341 207.946C329.18 202.549 364.177 198.19 399.213 194.381C446.344 189.246 493.607 185.216 540.908 181.998C552.412 181.21 563.916 180.488 575.432 179.805C575.603 181.565 575.773 183.324 575.931 185.084ZM572.845 122.76C582.969 122.944 593.095 122.996 603.22 122.957C603.824 123.35 604.637 123.324 605.268 122.957C605.557 122.957 605.859 122.957 606.148 122.944C615.681 122.904 625.203 122.773 634.723 122.603C637.796 122.549 640.869 122.497 643.941 122.432C660.791 122.09 677.652 121.617 694.5 121.144C708.184 120.777 722.261 119.542 735.984 120.593C742.261 123.088 748.079 128.734 751.913 135.012C750.088 134.093 747.829 133.698 745.977 133.409C739.215 132.372 729.944 131.794 723.692 135.234C717.179 138.82 721.579 144.585 727.001 146.318C735.079 148.88 745.597 148.288 752.964 144.087C753.357 143.849 753.555 143.534 753.608 143.193C753.765 143.114 753.883 143.009 753.975 142.878C754.237 142.668 754.461 142.405 754.645 142.142C755.025 142.969 755.472 143.77 755.959 144.532C757.849 152.569 759.359 160.698 760.515 168.88C745.348 169.01 730.18 169.233 715.025 169.576C670.627 170.586 626.24 172.53 581.907 175.209C580.239 157.454 577.428 139.765 572.845 122.76ZM1009.3 114.487C1009.94 115.747 1010.18 117.428 1010.1 119.595C1009.87 126.345 1008.58 133.2 1007.32 139.897C968.709 140.973 930.141 143.561 891.599 146.2C872.4 147.513 853.188 148.669 834.001 150.27C820.777 151.361 804.861 154.88 800.055 168.826C788.591 168.761 777.127 168.761 765.663 168.84C765.099 165.412 764.481 161.985 763.785 158.584C763.247 155.971 762.76 153.252 762.183 150.546C765.663 152.569 769.799 153.384 774.08 152.49C778.047 151.65 781.671 149.444 784.231 146.318C785.873 144.322 786.832 141.972 788.184 139.805C790.613 135.892 794.093 134.118 798.532 133.213C805.557 131.781 813.108 131.729 820.265 131.138C828.303 130.468 836.352 129.812 844.389 129.141C882.905 125.95 921.408 122.589 959.899 119.148C974.843 117.809 989.748 116.364 1004.68 114.933C1006.21 114.776 1007.76 114.631 1009.3 114.487ZM997.64 184.453C996.825 187.855 995.972 191.256 995.092 194.657C953.424 185.36 910.521 181.026 867.948 178.61C834.251 176.706 800.515 176.076 766.779 176.352C766.635 175.353 766.503 174.342 766.359 173.344C793.765 173.173 821.185 173.384 848.579 174.105C893.424 175.274 938.309 177.494 982.892 182.654C987.725 183.22 992.557 183.811 997.377 184.453C997.469 184.467 997.561 184.453 997.64 184.453ZM1001.46 168.341C1000.49 172.477 999.517 176.64 998.532 180.79C998.349 180.685 998.152 180.607 997.903 180.567C954.567 174.644 910.811 171.664 867.12 170.14C845.479 169.392 823.824 168.984 802.156 168.84C810.312 154.276 830.285 155.012 844.94 154.356C863.273 153.541 881.619 152.674 899.937 151.637C935.46 149.614 970.981 147.789 1006.43 144.664C1004.97 152.596 1003.29 160.488 1001.46 168.341ZM1023.97 198.978C1021.92 196.022 1018.43 194.316 1014.88 193.568C1014.91 186.029 1013.7 171.532 1005.44 170.27C1007.17 162.798 1008.8 155.301 1010.21 147.762C1011.72 139.7 1013 131.584 1013.96 123.442C1014.54 118.57 1014.99 112.266 1010.51 108.97C1008.83 107.724 1006.87 107.421 1004.84 107.356C1000.12 107.185 995.276 107.697 990.561 107.868C981.737 108.182 972.925 108.485 964.1 108.787C956.471 109.037 948.828 109.287 941.199 109.523C945.912 97.1132 948.001 83.5731 952.189 70.9798C952.452 70.1665 951.231 69.8638 950.929 70.6252C945.939 83.1665 942.104 96.5345 938.651 109.615C930.509 109.877 922.367 110.153 914.212 110.416C901.473 92.9105 874.789 89.6011 855.919 97.8878C854.304 97.0465 852.688 96.1798 851.1 95.2478C842.511 90.1918 834.671 81.7612 828.447 74.0532C823.523 67.9598 821.172 60.2385 817.324 53.4878C813.437 46.6465 807.528 38.5838 800.476 34.7878C795.537 32.1358 789.287 31.2038 783.916 29.8771C777.337 28.2478 770.627 26.8558 764.192 24.7158C757.679 22.5491 751.507 19.2798 744.993 17.0211C710.259 4.92648 672.583 1.80118 636.049 0.553182C590.547 -1.00949 544.979 1.02515 499.529 3.08782C473.173 4.26915 446.699 4.92653 420.396 6.83052C406.265 7.85452 385.767 9.40386 375.917 21.4332C375.603 21.8132 375.287 22.2212 374.999 22.6279C374.723 22.7065 374.433 22.7852 374.157 22.8639C373.423 22.9425 372.752 23.3892 372.489 24.3225C366.791 44.8598 361 66.4105 347.579 83.4558C341.813 90.7825 334.723 97.1652 326.449 101.525C316.535 106.739 306.081 107.041 295.143 107.946C279.975 109.194 264.795 110.521 249.64 111.992C189.128 115.235 128.208 115.93 68.1949 124.309C67.0657 124.453 65.9361 124.624 64.8069 124.782C49.2059 127.041 33.658 129.969 18.5559 134.552C18.1096 134.696 17.8335 134.96 17.6763 135.288C15.7981 136.272 14.1829 137.73 13.1585 139.621C11.4252 142.852 12.0033 146.069 13.5788 148.97C14.3668 151.413 16.3892 153.725 17.6236 155.708C19.9872 159.529 22.2591 163.404 24.3996 167.356C25.7523 171.716 27.3673 175.314 27.7616 180.016C27.9981 183.062 28.0897 185.99 29.3897 188.826C31.0184 192.412 33.9861 194.854 37.5449 196.076C37.558 196.588 37.6367 197.126 37.6763 197.573C37.7944 199.28 37.9387 200.987 38.0829 202.695C38.2148 204.139 38.0309 206.608 38.5163 208.38C33.3689 211.414 29.5867 215.865 28.2867 222.392C28.208 222.695 28.1553 222.996 28.1028 223.312C24.9643 223.929 21.8523 224.717 18.8184 225.714C17.0064 226.305 15.2205 226.962 13.4605 227.71C13.408 227.71 13.3553 227.697 13.3033 227.684C12.4231 227.58 11.8715 227.986 11.6356 228.577C11.3465 228.826 11.3335 229.195 11.4908 229.523C11.5173 229.996 11.7012 230.481 12.0033 230.876C10.4929 232.254 8.96946 233.62 7.45959 235.012C5.54239 236.772 2.23292 238.545 0.73559 240.62C-3.19041 246.069 9.59959 253.424 15.47 255.892C14.8397 256.457 14.6689 257.546 15.6143 257.993C17.9648 259.096 20.4731 259.845 22.8501 260.934C22.8763 260.934 22.9028 260.948 22.9288 260.961C22.7053 261.21 22.5877 261.552 22.6267 262.012C22.6397 262.169 22.6663 262.34 22.6793 262.497C24.36 276.233 30.1252 289.037 40.946 297.98C49.2585 304.848 58.9236 307.658 69.1143 310.824C112.016 324.138 156.717 332.136 200.96 339.648C239.712 346.226 280.605 350.31 318.977 339.176C324.979 337.441 330.428 334.461 335.273 330.653C335.405 350.009 339.608 369.957 353.921 383.956C365.727 395.498 381.669 400.449 397.729 402.209C402.168 402.694 406.593 402.852 411.019 402.84C411.952 402.997 412.897 403.128 413.856 403.246C432.635 405.413 450.547 396.772 463.705 383.81C478.492 369.248 486.739 349.392 489.575 329.064C489.707 328.105 489.352 327.304 488.773 326.752C488.957 325.335 489.128 323.902 489.26 322.472C507.657 322.248 526.712 321.92 544.611 318.177C544.873 318.125 545.111 318.033 545.32 317.914C545.32 317.928 545.333 317.928 545.347 317.941C547.908 320.476 551.979 321.446 555.432 321.828C562.195 322.564 569.116 321.25 575.852 320.712C581.157 320.278 586.449 319.437 591.716 318.689C613.777 315.524 635.773 311.953 657.757 308.406C709.327 300.068 760.829 291.322 812.268 282.196C812.636 292.924 818.191 304.165 827.277 310.166C836.839 316.482 850.561 319.333 861.855 317.297C875.276 314.881 887.791 306.581 895.407 295.328C902.919 284.217 905.348 270.876 905.243 257.665C926.635 254.644 948.013 251.572 969.327 248.078C975.223 253.265 981.881 258.308 988.801 261.933C989.643 262.38 990.535 262.221 991.244 261.617C994.095 259.162 998.94 253.332 994.619 250.626C990.233 247.894 985.663 245.373 981.107 242.878C983.983 242.47 986.859 242.05 989.748 241.644C994.12 241.026 998.729 240.409 1002.55 237.993C1005.99 235.826 1007.17 232.582 1009.01 229.181C1011.26 225.032 1013.9 220.212 1017.55 217.165C1020.59 214.605 1024.36 212.753 1025.52 208.617C1026.43 205.387 1025.9 201.749 1023.97 198.978Z" fill="#100F0D"/>
<path d="M437.9 342.76C431.045 349.444 421.144 351.559 413.921 344.507C401.078 331.965 401.617 301.736 416.377 290.508C423.757 284.888 432.621 285.268 439.581 291.493C445.648 296.929 448.418 304.953 449.72 312.832C449.325 313.2 449.089 313.712 449.114 314.329C449.628 324.585 445.254 335.604 437.9 342.76ZM452.608 312.399C451.112 297.863 441.826 279.608 424.585 281.959C411.19 283.797 403.31 296.812 401.117 309.037C398.937 321.237 399.936 335.039 407.578 345.229C414.59 354.567 425.346 357.403 435.917 351.783C448.984 344.835 455.445 327.895 453.528 313.739C453.436 313.083 453.081 312.649 452.608 312.399Z" fill="#100F0D"/>
<path d="M434.762 325.807C433.974 326.543 432.28 327.475 430.744 327.803C430.677 327.291 430.362 326.819 429.732 326.503C425.189 324.219 425.964 309.511 432.096 310.088C435.996 310.456 437.545 314.645 437.545 318.02C437.558 320.725 436.837 323.876 434.762 325.807ZM433.278 305.689C427.185 304.217 423.205 310.036 422.26 315.38C421.446 320.003 422.208 329.129 428.169 330.193C429.26 330.377 430.205 329.695 430.586 328.828C432.385 328.972 433.882 329.103 435.892 327.908C439.042 326.017 440.409 322.484 440.881 318.992C441.63 313.411 439.253 307.133 433.278 305.689Z" fill="#100F0D"/>
<path d="M333.632 187.396C333.252 189.051 332.411 191.047 330.875 191.979C331.005 189.392 331.531 186.056 331.584 183.391C331.623 181.197 331.597 178.991 331.557 176.799C334.289 179.24 334.46 183.811 333.632 187.396ZM330.073 171.624C328.852 171.269 327.579 172.255 327.592 173.515C327.631 176.811 327.644 180.107 327.788 183.391C327.933 186.529 328.773 190.587 328.813 193.279C328.827 194.145 329.745 194.421 330.336 194.119C333.843 194.067 335.825 189.563 336.443 186.739C337.756 180.803 336.744 173.593 330.073 171.624Z" fill="#100F0D"/>
<path d="M321.578 190.364C321.118 192.334 320.08 194.776 318.15 195.76C318.255 192.715 318.82 188.959 318.859 185.807C318.899 183.142 318.859 180.488 318.82 177.823C322.339 180.554 322.588 186.083 321.578 190.364ZM317.336 172.767C316.115 172.399 314.84 173.397 314.854 174.644C314.894 178.373 314.919 182.091 315.078 185.807C315.222 189.392 316.075 193.752 316.115 196.956C316.128 197.836 317.06 198.111 317.651 197.796C321.578 197.731 323.744 192.702 324.427 189.536C325.846 182.944 324.742 174.947 317.336 172.767Z" fill="#100F0D"/>
<path d="M309.772 192.176C309.339 194.999 307.855 199.004 305.163 200.133C305.228 196.496 305.819 192.057 305.859 188.276C305.884 184.979 305.832 181.671 305.78 178.373C310.035 181.197 310.507 187.172 309.772 192.176ZM304.296 173.423C303.087 173.068 301.8 174.053 301.814 175.315C301.866 179.635 301.906 183.968 302.063 188.276C302.22 192.464 303.075 197.428 303.127 201.249C303.14 202.129 304.086 202.405 304.676 202.077C309.351 201.985 311.794 195.892 312.503 192.163C313.908 184.716 312.622 175.865 304.296 173.423Z" fill="#100F0D"/>
<path d="M188.745 179.42C187.778 179.733 186.884 179.999 186.293 180.172C185.282 180.472 184.409 180.729 183.813 180.955C180.721 182.123 177.637 183.32 174.553 184.517C170.389 186.133 166.084 187.805 161.836 189.372C156.828 191.221 147.009 194.607 144.438 195.491C142.344 194.076 134.796 188.945 131.337 186.163C126.09 181.944 120.985 177.225 116.048 172.663L115.064 171.752C114.79 171.5 114.466 171.224 114.124 170.939C117.62 172.149 121.204 174.329 124.689 176.449C126.838 177.757 128.869 178.993 130.87 180.005C136.093 182.649 143.692 188.335 143.768 188.392L144.272 188.769L144.884 188.621C145.185 188.548 171.57 182.149 188.745 179.42ZM132.074 177.627C130.166 176.661 128.18 175.452 126.074 174.172C121.688 171.503 117.153 168.744 112.562 167.721C111.848 167.561 111.316 167.488 110.891 167.488C109.621 167.488 109.214 168.241 109.098 168.565C108.63 169.871 109.849 170.873 111.87 172.535C112.372 172.947 112.868 173.355 113.253 173.711L114.238 174.621C119.209 179.215 124.348 183.964 129.665 188.241C133.773 191.545 143.105 197.809 143.501 198.075L144.05 198.444L144.676 198.228C144.798 198.187 156.965 194.012 162.76 191.873C167.028 190.299 171.344 188.624 175.517 187.004C178.594 185.809 181.672 184.615 184.756 183.449C185.26 183.259 186.089 183.013 187.049 182.729C192.232 181.197 196.21 179.827 196.405 177.307L196.529 175.703L194.932 175.877C180.052 177.505 149.552 184.756 144.862 185.883C143.04 184.54 136.769 180.003 132.074 177.627Z" fill="#100F0D"/>
</svg>
