<svg width="856" height="470" viewBox="0 0 856 470" fill="none" xmlns="http://www.w3.org/2000/svg">
<path d="M835.201 464.126H18.9312V302.52C18.9312 137.844 191.559 4.34719 404.506 4.34719H449.626C662.573 4.34719 835.201 137.844 835.201 302.52V464.126Z" fill="#B5302B"/>
<path d="M828.945 394.623C828.678 409.708 828.66 432.551 829.054 465.525H841.343C841.58 446.04 841.584 430.07 841.415 417.134L841.491 375.736L841.549 335.647L841.575 315.604C841.567 308.918 841.683 302.271 841.375 295.481C840.211 241.375 819.246 187.675 782.147 141.808C745.048 95.888 691.521 58.1567 629.373 33.4509C613.922 27.1283 597.714 21.9863 581.319 17.3506C573.042 15.188 564.786 12.9697 556.332 11.2714C547.968 9.30188 539.408 7.93954 530.9 6.41751C513.781 3.81018 496.496 1.68683 479.062 0.878296C470.369 0.23761 461.636 0.220825 452.913 0.0502319C447.216 -0.0205383 441.587 -0.00128174 435.957 0.0179443L435.494 0.0195007C432.687 0.0307007 429.88 0.0418396 427.065 0.0418396C418.444 0.0977173 409.907 0.0362549 401.217 0.190063C392.502 0.402618 383.776 0.467102 375.094 1.14969C357.685 2.04773 340.44 4.25781 323.372 6.94916C314.892 8.51025 306.361 9.91452 298.037 11.9205C289.612 13.6606 281.4 15.9154 273.162 18.1143C256.85 22.82 240.741 28.0291 225.398 34.4105C163.727 59.4184 110.993 97.3429 74.7074 143.129C38.1689 188.763 17.8448 242.016 16.8753 295.554C16.5533 348.84 17.0634 401.998 17.0526 455.228C17.0549 459.005 17.0558 462.782 17.0554 466.559L20.8013 466.625C20.8009 462.826 20.8018 459.027 20.8041 455.228L20.9922 375.409L21.1007 335.501L21.155 315.546C21.1876 308.896 21.1044 302.226 21.4336 295.635C22.8698 242.699 43.9319 190.422 80.4197 145.896C116.806 101.24 169.172 64.7058 229.703 40.845C244.742 34.7155 260.518 29.7469 276.461 25.2595C284.514 23.1754 292.538 21.0239 300.765 19.3873C308.897 17.4821 317.222 16.1757 325.492 14.707C342.14 12.2003 358.941 10.1552 375.886 9.39978C392.766 8.35916 409.78 8.63043 427.065 8.65283C444.35 8.73111 461.364 8.5437 478.215 9.6712C495.139 10.5161 511.896 12.6506 528.494 15.2384C536.735 16.7491 545.03 18.0948 553.123 20.0392C561.317 21.7122 569.305 23.9026 577.311 26.0232C593.174 30.5805 608.853 35.6162 623.78 41.8046C683.84 65.9676 735.418 102.698 770.983 147.216C806.906 191.508 827.332 243.339 828.576 295.705C828.887 302.212 828.797 308.873 828.822 315.487L828.851 335.353L828.909 375.085L828.945 394.623Z" fill="black"/>
<path d="M108.53 470V279.363C108.53 157.52 243.947 58.7506 410.997 58.7506H446.391C613.434 58.7506 748.858 157.52 748.858 279.363V470H108.53Z" fill="#F6A393"/>
<path d="M110.434 381.058L111.583 470L101.295 466.264L102.398 381.058L103.45 304.237C103.715 291.43 103.29 278.662 104.342 265.717C105.385 252.821 108.191 240.01 112.403 227.475C129.129 177.254 170.601 131.781 227.513 100.841C241.711 93.0863 256.919 86.317 272.771 80.4929C288.601 74.6382 305.131 69.7533 322.131 65.9481C339.118 62.1091 356.607 59.402 374.297 57.8818C391.957 56.2576 409.938 56.0832 427.447 56.0465C444.944 55.8629 462.945 55.8139 480.698 57.2242C498.473 58.5303 516.104 61.0324 533.281 64.6817C567.664 71.8945 600.364 83.5212 629.279 98.9839C658.172 114.456 683.384 133.571 703.46 155.261C723.661 176.912 738.07 201.346 746.66 226.75C750.922 239.463 753.758 252.454 754.805 265.527C755.84 278.726 755.47 291.421 755.63 304.237L755.996 381.058L756.094 466.244L740.854 470L740.956 381.058L741.322 304.237C741.293 291.451 741.755 278.518 740.889 266.145C740.009 253.647 737.418 241.222 733.463 229.047C725.517 204.708 711.836 181.31 692.845 160.376C673.944 139.407 650.027 120.815 622.451 105.668C594.82 90.5689 563.537 79.0248 530.471 71.5428C513.937 67.7895 496.912 65.1344 479.68 63.6324C462.44 62.0358 445.15 61.8461 427.447 61.7941C409.749 61.6258 392.441 61.5954 375.104 62.978C357.789 64.2626 340.624 66.7097 323.906 70.2764C290.423 77.3087 258.61 88.6816 230.542 103.805C202.481 118.928 178.026 137.581 158.595 158.711C139.007 179.799 125.381 203.659 117.257 228.322C113.252 240.674 110.631 253.28 109.748 265.956C108.898 278.583 109.302 291.442 109.382 304.237L110.434 381.058Z" fill="black"/>
<path d="M130.236 327.321C130.236 192.901 253.412 83.9288 405.36 83.9288H437.557C589.505 83.9288 712.681 192.901 712.681 327.321H130.236Z" fill="#93B7C1"/>
<path d="M131.99 327.695L206.324 325.789L279.746 324.202C328.573 323.076 376.829 322.343 424.971 321.639C473.045 321.07 520.928 320.622 568.719 320.693L712.304 321.635L704.788 328.201C705.939 264.145 677.753 199.219 625.115 152.842C598.885 129.773 566.931 111.407 531.881 100.185C514.413 94.4436 496.136 90.7041 477.709 88.5895C473.074 88.2042 468.467 87.6724 463.832 87.4128C459.187 87.2411 454.561 86.9104 449.921 86.8726C440.698 86.7973 431.303 86.9899 421.86 87.2411C412.416 87.417 402.997 87.6348 393.856 88.1289C389.254 88.376 384.676 88.9119 380.094 89.2888C375.521 89.7536 370.986 90.4864 366.437 91.0685C348.341 93.9494 330.529 98.0825 313.483 103.991C279.291 115.502 247.701 132.931 221.231 155.196C207.91 166.242 195.854 178.486 185.294 191.677C174.614 204.796 165.473 218.904 157.909 233.661C150.263 248.4 144.41 263.861 140.024 279.685L137.124 291.645L134.895 303.738L133.28 315.907L131.99 327.695ZM130.825 328.708C130.638 324.638 130.332 320.278 130.236 315.819C130.303 311.644 130.519 307.532 130.686 303.378L131.894 290.97L133.797 278.609C136.721 262.144 141.889 245.959 148.792 230.34C155.757 214.733 164.639 199.755 175.113 185.647C185.702 171.606 197.925 158.479 211.553 146.536C238.934 122.793 272.024 103.84 308.344 92.0902C326.526 86.3241 345.408 82.2036 364.558 80.1811C369.361 79.7749 374.14 79.2179 378.943 78.9416C383.751 78.7532 388.55 78.4056 393.357 78.3595C403.045 78.2632 412.464 78.4516 421.86 78.6987C431.25 78.8787 440.689 79.1048 450.295 79.6157C455.065 79.8712 459.815 80.424 464.57 80.8176C469.311 81.2991 474.013 82.057 478.73 82.6642C497.545 85.4489 515.961 89.963 533.726 95.8967C569.189 107.936 601.909 125.95 629.539 148.889C657.332 171.657 679.91 199.436 695.594 230.093C711.288 260.766 719.337 294.463 719.821 328.201L719.917 334.721L712.304 334.771L565.44 335.705C516.422 335.785 467.489 335.337 418.744 334.767C370.071 334.064 321.507 333.327 273.524 332.2L201.722 330.617L130.825 328.708Z" fill="black"/>
<path d="M159.178 302.144C159.178 195.532 270.877 109.108 408.669 109.108H437.867C575.659 109.108 687.358 195.532 687.358 302.144H159.178Z" fill="#AAC8CE"/>
<path d="M159.599 302.836L292.236 301.66L423.889 301.062L489.479 301.152L555.036 301.623C598.76 302.037 642.627 302.25 686.503 302.27L685.656 302.999C685.513 275.3 677.561 247.76 662.97 223.165C648.442 198.521 627.399 176.862 602.343 159.703C577.303 142.492 548.374 129.653 517.837 121.517C502.561 117.462 486.852 114.612 470.982 112.978C455.073 111.25 439.169 111.172 422.951 111.299C406.733 111.176 390.834 111.299 374.94 113.056C359.078 114.719 343.384 117.589 328.122 121.672C297.652 129.891 268.709 142.619 243.692 159.843C218.637 176.968 197.66 198.632 183.041 223.21C175.736 235.496 170.064 248.498 166.047 261.889C162.031 275.218 159.999 289.285 159.599 302.836ZM159.214 303.167C158.595 275.009 165.952 247.212 180.428 222.08C194.8 196.969 215.71 174.667 240.908 156.89C266.077 139.08 295.301 125.448 326.481 117.135C342.047 112.937 358.06 109.964 374.249 108.232C390.41 106.401 406.89 106.242 422.951 106.328C439.021 106.246 455.501 106.455 471.648 108.306C487.828 110.067 503.827 113.064 519.374 117.29C550.492 125.685 579.73 139.211 604.875 157.025C630.068 174.778 650.912 197.075 665.378 222.121C679.855 247.159 687.545 275.075 687.355 302.999L687.35 303.732H686.503C642.531 303.753 598.546 303.97 554.422 304.379L488.199 304.85L422.018 304.94L290.119 304.343L159.214 303.167Z" fill="black"/>
<path d="M172.827 154.509L97.9562 96.6093C94.7854 94.1593 94.7854 90.184 97.9562 87.7319C101.127 85.2799 106.268 85.2799 109.436 87.7319L184.307 145.631C187.478 148.081 187.478 152.059 184.307 154.509C181.136 156.961 175.998 156.961 172.827 154.509Z" fill="#E0C244"/>
<path d="M173.05 154.338C174.941 155.759 177.778 156.37 180.285 155.835C182.774 155.32 184.847 153.763 185.431 151.905C186.119 150.063 185.377 148.064 183.782 146.818C181.967 145.558 179.69 144.087 177.669 142.732C169.254 137.262 161.383 131.377 153.547 125.464C145.743 119.525 138.187 113.395 130.596 107.29C122.955 101.228 115.551 94.9789 108.237 88.6628C106.794 87.4063 104.447 86.7424 102.178 87.068C99.9094 87.3348 97.8335 88.6502 97.032 90.3879C96.1327 92.115 96.619 94.193 98.1188 95.6534C99.8306 97.1052 101.966 98.6054 103.868 100.078C107.811 103.016 111.894 105.844 115.992 108.664L128.208 117.173C136.217 122.956 143.852 129.024 150.985 135.483C158.177 141.893 165.241 148.403 173.05 154.338ZM172.61 154.679C164.934 148.642 156.514 143.177 148.227 137.615C139.875 132.1 132.028 126.196 124.55 120.004L113.544 110.555C109.9 107.386 106.24 104.23 102.444 101.179L96.6489 96.5736C94.6845 94.7414 94.0786 92.1339 95.035 89.8562C95.9669 87.5744 98.4911 85.6896 101.58 85.051C104.656 84.3786 108.215 85.0426 110.642 86.8011C118.809 92.4596 126.89 98.1832 134.731 104.094C142.624 109.964 150.55 115.808 158.231 121.84C165.877 127.902 173.487 133.989 180.56 140.494C182.377 142.154 184.07 143.606 185.991 145.436C187.855 147.485 188.206 150.17 187.037 152.332C185.891 154.498 183.364 156.139 180.492 156.528C177.655 156.992 174.588 156.274 172.61 154.679Z" fill="black"/>
<path d="M193.076 138.851L118.205 80.9521C115.034 78.5021 115.034 74.5267 118.205 72.0747C121.376 69.6227 126.517 69.6227 129.685 72.0747L204.556 129.974C207.727 132.426 207.727 136.399 204.556 138.851C201.388 141.303 196.245 141.303 193.076 138.851Z" fill="#E0C244"/>
<path d="M193.297 138.68C195.188 140.1 198.025 140.712 200.535 140.176C203.021 139.661 205.095 138.102 205.681 136.247C206.366 134.404 205.624 132.406 204.029 131.16C202.212 129.899 199.938 128.428 197.916 127.071C189.504 121.604 181.633 115.718 173.791 109.806C165.991 103.866 158.435 97.7346 150.843 91.6329C143.203 85.569 135.799 79.3202 128.484 73.0041C127.042 71.7476 124.694 71.0836 122.425 71.4093C120.157 71.6741 118.081 72.9915 117.279 74.7312C116.38 76.4562 116.866 78.5343 118.366 79.9947C120.075 81.4465 122.213 82.9467 124.115 84.4175C128.058 87.3549 132.142 90.1852 136.239 93.005L148.457 101.517C156.462 107.297 164.1 113.365 171.232 119.824C178.424 126.235 185.488 132.744 193.297 138.68ZM192.857 139.02C185.181 132.981 176.764 127.518 168.474 121.957C160.122 116.441 152.275 110.537 144.798 104.345L133.791 94.896C130.147 91.7275 126.49 88.5695 122.692 85.5206L116.893 80.9149C114.932 79.0827 114.326 76.4773 115.285 74.1975C116.214 71.9157 118.738 70.0309 121.828 69.3923C124.906 68.7198 128.463 69.3838 130.889 71.1424C139.059 76.8009 147.137 82.5244 154.978 88.435C162.871 94.3056 170.797 100.149 178.478 106.181C186.124 112.243 193.737 118.33 200.807 124.835C202.625 126.495 204.317 127.945 206.238 129.777C208.102 131.826 208.456 134.509 207.285 136.673C206.138 138.839 203.608 140.48 200.739 140.869C197.903 141.334 194.835 140.615 192.857 139.02Z" fill="black"/>
<path d="M213.324 123.192L138.453 65.2929C135.282 62.8429 135.282 58.8675 138.453 56.4155C141.624 53.9635 146.764 53.9635 149.935 56.4155L224.804 114.315C227.974 116.767 227.974 120.74 224.804 123.192C221.636 125.644 216.495 125.644 213.324 123.192Z" fill="#E0C244"/>
<path d="M213.544 123.024C215.435 124.444 218.272 125.056 220.782 124.52C223.268 124.005 225.342 122.446 225.928 120.589C226.613 118.748 225.871 116.748 224.276 115.504C222.459 114.243 220.185 112.772 218.163 111.415C209.751 105.948 201.88 100.062 194.038 94.1498C186.238 88.2098 178.682 82.0786 171.093 75.9769C163.45 69.913 156.046 63.6642 148.731 57.3482C147.289 56.0917 144.944 55.4277 142.672 55.7533C140.404 56.0202 138.328 57.3355 137.526 59.0752C136.627 60.8003 137.113 62.8784 138.613 64.3387C140.322 65.7885 142.46 67.2887 144.362 68.7616C148.305 71.7011 152.389 74.5293 156.486 77.3469L168.704 85.8607C176.712 91.641 184.347 97.7091 191.479 104.166C198.674 110.577 205.735 117.088 213.544 123.024ZM213.104 123.364C205.428 117.326 197.011 111.865 188.721 106.301C180.369 100.785 172.522 94.881 165.047 88.6868L154.038 79.24C150.394 76.0715 146.737 72.9135 142.936 69.8647L137.143 65.259C135.179 63.4267 134.573 60.8213 135.532 58.5415C136.461 56.2577 138.985 54.375 142.075 53.7363C145.153 53.0639 148.71 53.7279 151.136 55.4865C159.306 61.1428 167.384 66.8705 175.225 72.779C183.118 78.6496 191.044 84.4929 198.728 90.5253C206.371 96.5872 213.982 102.674 221.054 109.179C222.872 110.839 224.564 112.289 226.485 114.121C228.349 116.17 228.703 118.853 227.531 121.017C226.385 123.181 223.858 124.825 220.986 125.213C218.149 125.678 215.082 124.961 213.104 123.364Z" fill="black"/>
<path d="M679.438 154.509L754.309 96.6093C757.48 94.1593 757.48 90.184 754.309 87.7319C751.141 85.2799 745.998 85.2799 742.83 87.7319L667.959 145.631C664.788 148.081 664.788 152.059 667.959 154.509C671.127 156.961 676.27 156.961 679.438 154.509Z" fill="#E0C244"/>
<path d="M679.659 154.679C677.683 156.274 674.616 156.992 671.776 156.528C668.907 156.139 666.378 154.498 665.231 152.332C664.063 150.17 664.413 147.485 666.277 145.436C668.198 143.606 669.891 142.154 671.708 140.494C678.781 133.989 686.394 127.902 694.037 121.84C701.718 115.808 709.644 109.964 717.537 104.094C725.378 98.1832 733.459 92.4596 741.626 86.8011C744.053 85.0426 747.612 84.3786 750.691 85.051C753.777 85.6896 756.301 87.5744 757.233 89.8562C758.19 92.1339 757.584 94.7414 755.622 96.5736L749.827 101.179C746.028 104.23 742.368 107.386 738.725 110.555L727.718 120.004C720.243 126.196 712.394 132.1 704.044 137.615C695.754 143.177 687.334 148.642 679.659 154.679ZM679.221 154.338C687.027 148.403 694.092 141.893 701.286 135.483C708.416 129.024 716.054 122.956 724.061 117.173L736.279 108.664C740.377 105.844 744.46 103.016 748.403 100.078C750.305 98.6054 752.44 97.1052 754.149 95.6534C755.649 94.193 756.138 92.115 755.236 90.3879C754.437 88.6502 752.359 87.3348 750.09 87.068C747.821 86.7424 745.477 87.4063 744.031 88.6628C736.717 94.9789 729.313 101.228 721.672 107.29C714.081 113.395 706.525 119.525 698.724 125.464C690.885 131.377 683.011 137.262 674.602 142.732C672.581 144.087 670.304 145.558 668.489 146.818C666.891 148.064 666.149 150.063 666.834 151.905C667.421 153.763 669.494 155.32 671.983 155.835C674.493 156.37 677.327 155.759 679.221 154.338Z" fill="black"/>
<path d="M659.191 138.851L734.062 80.9521C737.23 78.5021 737.23 74.5267 734.062 72.0747C730.891 69.6227 725.753 69.6227 722.582 72.0747L647.711 129.974C644.54 132.426 644.54 136.399 647.711 138.851C650.882 141.303 656.023 141.303 659.191 138.851Z" fill="#E0C244"/>
<path d="M659.411 139.02C657.433 140.615 654.365 141.334 651.529 140.869C648.66 140.48 646.13 138.839 644.983 136.673C643.815 134.509 644.166 131.826 646.029 129.777C647.95 127.945 649.643 126.495 651.461 124.835C658.533 118.33 666.144 112.243 673.79 106.181C681.471 100.149 689.396 94.3056 697.29 88.435C705.131 82.5244 713.211 76.8009 721.379 71.1424C723.805 69.3838 727.365 68.7198 730.44 69.3923C733.53 70.0309 736.054 71.9157 736.986 74.1975C737.942 76.4773 737.336 79.0827 735.374 80.9149L729.579 85.5206C725.781 88.5695 722.121 91.7275 718.477 94.896L707.468 104.345C699.993 110.537 692.146 116.441 683.797 121.957C675.507 127.518 667.087 132.981 659.411 139.02ZM658.974 138.68C666.78 132.744 673.841 126.235 681.039 119.824C688.168 113.365 695.803 107.297 703.813 101.517L716.032 93.005C720.129 90.1852 724.213 87.3549 728.155 84.4175C730.057 82.9467 732.193 81.4465 733.902 79.9947C735.402 78.5343 735.888 76.4562 734.989 74.7312C734.187 72.9915 732.111 71.6741 729.843 71.4093C727.574 71.0836 725.229 71.7476 723.784 73.0041C716.469 79.3202 709.065 85.569 701.425 91.6329C693.833 97.7346 686.277 103.866 678.474 109.806C670.638 115.718 662.764 121.604 654.355 127.071C652.33 128.428 650.056 129.899 648.241 131.16C646.644 132.406 645.902 134.404 646.586 136.247C647.173 138.102 649.246 139.661 651.735 140.176C654.246 140.712 657.08 140.1 658.974 138.68Z" fill="black"/>
<path d="M638.943 123.192L713.812 65.2929C716.982 62.8429 716.982 58.8675 713.812 56.4155C710.644 53.9635 705.506 53.9635 702.335 56.4155L627.464 114.315C624.293 116.767 624.293 120.74 627.464 123.192C630.634 125.644 635.775 125.644 638.943 123.192Z" fill="#E0C244"/>
<path d="M639.164 123.364C637.186 124.961 634.118 125.678 631.279 125.213C628.413 124.825 625.883 123.181 624.736 121.017C623.568 118.853 623.916 116.17 625.785 114.121C627.703 112.289 629.396 110.839 631.214 109.179C638.286 102.674 645.897 96.5872 653.543 90.5253C661.224 84.4929 669.149 78.6496 677.043 72.779C684.884 66.8705 692.965 61.1428 701.129 55.4865C703.558 53.7279 707.118 53.0639 710.193 53.7363C713.283 54.375 715.809 56.2577 716.739 58.5415C717.695 60.8213 717.086 63.4267 715.127 65.259L709.332 69.8647C705.534 72.9135 701.874 76.0715 698.23 79.24L687.221 88.6868C679.746 94.881 671.899 100.785 663.547 106.301C655.26 111.865 646.84 117.326 639.164 123.364ZM638.727 123.024C646.533 117.088 653.594 110.577 660.792 104.166C667.924 97.7091 675.556 91.641 683.566 85.8607L695.785 77.3469C699.879 74.5293 703.963 71.7011 707.908 68.7616C709.81 67.2887 711.946 65.7885 713.655 64.3387C715.155 62.8784 715.641 60.8003 714.742 59.0752C713.94 57.3355 711.864 56.0202 709.598 55.7533C707.327 55.4277 704.979 56.0917 703.537 57.3482C696.222 63.6642 688.818 69.913 681.178 75.9769C673.586 82.0786 666.028 88.2098 658.227 94.1498C650.391 100.062 642.517 105.948 634.105 111.415C632.083 112.772 629.806 114.243 627.991 115.504C626.399 116.748 625.655 118.748 626.34 120.589C626.926 122.446 629 124.005 631.488 124.52C633.996 125.056 636.833 124.444 638.727 123.024Z" fill="black"/>
<path d="M111.208 355.762H14.1143V465.665H111.208V355.762Z" fill="#E0C244"/>
<path d="M111.533 355.511L113.4 382.087C113.969 391.111 114.473 400.276 114.915 409.526C115.304 418.788 115.727 428.113 115.889 437.499C116.167 446.87 116.167 456.285 116.124 465.666L116.107 469.529L111.207 469.47L62.6599 468.895C54.5688 468.768 46.4776 468.626 38.3865 468.394L14.113 467.625L11.4915 467.543L11.5778 465.666C12.0039 456.508 12.5083 447.35 12.6404 438.189C12.7456 429.031 12.7429 419.873 12.3329 410.715L10.7929 383.24C10.1915 374.082 9.95142 364.924 9.95412 355.763L9.95682 352.505L14.113 352.549L39.1147 352.802C47.4108 353.012 55.7285 353.135 63.9006 353.448C72.1023 353.698 80.1827 354.036 88.1606 354.366C96.0926 354.741 103.963 355.073 111.533 355.511ZM110.878 356.018L85.7036 357.161L61.4193 358.08C53.409 358.391 45.5418 358.516 37.6556 358.723L14.113 358.977L18.2692 355.763C18.2719 364.924 18.0318 374.082 17.4304 383.24L15.8903 410.715C15.4804 419.873 15.4777 429.031 15.5856 438.189C15.7177 447.35 16.2221 456.508 16.6455 465.666L14.113 463.708L38.3865 462.938C46.4776 462.709 54.5688 462.565 62.6599 462.437L111.207 461.864L106.287 465.666C106.244 456.731 106.247 447.829 106.522 438.882C106.684 429.951 107.107 420.957 107.496 411.903C107.938 402.835 108.445 393.683 109.014 384.391L110.878 356.018Z" fill="black"/>
<path d="M114.301 465.665H9.19649C4.74635 465.665 1.1377 462.874 1.1377 459.433C1.1377 455.994 4.74635 453.203 9.19649 453.203H114.301C118.751 453.203 122.359 455.994 122.359 459.433C122.359 462.874 118.751 465.665 114.301 465.665Z" fill="#E0C244"/>
<path d="M114.301 465.426C116.917 465.395 119.46 464.285 120.736 462.548C122.017 460.836 122.057 458.616 120.784 456.996C119.592 455.331 117.257 454.33 115.007 454.322C112.588 454.422 109.656 454.624 107.005 454.773C96.1388 455.498 85.2697 455.64 74.4033 455.745C63.5368 455.811 52.6677 455.609 41.7986 455.444C30.9322 455.338 20.0657 454.971 9.19661 454.508C7.04436 454.41 4.795 455.215 3.49773 456.677C2.14651 458.095 1.8849 460.145 2.89899 461.801C3.83486 463.501 6.06263 464.694 8.44142 464.907C10.9578 464.997 13.8194 464.89 16.4921 464.892C21.924 464.813 27.3586 464.584 32.7931 464.338L49.0941 463.68C59.9605 463.391 70.8297 463.505 81.6961 464.166C92.5652 464.763 103.432 465.497 114.301 465.426ZM114.301 465.904C103.432 465.831 92.5652 466.567 81.6961 467.162C70.8297 467.823 59.9605 467.939 49.0941 467.65L32.7931 466.993C27.3586 466.746 21.924 466.515 16.4921 466.438L8.24454 466.35C5.20225 466.129 2.41081 464.629 1.01642 462.51C-0.404896 460.402 -0.342869 457.711 1.2484 455.586C2.7965 453.442 5.89542 451.978 9.19661 451.896C20.0657 451.433 30.9322 451.066 41.7986 450.958C52.6677 450.793 63.5368 450.593 74.4033 450.658C85.2697 450.764 96.1388 450.904 107.005 451.631C109.789 451.811 112.294 451.909 115.301 452.153C118.473 452.578 121.154 454.27 122.298 456.424C123.457 458.566 123.174 461.09 121.513 462.923C119.94 464.788 117.138 465.95 114.301 465.904Z" fill="black"/>
<path d="M114.301 443.685H9.19649C4.74635 443.685 1.1377 440.896 1.1377 437.455C1.1377 434.014 4.74635 431.223 9.19649 431.223H114.301C118.751 431.223 122.359 434.014 122.359 437.455C122.359 440.896 118.751 443.685 114.301 443.685Z" fill="#E0C244"/>
<path d="M114.301 443.446C116.917 443.415 119.46 442.305 120.736 440.568C122.017 438.856 122.057 436.637 120.784 435.014C119.592 433.352 117.257 432.35 115.007 432.342C112.588 432.444 109.656 432.645 107.005 432.793C96.1388 433.521 85.2697 433.66 74.4033 433.767C63.5368 433.831 52.6677 433.631 41.7986 433.466C30.9322 433.358 20.0657 432.991 9.19661 432.528C7.04436 432.43 4.795 433.235 3.49773 434.697C2.14651 436.115 1.8849 438.167 2.89899 439.821C3.83486 441.521 6.06263 442.716 8.44142 442.927C10.9578 443.017 13.8194 442.91 16.4921 442.912C21.924 442.833 27.3586 442.604 32.7931 442.358L49.0941 441.701C59.9605 441.411 70.8297 441.527 81.6961 442.187C92.5652 442.783 103.432 443.517 114.301 443.446ZM114.301 443.924C103.432 443.851 92.5652 444.587 81.6961 445.182C70.8297 445.843 59.9605 445.959 49.0941 445.67L32.7931 445.013C27.3586 444.766 21.924 444.537 16.4921 444.458L8.24454 444.37C5.20225 444.149 2.41081 442.65 1.01642 440.53C-0.404896 438.424 -0.342869 435.731 1.2484 433.606C2.7965 431.462 5.89542 429.998 9.19661 429.916C20.0657 429.453 30.9322 429.086 41.7986 428.978C52.6677 428.813 63.5368 428.613 74.4033 428.678C85.2697 428.784 96.1388 428.926 107.005 429.652C109.789 429.831 112.294 429.929 115.301 430.173C118.473 430.598 121.154 432.292 122.298 434.447C123.457 436.586 123.174 439.112 121.513 440.943C119.94 442.808 117.138 443.97 114.301 443.924Z" fill="black"/>
<path d="M114.301 421.706H9.19649C4.74635 421.706 1.1377 418.915 1.1377 415.474C1.1377 412.033 4.74635 409.242 9.19649 409.242H114.301C118.751 409.242 122.359 412.033 122.359 415.474C122.359 418.915 118.751 421.706 114.301 421.706Z" fill="#E0C244"/>
<path d="M114.301 421.467C116.917 421.438 119.46 420.326 120.736 418.589C122.017 416.876 122.057 414.657 120.784 413.036C119.592 411.372 117.257 410.371 115.007 410.363C112.588 410.463 109.656 410.667 107.005 410.813C96.1388 411.541 85.2697 411.681 74.4033 411.787C63.5368 411.852 52.6677 411.652 41.7986 411.487C30.9322 411.378 20.0657 411.011 9.19661 410.548C7.04436 410.45 4.795 411.257 3.49773 412.717C2.14651 414.136 1.8849 416.188 2.89899 417.844C3.83486 419.542 6.06263 420.737 8.44142 420.947C10.9578 421.037 13.8194 420.931 16.4921 420.933C21.924 420.854 27.3586 420.624 32.7931 420.378L49.0941 419.719C59.9605 419.431 70.8297 419.546 81.6961 420.209C92.5652 420.804 103.432 421.54 114.301 421.467ZM114.301 421.944C103.432 421.873 92.5652 422.608 81.6961 423.202C70.8297 423.865 59.9605 423.98 49.0941 423.69L32.7931 423.033C27.3586 422.787 21.924 422.558 16.4921 422.478L8.24454 422.393C5.20225 422.172 2.41081 420.672 1.01642 418.551C-0.404896 416.444 -0.342869 413.752 1.2484 411.629C2.7965 409.485 5.89542 408.02 9.19661 407.937C20.0657 407.474 30.9322 407.107 41.7986 406.998C52.6677 406.834 63.5368 406.635 74.4033 406.698C85.2697 406.804 96.1388 406.944 107.005 407.674C109.789 407.851 112.294 407.949 115.301 408.194C118.473 408.619 121.154 410.313 122.298 412.465C123.457 414.607 123.174 417.133 121.513 418.964C119.94 420.831 117.138 421.99 114.301 421.944Z" fill="black"/>
<path d="M114.301 355.762H9.19649C4.74635 355.762 1.1377 352.974 1.1377 349.53C1.1377 346.089 4.74635 343.298 9.19649 343.298H114.301C118.751 343.298 122.359 346.089 122.359 349.53C122.359 352.974 118.751 355.762 114.301 355.762Z" fill="#E0C244"/>
<path d="M114.301 355.524C116.917 355.493 119.46 354.383 120.736 352.644C122.017 350.934 122.057 348.715 120.784 347.092C119.592 345.428 117.257 344.426 115.007 344.42C112.588 344.52 109.656 344.723 107.005 344.869C96.1388 345.596 85.2697 345.738 74.4033 345.843C63.5368 345.907 52.6677 345.707 41.7986 345.542C30.9322 345.436 20.0657 345.067 9.19661 344.606C7.04436 344.506 4.795 345.313 3.49773 346.773C2.14651 348.193 1.8849 350.243 2.89899 351.899C3.83486 353.597 6.06263 354.792 8.44142 355.005C10.9578 355.095 13.8194 354.988 16.4921 354.988C21.924 354.911 27.3586 354.68 32.7931 354.434L49.0941 353.777C59.9605 353.489 70.8297 353.603 81.6961 354.265C92.5652 354.859 103.432 355.595 114.301 355.524ZM114.301 356C103.432 355.929 92.5652 356.665 81.6961 357.26C70.8297 357.921 59.9605 358.035 49.0941 357.748L32.7931 357.091C27.3586 356.842 21.924 356.615 16.4921 356.536L8.24454 356.448C5.20225 356.227 2.41081 354.728 1.01642 352.609C-0.404896 350.5 -0.342869 347.807 1.2484 345.684C2.7965 343.54 5.89542 342.076 9.19661 341.992C20.0657 341.531 30.9322 341.162 41.7986 341.056C52.6677 340.891 63.5368 340.691 74.4033 340.756C85.2697 340.86 96.1388 341.002 107.005 341.73C109.789 341.907 112.294 342.007 115.301 342.251C118.473 342.677 121.154 344.37 122.298 346.523C123.457 348.665 123.174 351.19 121.513 353.019C119.94 354.886 117.138 356.048 114.301 356Z" fill="black"/>
<path d="M744.124 355.466H841.801V466.029H744.124V355.466Z" fill="#E0C244"/>
<path d="M744.452 355.722L746.333 384.266C746.905 393.614 747.413 402.821 747.855 411.944C748.248 421.052 748.674 430.099 748.837 439.084C749.114 448.085 749.116 457.04 749.07 466.029L744.124 462.204L792.963 462.781C801.102 462.909 809.242 463.054 817.382 463.285L841.801 464.059L839.256 466.029C839.679 456.816 840.187 447.603 840.32 438.387C840.428 429.174 840.426 419.961 840.013 410.748L838.464 383.108C837.856 373.895 837.617 364.681 837.62 355.466L841.801 358.699L818.117 358.443C810.184 358.236 802.272 358.11 794.211 357.797L769.781 356.872L744.452 355.722ZM743.796 355.212C751.412 354.772 759.329 354.438 767.309 354.06C775.332 353.729 783.464 353.389 791.715 353.137C799.938 352.822 808.303 352.698 816.649 352.487L841.801 352.233L845.982 352.189V355.466C845.988 364.681 845.746 373.895 845.144 383.108L843.592 410.748C843.177 419.961 843.177 429.174 843.283 438.387C843.416 447.603 843.923 456.816 844.352 466.029L844.439 467.918L841.801 467.999L817.382 468.774C809.242 469.007 801.102 469.149 792.963 469.277L744.124 469.856L739.197 469.915L739.178 466.029C739.134 456.591 739.134 447.12 739.414 437.693C739.574 428.251 740.003 418.87 740.393 409.552C740.836 400.246 741.348 391.027 741.921 381.948L743.796 355.212Z" fill="black"/>
<path d="M741.013 466.029H846.743C851.223 466.029 854.853 463.221 854.853 459.759C854.853 456.299 851.223 453.492 846.743 453.492H741.013C736.534 453.492 732.903 456.299 732.903 459.759C732.903 463.221 736.534 466.029 741.013 466.029Z" fill="#E0C244"/>
<path d="M741.014 466.269C738.157 466.316 735.338 465.147 733.757 463.271C732.088 461.427 731.8 458.888 732.97 456.733C734.117 454.566 736.817 452.864 740.005 452.436C743.03 452.19 745.554 452.092 748.351 451.911C759.283 451.179 770.214 451.038 781.149 450.931C792.083 450.866 803.015 451.068 813.95 451.234C824.881 451.343 835.813 451.712 846.745 452.178C850.066 452.26 853.186 453.733 854.746 455.89C856.344 458.028 856.407 460.734 854.979 462.856C853.574 464.987 850.766 466.496 847.705 466.718L839.408 466.807C833.943 466.884 828.476 467.117 823.009 467.365L806.607 468.026C795.676 468.317 784.744 468.2 773.812 467.535C762.878 466.937 751.946 466.196 741.014 466.269ZM741.014 465.789C751.946 465.86 762.878 465.122 773.812 464.522C784.744 463.856 795.676 463.741 806.607 464.033L823.009 464.694C828.476 464.941 833.943 465.172 839.408 465.252C842.1 465.25 844.976 465.357 847.51 465.266C849.903 465.052 852.141 463.852 853.083 462.142C854.103 460.476 853.84 458.414 852.483 456.987C851.175 455.516 848.912 454.706 846.745 454.805C835.813 455.271 824.881 455.64 813.95 455.747C803.015 455.913 792.083 456.116 781.149 456.049C770.214 455.944 759.283 455.801 748.351 455.071C745.684 454.922 742.735 454.719 740.301 454.618C738.038 454.626 735.688 455.634 734.489 457.308C733.208 458.938 733.249 461.171 734.535 462.893C735.821 464.641 738.38 465.757 741.014 465.789Z" fill="black"/>
<path d="M741.013 443.916H846.743C851.223 443.916 854.853 441.11 854.853 437.648C854.853 434.186 851.223 431.379 846.743 431.379H741.013C736.534 431.379 732.903 434.186 732.903 437.648C732.903 441.11 736.534 443.916 741.013 443.916Z" fill="#E0C244"/>
<path d="M741.014 444.157C738.157 444.203 735.338 443.034 733.757 441.158C732.088 439.316 731.8 436.775 732.97 434.622C734.117 432.455 736.817 430.751 740.005 430.323C743.03 430.078 745.554 429.979 748.351 429.799C759.283 429.068 770.214 428.926 781.149 428.819C792.083 428.754 803.015 428.955 813.95 429.121C824.881 429.23 835.813 429.599 846.745 430.065C850.066 430.147 853.186 431.62 854.746 433.777C856.344 435.915 856.407 438.624 854.979 440.743C853.574 442.875 850.766 444.383 847.705 444.606L839.408 444.694C833.943 444.773 828.476 445.004 823.009 445.252L806.607 445.913C795.676 446.204 784.744 446.087 773.812 445.422C762.878 444.824 751.946 444.083 741.014 444.157ZM741.014 443.676C751.946 443.747 762.878 443.009 773.812 442.409C784.744 441.746 795.676 441.628 806.607 441.92L823.009 442.581C828.476 442.828 833.943 443.059 839.408 443.139C842.1 443.137 844.976 443.244 847.51 443.154C849.903 442.942 852.141 441.739 853.083 440.029C854.103 438.366 853.84 436.301 852.483 434.874C851.175 433.403 848.912 432.593 846.745 432.692C835.813 433.158 824.881 433.527 813.95 433.636C803.015 433.802 792.083 434.003 781.149 433.938C770.214 433.831 759.283 433.691 748.351 432.958C745.684 432.81 742.735 432.608 740.301 432.505C738.038 432.514 735.688 433.521 734.489 435.193C733.208 436.825 733.249 439.058 734.535 440.781C735.821 442.528 738.38 443.645 741.014 443.676Z" fill="black"/>
<path d="M741.013 421.804H846.743C851.223 421.804 854.853 418.997 854.853 415.535C854.853 412.073 851.223 409.265 846.743 409.265H741.013C736.534 409.265 732.903 412.073 732.903 415.535C732.903 418.997 736.534 421.804 741.013 421.804Z" fill="#E0C244"/>
<path d="M741.014 422.044C738.157 422.09 735.338 420.924 733.757 419.046C732.088 417.204 731.8 414.663 732.97 412.508C734.117 410.343 736.817 408.639 740.005 408.211C743.03 407.965 745.554 407.867 748.351 407.688C759.283 406.954 770.214 406.813 781.149 406.706C792.083 406.643 803.015 406.843 813.95 407.009C824.881 407.118 835.813 407.487 846.745 407.953C850.066 408.037 853.186 409.51 854.746 411.667C856.344 413.803 856.407 416.511 854.979 418.631C853.574 420.764 850.766 422.273 847.705 422.495L839.408 422.581C833.943 422.661 828.476 422.892 823.009 423.14L806.607 423.801C795.676 424.092 784.744 423.977 773.812 423.31C762.878 422.712 751.946 421.973 741.014 422.044ZM741.014 421.564C751.946 421.637 762.878 420.897 773.812 420.299C784.744 419.631 795.676 419.516 806.607 419.806L823.009 420.469C828.476 420.716 833.943 420.947 839.408 421.027C842.1 421.025 844.976 421.132 847.51 421.041C849.903 420.829 852.141 419.627 853.083 417.919C854.103 416.253 853.84 414.189 852.483 412.762C851.175 411.293 848.912 410.481 846.745 410.58C835.813 411.045 824.881 411.415 813.95 411.524C803.015 411.69 792.083 411.891 781.149 411.826C770.214 411.719 759.283 411.578 748.351 410.846C745.684 410.699 742.735 410.494 740.301 410.393C738.038 410.401 735.688 411.409 734.489 413.083C733.208 414.713 733.249 416.946 734.535 418.668C735.821 420.416 738.38 421.534 741.014 421.564Z" fill="black"/>
<path d="M741.013 355.465H846.743C851.223 355.465 854.853 352.66 854.853 349.196C854.853 345.734 851.223 342.926 846.743 342.926H741.013C736.534 342.926 732.903 345.734 732.903 349.196C732.903 352.66 736.534 355.465 741.013 355.465Z" fill="#E0C244"/>
<path d="M741.014 355.705C738.157 355.754 735.338 354.585 733.757 352.707C732.088 350.867 731.8 348.326 732.97 346.171C734.117 344.006 736.817 342.302 740.005 341.874C743.03 341.628 745.554 341.528 748.351 341.349C759.283 340.617 770.214 340.474 781.149 340.369C792.083 340.304 803.015 340.506 813.95 340.672C824.881 340.779 835.813 341.15 846.745 341.614C850.066 341.698 853.186 343.171 854.746 345.328C856.344 347.464 856.407 350.172 854.979 352.294C853.574 354.425 850.766 355.934 847.705 356.156L839.408 356.245C833.943 356.324 828.476 356.553 823.009 356.803L806.607 357.464C795.676 357.753 784.744 357.638 773.812 356.973C762.878 356.375 751.946 355.634 741.014 355.705ZM741.014 355.227C751.946 355.298 762.878 354.558 773.812 353.96C784.744 353.294 795.676 353.179 806.607 353.469L823.009 354.13C828.476 354.377 833.943 354.61 839.408 354.688C842.1 354.688 844.976 354.795 847.51 354.704C849.903 354.49 852.141 353.288 853.083 351.58C854.103 349.914 853.84 347.852 852.483 346.423C851.175 344.954 848.912 344.142 846.745 344.243C835.813 344.706 824.881 345.078 813.95 345.185C803.015 345.351 792.083 345.552 781.149 345.487C770.214 345.382 759.283 345.239 748.351 344.507C745.684 344.36 742.735 344.157 740.301 344.056C738.038 344.062 735.688 345.069 734.489 346.744C733.208 348.376 733.249 350.609 734.535 352.329C735.821 354.079 738.38 355.195 741.014 355.227Z" fill="black"/>
<path d="M651.978 449.961H209.312V354.767H651.978V449.961Z" fill="#C89A5C"/>
<path d="M651.687 449.768L650.032 401.84C649.575 386.043 648.972 370.375 648.724 354.766L651.979 356.883C615.088 357.097 578.198 357.456 541.315 357.548C504.425 357.696 467.538 357.71 430.644 357.598L319.976 357.163L264.646 356.802L209.313 356.253L211.599 354.766C211.34 370.631 210.799 386.497 210.781 402.363L210.606 426.162C210.511 434.095 210.65 442.028 210.664 449.96L209.313 449.081C246.134 448.958 282.849 448.416 319.436 448.102C356.001 447.677 392.508 447.565 429.241 447.755C466.037 448.009 502.664 448.05 539.763 448.475L595.454 449.029L651.687 449.768ZM652.275 450.153L597.84 450.894L542.868 451.446C506.185 451.874 469.032 451.914 432.05 452.166C395.007 452.356 357.733 452.247 320.524 451.821C283.331 451.505 246.269 450.966 209.313 450.84L207.958 450.835L207.961 449.96C207.972 442.028 208.111 434.095 208.02 426.162L207.841 402.363C207.822 386.497 207.282 370.631 207.026 354.766L207 353.299L209.313 353.278L264.646 352.729L319.976 352.365L430.644 351.93C467.538 351.819 504.425 351.835 541.315 351.983C578.198 352.073 615.088 352.434 651.979 352.646L655.27 352.665L655.233 354.766C654.985 370.888 654.382 386.951 653.926 402.888L652.275 450.153Z" fill="black"/>
<path d="M656.195 463.344H205.091C200.865 463.344 197.438 461.117 197.438 458.365V454.941C197.438 452.191 200.865 449.962 205.091 449.962H656.195C660.422 449.962 663.848 452.191 663.848 454.941V458.365C663.848 461.117 660.422 463.344 656.195 463.344Z" fill="#E0C244"/>
<path d="M656.197 463.073C658.575 463.071 660.88 462.254 662.177 460.968C662.812 460.326 663.218 459.587 663.331 458.829C663.397 458.076 663.335 457.218 663.346 456.417C663.313 455.602 663.408 454.772 663.189 454.047C662.959 453.303 662.429 452.607 661.702 452.018C660.197 450.832 657.892 450.228 655.474 450.366C645.461 450.483 635.452 450.521 625.447 450.718L565.398 451.752C525.362 452.581 485.33 452.743 445.295 452.861C405.259 452.935 365.228 452.707 325.192 452.519C285.16 452.36 245.125 451.973 205.093 451.45C203.325 451.421 201.572 451.992 200.53 452.959C200.026 453.439 199.687 453.997 199.573 454.582C199.497 455.129 199.515 456.136 199.482 456.89C199.482 457.714 199.383 458.568 199.53 459.079C199.687 459.673 200.085 460.238 200.651 460.723C201.886 461.705 203.548 462.235 205.82 462.175C215.829 462.306 225.838 462.368 235.843 462.389C255.861 462.477 275.878 462.572 295.896 462.465C315.91 462.375 335.928 462.113 355.946 461.833L415.995 461.082C456.031 460.754 496.062 460.885 536.098 461.638C576.13 462.287 616.165 463.159 656.197 463.073ZM656.197 463.618C616.165 463.532 576.13 464.404 536.098 465.051C496.062 465.804 456.031 465.935 415.995 465.607L355.946 464.858C335.928 464.578 315.91 464.316 295.896 464.226C275.878 464.119 255.861 464.214 235.843 464.3C225.838 464.321 215.829 464.385 205.82 464.514C204.622 464.559 202.799 464.464 201.425 464.076C199.983 463.694 198.689 463.081 197.678 462.306C196.684 461.522 195.961 460.58 195.639 459.573C195.329 458.48 195.457 457.691 195.398 456.89C195.398 456.017 195.311 455.395 195.384 454.316C195.526 453.282 196.067 452.267 196.932 451.388C198.671 449.629 201.827 448.489 205.093 448.474C245.125 447.954 285.16 447.564 325.192 447.407C365.228 447.217 405.259 446.989 445.295 447.065C485.33 447.184 525.362 447.345 565.398 448.175L625.447 449.206C635.452 449.406 645.461 449.444 655.474 449.56C658.06 449.465 660.895 450.188 662.549 451.569C663.382 452.251 663.974 453.059 664.222 453.917C664.46 454.796 664.332 455.609 664.354 456.417C664.332 457.244 664.379 458.014 664.292 458.891C664.153 459.749 663.675 460.585 662.944 461.301C661.454 462.741 658.849 463.634 656.197 463.618Z" fill="black"/>
<path d="M656.195 357.605H205.091C200.865 357.605 197.438 355.376 197.438 352.629V349.201C197.438 346.452 200.865 344.223 205.091 344.223H656.195C660.422 344.223 663.848 346.452 663.848 349.201V352.629C663.848 355.376 660.422 357.605 656.195 357.605Z" fill="#E0C244"/>
<path d="M656.197 357.334C658.575 357.331 660.88 356.514 662.177 355.228C662.812 354.584 663.218 353.847 663.331 353.089C663.397 352.336 663.335 351.478 663.346 350.677C663.313 349.864 663.408 349.032 663.189 348.307C662.959 347.564 662.429 346.867 661.702 346.28C660.197 345.094 657.892 344.488 655.474 344.626C645.461 344.74 635.452 344.778 625.447 344.978L565.398 346.012C525.362 346.841 485.33 347.003 445.295 347.122C405.259 347.195 365.228 346.967 325.192 346.779C285.16 346.62 245.125 346.233 205.093 345.71C203.325 345.681 201.572 346.252 200.53 347.217C200.026 347.699 199.687 348.255 199.573 348.842C199.497 349.389 199.515 350.396 199.482 351.15C199.482 351.975 199.383 352.828 199.53 353.339C199.687 353.933 200.085 354.496 200.651 354.983C201.886 355.965 203.548 356.495 205.82 356.435C215.829 356.564 225.838 356.63 235.843 356.649C255.861 356.737 275.878 356.832 295.896 356.723C315.91 356.635 335.928 356.371 355.946 356.093L415.995 355.342C456.031 355.014 496.062 355.145 536.098 355.901C576.13 356.547 616.165 357.419 656.197 357.334ZM656.197 357.878C616.165 357.792 576.13 358.665 536.098 359.311C496.062 360.064 456.031 360.197 415.995 359.867L355.946 359.118C335.928 358.838 315.91 358.577 295.896 358.486C275.878 358.379 255.861 358.474 235.843 358.56C225.838 358.581 215.829 358.645 205.82 358.774C204.622 358.819 202.799 358.724 201.425 358.337C199.983 357.954 198.689 357.341 197.678 356.564C196.684 355.782 195.961 354.838 195.639 353.833C195.329 352.74 195.457 351.951 195.398 351.15C195.398 350.278 195.311 349.655 195.384 348.576C195.526 347.542 196.067 346.527 196.932 345.651C198.671 343.89 201.827 342.749 205.093 342.735C245.125 342.212 285.16 341.824 325.192 341.665C365.228 341.477 405.259 341.252 445.295 341.323C485.33 341.444 525.362 341.606 565.398 342.435L625.447 343.467C635.452 343.666 645.461 343.704 655.474 343.821C658.06 343.726 660.895 344.448 662.549 345.826C663.382 346.511 663.974 347.319 664.222 348.177C664.46 349.059 664.332 349.869 664.354 350.677C664.332 351.506 664.379 352.276 664.292 353.149C664.153 354.011 663.675 354.843 662.944 355.563C661.454 357.001 658.849 357.895 656.197 357.878Z" fill="black"/>
<path d="M317.322 449.961H321.497V357.604H317.322V449.961Z" fill="black"/>
<path d="M429.148 449.961H433.323V357.604H429.148V449.961Z" fill="black"/>
<path d="M540.971 449.961H545.151V357.604H540.971V449.961Z" fill="black"/>
<path d="M227.064 372.093H296.567V369.374H227.064V372.093Z" fill="black"/>
<path d="M227.064 433.547H296.567V430.828H227.064V433.547Z" fill="black"/>
<path d="M338.661 372.093H408.164V369.374H338.661V372.093Z" fill="black"/>
<path d="M338.661 433.547H408.164V430.828H338.661V433.547Z" fill="black"/>
<path d="M450.25 372.093H519.754V369.374H450.25V372.093Z" fill="black"/>
<path d="M450.25 433.547H519.754V430.828H450.25V433.547Z" fill="black"/>
<path d="M561.847 372.093H631.347V369.374H561.847V372.093Z" fill="black"/>
<path d="M561.847 433.547H631.347V430.828H561.847V433.547Z" fill="black"/>
<path d="M297 399.667C297 382.481 282.379 368.556 264.333 368.556C246.288 368.556 231.667 382.481 231.667 399.667C231.667 416.853 246.288 430.778 264.333 430.778C282.379 430.778 297 416.853 297 399.667Z" fill="#E74656"/>
<path d="M297 401.456C296.981 409.4 295.069 417.915 289.267 425.16C283.636 432.534 273.462 436.865 263.315 436.994C253.075 437.176 243.024 432.88 236.285 426.145C229.3 419.532 226.101 410.074 227.218 401.456C228.174 392.785 232.509 385.039 238.642 378.919C244.708 372.798 253.321 367.793 263.315 367.075C273.178 366.375 283.503 370.62 289.154 377.855C295.012 385.022 296.858 393.537 297 401.456ZM295.911 401.456C296.11 393.502 290.81 386.275 284.346 382.247C277.749 378.219 270.83 375.954 263.315 375.305C255.924 374.536 247.302 376.04 241.121 381.192C234.922 386.249 232.12 394.254 233.143 401.456C234.203 408.709 238.13 415.002 243.478 419.575C248.986 424.105 256.17 426.335 263.315 426.448C270.546 426.638 277.607 424.46 284.232 420.561C290.763 416.619 295.987 409.392 295.911 401.456Z" fill="black"/>
<path d="M408 399.667C408 382.481 393.379 368.556 375.333 368.556C357.288 368.556 342.667 382.481 342.667 399.667C342.667 416.853 357.288 430.778 375.333 430.778C393.379 430.778 408 416.853 408 399.667Z" fill="#E74656"/>
<path d="M408 401.456C407.981 409.4 406.069 417.915 400.267 425.16C394.636 432.534 384.462 436.865 374.315 436.994C364.075 437.176 354.024 432.88 347.285 426.145C340.3 419.532 337.101 410.074 338.218 401.456C339.174 392.785 343.509 385.039 349.642 378.919C355.708 372.798 364.321 367.793 374.315 367.075C384.178 366.375 394.503 370.62 400.154 377.855C406.012 385.022 407.858 393.537 408 401.456ZM406.911 401.456C407.11 393.502 401.81 386.275 395.346 382.247C388.749 378.219 381.83 375.954 374.315 375.305C366.924 374.536 358.302 376.04 352.121 381.192C345.922 386.249 343.12 394.254 344.143 401.456C345.203 408.709 349.13 415.002 354.478 419.575C359.986 424.105 367.17 426.335 374.315 426.448C381.546 426.638 388.607 424.46 395.232 420.561C401.763 416.619 406.987 409.392 406.911 401.456Z" fill="black"/>
<path d="M520 399.667C520 382.481 505.379 368.556 487.333 368.556C469.288 368.556 454.667 382.481 454.667 399.667C454.667 416.853 469.288 430.778 487.333 430.778C505.379 430.778 520 416.853 520 399.667Z" fill="#E74656"/>
<path d="M520 401.456C519.981 409.4 518.069 417.915 512.267 425.16C506.636 432.534 496.462 436.865 486.315 436.994C476.075 437.176 466.024 432.88 459.285 426.145C452.3 419.532 449.101 410.074 450.218 401.456C451.174 392.785 455.509 385.039 461.642 378.919C467.708 372.798 476.321 367.793 486.315 367.075C496.178 366.375 506.503 370.62 512.154 377.855C518.012 385.022 519.858 393.537 520 401.456ZM518.911 401.456C519.11 393.502 513.81 386.275 507.346 382.247C500.749 378.219 493.83 375.954 486.315 375.305C478.924 374.536 470.302 376.04 464.121 381.192C457.922 386.249 455.12 394.254 456.143 401.456C457.203 408.709 461.13 415.002 466.478 419.575C471.986 424.105 479.17 426.335 486.315 426.448C493.546 426.638 500.607 424.46 507.232 420.561C513.763 416.619 518.987 409.392 518.911 401.456Z" fill="black"/>
<path d="M632 399.667C632 382.481 617.379 368.556 599.333 368.556C581.288 368.556 566.667 382.481 566.667 399.667C566.667 416.853 581.288 430.778 599.333 430.778C617.379 430.778 632 416.853 632 399.667Z" fill="#E74656"/>
<path d="M632 401.456C631.981 409.4 630.069 417.915 624.267 425.16C618.636 432.534 608.462 436.865 598.315 436.994C588.075 437.176 578.024 432.88 571.285 426.145C564.3 419.532 561.101 410.074 562.218 401.456C563.174 392.785 567.509 385.039 573.642 378.919C579.708 372.798 588.321 367.793 598.315 367.075C608.178 366.375 618.503 370.62 624.154 377.855C630.012 385.022 631.858 393.537 632 401.456ZM630.911 401.456C631.11 393.502 625.81 386.275 619.346 382.247C612.749 378.219 605.83 375.954 598.315 375.305C590.924 374.536 582.302 376.04 576.121 381.192C569.922 386.249 567.12 394.254 568.143 401.456C569.203 408.709 573.13 415.002 578.478 419.575C583.986 424.105 591.17 426.335 598.315 426.448C605.546 426.638 612.607 424.46 619.232 420.561C625.763 416.619 630.987 409.392 630.911 401.456Z" fill="black"/>
<path d="M245.225 57.8193C272.618 46.1672 302.46 38.0289 333.058 32.4281C363.707 26.9196 395.257 24.1612 426.803 24.1135C427.11 24.1135 427.418 24.1135 427.722 24.1135C458.968 24.1135 490.213 26.7965 520.587 32.1735C551.215 37.6904 581.089 45.7699 608.519 57.3717C578.065 52.059 548.006 47.4597 517.726 44.5558C487.706 41.5903 457.6 40.1048 427.49 40.1048C427.273 40.1048 427.056 40.1048 426.835 40.1048C396.508 40.1355 366.192 41.6994 335.963 44.76C305.687 47.7283 275.646 52.4143 245.225 57.8193Z" fill="#E74656"/>
<path d="M54.0341 269.095C51.4113 257.79 51.603 246.255 53.4082 234.897C55.2749 223.538 58.8998 212.328 64.0984 201.58C69.2898 190.831 76.0404 180.525 84.2525 170.996C92.508 161.498 102.124 152.683 113.661 145.457C107.565 155.906 101.313 165.815 95.5975 175.85C89.8273 185.852 84.4913 195.887 79.5965 206.051C74.7127 216.217 70.2449 226.501 66.1388 236.981C61.9676 247.461 58.2957 258.111 54.0341 269.095Z" fill="#E74656"/>
<path d="M797.354 263.5C793.093 252.517 789.417 241.866 785.25 231.386C781.14 220.906 776.676 210.622 771.788 200.456C766.897 190.292 761.557 180.257 755.791 170.255C750.071 160.22 743.824 150.311 737.724 139.862C749.265 147.088 758.88 155.904 767.136 165.402C775.348 174.93 782.095 185.237 787.286 195.985C792.488 206.734 796.113 217.944 797.98 229.302C799.785 240.66 799.977 252.195 797.354 263.5Z" fill="#E74656"/>
<path d="M71.5707 341.841C70.8114 328.998 71.571 316.674 73.1588 304.224C74.7218 291.819 77.4014 279.526 80.9851 267.424C82.6283 261.349 84.947 255.393 87.0469 249.419L90.782 240.583L92.6782 236.181L94.8581 231.854C100.281 220.204 107.603 209.17 115.22 198.378C108.515 209.548 102.187 220.839 97.791 232.634L96.0003 237.013L94.4918 241.457L91.5474 250.342C89.9709 256.342 88.1843 262.291 87.0742 268.344C84.5585 280.393 82.9496 292.546 82.4426 304.712C81.8981 316.812 82.2373 329.172 83.9148 340.875L71.5707 341.841Z" fill="black"/>
<path d="M775.913 343.67C777.594 331.968 777.933 319.608 777.389 307.508C776.882 295.342 775.273 283.189 772.757 271.14C771.643 265.086 769.86 259.138 768.284 253.138L765.336 244.252L763.831 239.809L762.04 235.43C757.645 223.635 751.316 212.345 744.615 201.175C752.225 211.966 759.55 223 764.973 234.65L767.153 238.978L769.049 243.379L772.784 252.215C774.888 258.19 777.203 264.145 778.846 270.22C782.43 282.322 785.106 294.614 786.672 307.02C788.26 319.471 789.02 331.794 788.264 344.637L775.913 343.67Z" fill="black"/>
</svg>
