<svg width="205" height="203" viewBox="0 0 205 203" fill="none" xmlns="http://www.w3.org/2000/svg">
<path d="M199.091 102.718C199.091 157.585 154.612 202.064 99.744 202.064C44.8764 202.064 0.397461 157.585 0.397461 102.718C0.397461 47.8501 44.8764 3.37109 99.744 3.37109C154.612 3.37109 199.091 47.8501 199.091 102.718Z" fill="#A0A63A"/>
<path d="M121.6 28.4083C102.923 23.822 66.6109 29.1767 29.4067 33.1751C28.2087 34.1842 25.9382 36.8445 24.638 38.3418C52.4551 33.1751 111.666 43.1098 123.985 36.3548C133.407 31.1882 134.85 31.6619 121.6 28.4083Z" fill="#6E8336"/>
<path d="M73.9139 46.289C52.8525 44.6993 39.3413 46.289 15.1008 51.4565C14.306 52.6486 13.9086 53.4434 13.1138 55.033C51.9661 52.2242 58.0185 57.0182 75.5035 55.0329C87.0577 50.8938 87.1635 49.5425 73.9139 46.289Z" fill="#6E8336"/>
<path d="M162.531 99.9352C99.3686 91.3585 63.9566 95.7032 0.79454 99.9352C0.640299 102.25 0.603879 103.609 0.79454 106.294C73.4695 112.797 112.506 116.831 162.531 112.652C185.298 105.563 182.361 103.857 162.531 99.9352Z" fill="#6E8336"/>
<path d="M78.2852 127.356C60.8325 124.255 47.8903 122.971 3.17916 123.78C3.57309 126.242 3.78889 127.615 4.76871 130.933C43.9068 136.167 66.761 139.315 78.2852 138.086C96.1218 133.538 91.6269 131.278 78.2852 127.356Z" fill="#6E8336"/>
<path d="M123.985 127.356C131.989 122.349 155.444 128.284 194.322 131.727C193.949 133.283 193.49 134.297 192.732 136.495C174.411 140.226 167.536 138.303 121.6 136.495C110.364 135.679 107.641 134.954 123.985 127.356Z" fill="#6E8336"/>
<path d="M148.225 147.225C157.007 145.191 166.624 150.513 185.182 152.788C184.163 154.621 183.544 155.558 182.4 157.16C161.129 157.325 154.938 156.287 150.609 154.775C139.608 151.379 140.083 149.473 148.225 147.225Z" fill="#6E8336"/>
<path d="M112.858 161.929C55.586 156.598 35.8613 156.57 19.8694 161.133C21.4852 163.596 22.4553 164.773 24.2406 166.697C50.8655 166.697 108.884 174.945 115.242 171.864C125.906 166.696 126.492 164.4 112.858 161.929Z" fill="#6E8336"/>
<path d="M199.091 102.718C199.091 157.585 154.612 202.064 99.744 202.064C44.8764 202.064 0.397461 157.585 0.397461 102.718C0.397461 47.8501 44.8764 3.37109 99.744 3.37109C154.612 3.37109 199.091 47.8501 199.091 102.718Z" stroke="#6E8336" stroke-width="0.794773"/>
<path d="M121.6 28.4083C102.923 23.822 66.6109 29.1767 29.4067 33.1751C28.2087 34.1842 25.9382 36.8445 24.638 38.3418C52.4551 33.1751 111.666 43.1098 123.985 36.3548C133.407 31.1882 134.85 31.6619 121.6 28.4083Z" stroke="#6E8336" stroke-width="0.794773"/>
<path d="M73.9139 46.289C52.8525 44.6993 39.3413 46.289 15.1008 51.4565C14.306 52.6486 13.9086 53.4434 13.1138 55.033C51.9661 52.2242 58.0185 57.0182 75.5035 55.0329C87.0577 50.8938 87.1635 49.5425 73.9139 46.289Z" stroke="#6E8336" stroke-width="0.794773"/>
<path d="M162.531 99.9352C99.3686 91.3585 63.9566 95.7032 0.79454 99.9352C0.640299 102.25 0.603879 103.609 0.79454 106.294C73.4695 112.797 112.506 116.831 162.531 112.652C185.298 105.563 182.361 103.857 162.531 99.9352Z" stroke="#6E8336" stroke-width="0.794773"/>
<path d="M78.2852 127.356C60.8325 124.255 47.8903 122.971 3.17916 123.78C3.57309 126.242 3.78889 127.615 4.76871 130.933C43.9068 136.167 66.761 139.315 78.2852 138.086C96.1218 133.538 91.6269 131.278 78.2852 127.356Z" stroke="#6E8336" stroke-width="0.794773"/>
<path d="M123.985 127.356C131.989 122.349 155.444 128.284 194.322 131.727C193.949 133.283 193.49 134.297 192.732 136.495C174.411 140.226 167.536 138.303 121.6 136.495C110.364 135.679 107.641 134.954 123.985 127.356Z" stroke="#6E8336" stroke-width="0.794773"/>
<path d="M148.225 147.225C157.007 145.191 166.624 150.513 185.182 152.788C184.163 154.621 183.544 155.558 182.4 157.16C161.129 157.325 154.938 156.287 150.609 154.775C139.608 151.379 140.083 149.473 148.225 147.225Z" stroke="#6E8336" stroke-width="0.794773"/>
<path d="M112.858 161.929C55.586 156.598 35.8613 156.57 19.8694 161.133C21.4852 163.596 22.4553 164.773 24.2406 166.697C50.8655 166.697 108.884 174.945 115.242 171.864C125.906 166.696 126.492 164.4 112.858 161.929Z" stroke="#6E8336" stroke-width="0.794773"/>
<path d="M148.226 41.3945C155.049 39.0191 157.671 36.3612 160.022 29.5982C162.522 35.9077 164.652 39.0131 171.818 41.3945C165.76 43.3725 162.696 45.5149 160.022 53.1908C157.776 45.9395 154.949 43.5964 148.226 41.3945Z" fill="#F9DBC1"/>
<path d="M138.688 62.9131C144.167 61.0058 146.272 58.8717 148.16 53.4416C150.167 58.5076 151.877 61.001 157.631 62.9131C152.767 64.5013 150.307 66.2214 148.16 72.3846C146.356 66.5623 144.086 64.681 138.688 62.9131Z" fill="#F9DBC1"/>
<path d="M169.705 67.6021C174.666 65.8749 176.573 63.9424 178.282 59.0251C180.099 63.6127 181.648 65.8705 186.858 67.6021C182.453 69.0402 180.226 70.5979 178.282 76.179C176.649 70.9066 174.593 69.203 169.705 67.6021Z" fill="#F9DBC1"/>
<circle cx="103.308" cy="101.333" r="99.3466" stroke="black" stroke-width="3.97386"/>
</svg>
