<svg width="658" height="554" viewBox="0 0 658 554" fill="none" xmlns="http://www.w3.org/2000/svg">
<g id="Property 1=sign2">
<g id="Vector">
<path d="M539.62 39.1473H462.752C425.304 14.5601 378.836 0 328.498 0C278.16 0 231.696 14.5601 194.248 39.1473H117.38C98.3953 39.1473 83 52.6772 83 69.3675V407.304C83 423.996 98.3953 437.526 117.38 437.526H194.248C231.696 462.113 278.16 476.674 328.498 476.674C378.836 476.674 425.304 462.113 462.752 437.526H539.62C558.605 437.526 574 423.996 574 407.304V69.3675C574 52.6772 558.605 39.1473 539.62 39.1473Z" fill="#B5302B"/>
<path d="M329 460.978C284.782 460.978 242.755 448.726 207.442 425.543L197.748 419.176H103.564L103.286 419.014L103.28 58.072L103.468 57.8272L197.748 57.8217L207.442 51.4575C242.755 28.2723 284.782 16.0196 329 16.0196C373.221 16.0196 415.249 28.2722 450.559 51.4547L460.252 57.8217H554.439L554.717 57.9867L554.724 418.926L554.536 419.171L460.252 419.176L450.559 425.543C415.249 448.726 373.221 460.978 329 460.978Z" fill="#87C9BF"/>
</g>
<path id="path52" d="M328.904 415.741C311.51 402.853 280.887 388.889 229.873 388.889C219.614 388.889 208.734 389.453 197.533 390.567C187.201 391.596 177.236 392.115 167.908 392.115C104.034 392.115 80.5456 368.413 72.2289 354.285L65.1826 342.31H47.9516C35.4077 342.31 25.2012 333.341 25.2012 322.312V154.685C25.2012 143.659 35.4077 134.688 47.9516 134.688H65.1826L72.2289 122.713C80.5456 108.584 104.034 84.882 167.908 84.882C177.236 84.882 187.201 85.4046 197.533 86.4304C208.738 87.5443 219.617 88.111 229.873 88.111C269.651 88.1082 301.882 79.8957 325.665 63.699C326.836 62.9042 327.984 62.09 329.101 61.2594C346.491 74.1447 377.114 88.111 428.116 88.111C438.382 88.111 449.264 87.5443 460.472 86.4304C470.804 85.4046 480.769 84.882 490.093 84.882C553.964 84.882 577.456 108.587 585.776 122.718L592.822 134.688H610.05C622.594 134.688 632.8 143.659 632.8 154.685V322.312C632.8 333.341 622.594 342.31 610.05 342.31H592.822L585.776 354.285C577.456 368.413 553.964 392.115 490.093 392.115C480.769 392.115 470.804 391.596 460.472 390.567C449.274 389.453 438.391 388.889 428.131 388.889C388.353 388.889 356.122 397.102 332.333 413.301C331.169 414.093 330.024 414.907 328.904 415.741Z" fill="#87C9BF"/>
<rect id="Rectangle 187" x="281" y="61.4561" width="96" height="20" fill="#8ED7CC"/>
<rect id="Rectangle 189" x="66" y="101.456" width="524" height="20" fill="#8ED7CC"/>
<rect id="Rectangle 190" x="17" y="141.456" width="621" height="20" fill="#8ED7CC"/>
<rect id="Rectangle 191" x="17" y="181.456" width="621" height="20" fill="#8ED7CC"/>
<rect id="Rectangle 192" x="17" y="221.456" width="621" height="20" fill="#8ED7CC"/>
<rect id="Rectangle 193" x="17" y="261.456" width="621" height="20" fill="#8ED7CC"/>
<rect id="Rectangle 194" x="17" y="301.456" width="621" height="20" fill="#8ED7CC"/>
<rect id="Rectangle 195" x="34" y="341.456" width="588" height="20" fill="#8ED7CC"/>
<rect id="Rectangle 196" x="100" y="381.456" width="458" height="20" fill="#8ED7CC"/>
<path id="path52_2" d="M336.365 425.77C337.34 425.045 338.342 424.332 339.365 423.635L339.369 423.633C360.429 409.292 389.933 401.389 428.132 401.389C437.941 401.389 448.409 401.929 459.233 403.005L461.236 403.199C471.228 404.136 480.925 404.616 490.094 404.616C556.488 404.616 584.695 380.037 596.021 361.505L596.547 360.627L596.549 360.624L599.97 354.81H610.05C627.933 354.81 645.301 341.711 645.301 322.312V154.685C645.301 135.29 627.934 122.188 610.05 122.188H599.97L596.548 116.376C585.582 97.7504 557.543 72.3824 490.094 72.3823C480.312 72.3823 469.932 72.9298 459.237 73.9917H459.235C448.398 75.0688 437.929 75.6108 428.115 75.6108C379.547 75.6108 351.59 62.365 336.543 51.2163L329.088 45.6919L321.643 51.229C320.678 51.9462 319.675 52.6571 318.642 53.3589L318.636 53.3628L318.629 53.3677C297.905 67.4812 268.992 75.3596 231.657 75.605L229.873 75.6108C220.069 75.6108 209.604 75.0688 198.77 73.9917H198.768C188.073 72.9298 177.693 72.3823 167.908 72.3823C100.457 72.3823 72.4207 97.7466 61.457 116.372L61.4561 116.374L58.0342 122.188H47.9512C30.0674 122.188 12.7013 135.29 12.7012 154.685V322.312C12.7012 341.711 30.0685 354.81 47.9512 354.81H58.0352L61.4561 360.624L61.457 360.625C72.4206 379.25 100.457 404.616 167.908 404.616C177.691 404.616 188.072 404.071 198.771 403.005H198.771C209.599 401.929 220.064 401.389 229.873 401.389C278.455 401.389 306.413 414.633 321.462 425.784L328.919 431.309L336.365 425.77Z" stroke="#007F7E" stroke-width="25"/>
<g id="Vector_2">
<path d="M241.535 511.978L476.508 499.558L452.834 449.513L465.586 395.643L233.165 432.347L229.719 399.563L151.631 481.171L244.98 544.763L241.535 511.978Z" fill="#B5302B"/>
<path d="M221.269 424.907L223.526 446.387L450.198 410.498L442.422 451.128L458.476 489.257L229.296 501.28L231.428 521.567L169.131 479.854L221.269 424.907Z" fill="#007F7E"/>
<path d="M214.956 442.763L216.186 454.468L440.311 419.072L432.602 451.64L446.914 481.896L220.328 493.873L221.558 505.578L181.173 478.066L214.956 442.763Z" fill="#1CADAE"/>
</g>
<g id="Lights">
<circle id="Ellipse 127" cx="5.05582" cy="5.05582" r="5.05582" transform="matrix(-0.190809 -0.981627 -0.981627 0.190809 132.855 431.926)" fill="#F4E13E"/>
<circle id="Ellipse 133" cx="5.05582" cy="5.05582" r="5.05582" transform="matrix(-0.190809 -0.981627 -0.981627 0.190809 115.855 431.926)" fill="#F4E13E"/>
<circle id="Ellipse 129" cx="5.05582" cy="5.05582" r="5.05582" transform="matrix(-0.190809 -0.981627 -0.981627 0.190809 149.855 431.926)" fill="#F4E13E"/>
<circle id="Ellipse 130" cx="5.05582" cy="5.05582" r="5.05582" transform="matrix(-0.190809 -0.981627 -0.981627 0.190809 166.855 431.926)" fill="#F4E13E"/>
<circle id="Ellipse 131" cx="5.05582" cy="5.05582" r="5.05582" transform="matrix(-0.190809 -0.981627 -0.981627 0.190809 183.855 431.926)" fill="#F4E13E"/>
<circle id="Ellipse 132" cx="5.05582" cy="5.05582" r="5.05582" transform="matrix(-0.190809 -0.981627 -0.981627 0.190809 200.855 431.926)" fill="#F4E13E"/>
<circle id="Ellipse 149" cx="5.05582" cy="5.05582" r="5.05582" transform="matrix(-0.190809 -0.981627 -0.981627 0.190809 469.855 431.926)" fill="#F4E13E"/>
<circle id="Ellipse 150" cx="5.05582" cy="5.05582" r="5.05582" transform="matrix(-0.190809 -0.981627 -0.981627 0.190809 486.855 431.926)" fill="#F4E13E"/>
<circle id="Ellipse 151" cx="5.05582" cy="5.05582" r="5.05582" transform="matrix(-0.190809 -0.981627 -0.981627 0.190809 502.855 431.926)" fill="#F4E13E"/>
<circle id="Ellipse 152" cx="5.05582" cy="5.05582" r="5.05582" transform="matrix(-0.190809 -0.981627 -0.981627 0.190809 519.855 431.926)" fill="#F4E13E"/>
<circle id="Ellipse 153" cx="5.05582" cy="5.05582" r="5.05582" transform="matrix(-0.190809 -0.981627 -0.981627 0.190809 536.855 431.926)" fill="#F4E13E"/>
<circle id="Ellipse 154" cx="5.05582" cy="5.05582" r="5.05582" transform="matrix(-0.190809 -0.981627 -0.981627 0.190809 553.855 431.926)" fill="#F4E13E"/>
<circle id="Ellipse 155" cx="5.05582" cy="5.05582" r="5.05582" transform="matrix(-0.190809 -0.981627 -0.981627 0.190809 569.855 413.926)" fill="#F4E13E"/>
<circle id="Ellipse 128" cx="5.05582" cy="5.05582" r="5.05582" transform="matrix(-0.190809 -0.981627 -0.981627 0.190809 99.8555 415.926)" fill="#F4E13E"/>
<circle id="Ellipse 156" cx="126.928" cy="48.9274" r="5.05582" transform="rotate(101 126.928 48.9274)" fill="#F4E13E"/>
<circle id="Ellipse 157" cx="109.928" cy="48.9274" r="5.05582" transform="rotate(101 109.928 48.9274)" fill="#F4E13E"/>
<circle id="Ellipse 158" cx="143.928" cy="48.9274" r="5.05582" transform="rotate(101 143.928 48.9274)" fill="#F4E13E"/>
<circle id="Ellipse 159" cx="160.928" cy="48.9274" r="5.05582" transform="rotate(101 160.928 48.9274)" fill="#F4E13E"/>
<circle id="Ellipse 160" cx="177.928" cy="48.9274" r="5.05582" transform="rotate(101 177.928 48.9274)" fill="#F4E13E"/>
<circle id="Ellipse 161" cx="194.928" cy="48.9274" r="5.05582" transform="rotate(101 194.928 48.9274)" fill="#F4E13E"/>
<circle id="Ellipse 162" cx="209.928" cy="39.9274" r="5.05582" transform="rotate(101 209.928 39.9274)" fill="#F4E13E"/>
<circle id="Ellipse 163" cx="224.928" cy="30.9274" r="5.05582" transform="rotate(101 224.928 30.9274)" fill="#F4E13E"/>
<circle id="Ellipse 164" cx="241.928" cy="23.9274" r="5.05582" transform="rotate(101 241.928 23.9274)" fill="#F4E13E"/>
<circle id="Ellipse 165" cx="259.928" cy="17.9274" r="5.05582" transform="rotate(101 259.928 17.9274)" fill="#F4E13E"/>
<circle id="Ellipse 166" cx="278.928" cy="12.9274" r="5.05582" transform="rotate(101 278.928 12.9274)" fill="#F4E13E"/>
<circle id="Ellipse 167" cx="296.928" cy="9.92743" r="5.05582" transform="rotate(101 296.928 9.92743)" fill="#F4E13E"/>
<circle id="Ellipse 168" cx="314.928" cy="8.92743" r="5.05582" transform="rotate(101 314.928 8.92743)" fill="#F4E13E"/>
<circle id="Ellipse 169" cx="332.928" cy="7.92743" r="5.05582" transform="rotate(101 332.928 7.92743)" fill="#F4E13E"/>
<circle id="Ellipse 170" cx="350.928" cy="8.92743" r="5.05582" transform="rotate(101 350.928 8.92743)" fill="#F4E13E"/>
<circle id="Ellipse 171" cx="368.928" cy="10.9274" r="5.05582" transform="rotate(101 368.928 10.9274)" fill="#F4E13E"/>
<circle id="Ellipse 172" cx="386.928" cy="14.9274" r="5.05582" transform="rotate(101 386.928 14.9274)" fill="#F4E13E"/>
<circle id="Ellipse 173" cx="402.928" cy="19.9274" r="5.05582" transform="rotate(101 402.928 19.9274)" fill="#F4E13E"/>
<circle id="Ellipse 174" cx="419.928" cy="25.9274" r="5.05582" transform="rotate(101 419.928 25.9274)" fill="#F4E13E"/>
<circle id="Ellipse 175" cx="435.928" cy="33.9274" r="5.05582" transform="rotate(101 435.928 33.9274)" fill="#F4E13E"/>
<circle id="Ellipse 176" cx="450.928" cy="41.9274" r="5.05582" transform="rotate(101 450.928 41.9274)" fill="#F4E13E"/>
<circle id="Ellipse 177" cx="463.928" cy="48.9274" r="5.05582" transform="rotate(101 463.928 48.9274)" fill="#F4E13E"/>
<circle id="Ellipse 178" cx="480.928" cy="48.9274" r="5.05582" transform="rotate(101 480.928 48.9274)" fill="#F4E13E"/>
<circle id="Ellipse 179" cx="496.928" cy="48.9274" r="5.05582" transform="rotate(101 496.928 48.9274)" fill="#F4E13E"/>
<circle id="Ellipse 180" cx="513.928" cy="48.9274" r="5.05582" transform="rotate(101 513.928 48.9274)" fill="#F4E13E"/>
<circle id="Ellipse 181" cx="530.928" cy="48.9274" r="5.05582" transform="rotate(101 530.928 48.9274)" fill="#F4E13E"/>
<circle id="Ellipse 182" cx="547.928" cy="48.9274" r="5.05582" transform="rotate(101 547.928 48.9274)" fill="#F4E13E"/>
<circle id="Ellipse 183" cx="563.928" cy="66.9274" r="5.05582" transform="rotate(101 563.928 66.9274)" fill="#F4E13E"/>
<circle id="Ellipse 184" cx="93.9278" cy="64.9274" r="5.05582" transform="rotate(101 93.9278 64.9274)" fill="#F4E13E"/>
<circle id="Ellipse 106" cx="226.434" cy="473.505" r="5.99951" transform="rotate(84 226.434 473.505)" fill="#F4E13E"/>
<circle id="Ellipse 107" cx="247.913" cy="471.247" r="5.99951" transform="rotate(84 247.913 471.247)" fill="#F4E13E"/>
<circle id="Ellipse 108" cx="269.394" cy="468.989" r="5.99951" transform="rotate(84 269.394 468.989)" fill="#F4E13E"/>
<circle id="Ellipse 109" cx="290.874" cy="466.731" r="5.99951" transform="rotate(84 290.874 466.731)" fill="#F4E13E"/>
<circle id="Ellipse 110" cx="312.354" cy="464.474" r="5.99951" transform="rotate(84 312.354 464.474)" fill="#F4E13E"/>
<circle id="Ellipse 111" cx="333.834" cy="462.216" r="5.99951" transform="rotate(84 333.834 462.216)" fill="#F4E13E"/>
<circle id="Ellipse 112" cx="355.314" cy="459.958" r="5.99951" transform="rotate(84 355.314 459.958)" fill="#F4E13E"/>
<circle id="Ellipse 113" cx="376.793" cy="457.7" r="5.99951" transform="rotate(84 376.793 457.7)" fill="#F4E13E"/>
<circle id="Ellipse 114" cx="398.274" cy="455.443" r="5.99951" transform="rotate(84 398.274 455.443)" fill="#F4E13E"/>
<circle id="Ellipse 115" cx="419.753" cy="453.186" r="5.99951" transform="rotate(84 419.753 453.186)" fill="#F4E13E"/>
</g>
</g>
</svg>
