<svg width="658" height="554" viewBox="0 0 658 554" fill="none" xmlns="http://www.w3.org/2000/svg">
<g id="Property 1=sign5">
<g id="Vector">
<path d="M539.62 39.1473H462.752C425.304 14.5601 378.836 0 328.498 0C278.16 0 231.696 14.5601 194.248 39.1473H117.38C98.3953 39.1473 83 52.6772 83 69.3675V407.304C83 423.996 98.3953 437.526 117.38 437.526H194.248C231.696 462.113 278.16 476.674 328.498 476.674C378.836 476.674 425.304 462.113 462.752 437.526H539.62C558.605 437.526 574 423.996 574 407.304V69.3675C574 52.6772 558.605 39.1473 539.62 39.1473Z" fill="#B5302B"/>
<path d="M329 460.978C284.782 460.978 242.755 448.726 207.442 425.543L197.748 419.176H103.564L103.286 419.014L103.28 58.072L103.468 57.8272L197.748 57.8217L207.442 51.4575C242.755 28.2723 284.782 16.0196 329 16.0196C373.221 16.0196 415.249 28.2722 450.559 51.4547L460.252 57.8217H554.439L554.717 57.9867L554.724 418.926L554.536 419.171L460.252 419.176L450.559 425.543C415.249 448.726 373.221 460.978 329 460.978Z" fill="#EEE0B3"/>
</g>
<path id="path52" d="M328.904 415.741C311.51 402.853 280.887 388.889 229.873 388.889C219.614 388.889 208.734 389.453 197.533 390.567C187.201 391.596 177.236 392.115 167.908 392.115C104.034 392.115 80.5456 368.413 72.2289 354.285L65.1826 342.31H47.9516C35.4077 342.31 25.2012 333.341 25.2012 322.312V154.685C25.2012 143.659 35.4077 134.688 47.9516 134.688H65.1826L72.2289 122.713C80.5456 108.584 104.034 84.882 167.908 84.882C177.236 84.882 187.201 85.4046 197.533 86.4304C208.738 87.5443 219.617 88.111 229.873 88.111C269.651 88.1082 301.882 79.8957 325.665 63.699C326.836 62.9042 327.984 62.09 329.101 61.2594C346.491 74.1447 377.114 88.111 428.116 88.111C438.382 88.111 449.264 87.5443 460.472 86.4304C470.804 85.4046 480.769 84.882 490.093 84.882C553.964 84.882 577.456 108.587 585.776 122.718L592.822 134.688H610.05C622.594 134.688 632.8 143.659 632.8 154.685V322.312C632.8 333.341 622.594 342.31 610.05 342.31H592.822L585.776 354.285C577.456 368.413 553.964 392.115 490.093 392.115C480.769 392.115 470.804 391.596 460.472 390.567C449.274 389.453 438.391 388.889 428.131 388.889C388.353 388.889 356.122 397.102 332.333 413.301C331.169 414.093 330.024 414.907 328.904 415.741Z" fill="#EEE0B3"/>
<rect id="Rectangle 187" x="281" y="61.5962" width="96" height="20" fill="#E8D59A"/>
<rect id="Rectangle 189" x="66" y="101.596" width="524" height="20" fill="#E8D59A"/>
<rect id="Rectangle 190" x="17" y="141.596" width="621" height="20" fill="#E8D59A"/>
<rect id="Rectangle 191" x="17" y="181.596" width="621" height="20" fill="#E8D59A"/>
<rect id="Rectangle 192" x="17" y="221.596" width="621" height="20" fill="#E8D59A"/>
<rect id="Rectangle 193" x="17" y="261.596" width="621" height="20" fill="#E8D59A"/>
<rect id="Rectangle 194" x="17" y="301.596" width="621" height="20" fill="#E8D59A"/>
<rect id="Rectangle 195" x="34" y="341.596" width="588" height="20" fill="#E8D59A"/>
<rect id="Rectangle 196" x="100" y="381.596" width="458" height="20" fill="#E8D59A"/>
<path id="path52_2" d="M336.365 425.911C337.34 425.185 338.342 424.472 339.365 423.776L339.369 423.774C360.429 409.433 389.933 401.53 428.132 401.53C437.941 401.53 448.409 402.069 459.233 403.146L461.236 403.339C471.228 404.277 480.925 404.756 490.094 404.756C556.488 404.756 584.695 380.178 596.021 361.646L596.547 360.768L596.549 360.764L599.97 354.951H610.05C627.933 354.951 645.301 341.852 645.301 322.453V154.826C645.301 135.43 627.934 122.329 610.05 122.329H599.97L596.548 116.517C585.582 97.891 557.543 72.523 490.094 72.5229C480.312 72.5229 469.932 73.0704 459.237 74.1323H459.235C448.398 75.2094 437.929 75.7515 428.115 75.7515C379.547 75.7514 351.59 62.5056 336.543 51.3569L329.088 45.8325L321.643 51.3696C320.678 52.0868 319.675 52.7978 318.642 53.4995L318.636 53.5034L318.629 53.5083C297.905 67.6218 268.992 75.5003 231.657 75.7456L229.873 75.7515C220.069 75.7515 209.604 75.2094 198.77 74.1323H198.768C188.073 73.0704 177.693 72.5229 167.908 72.5229C100.457 72.523 72.4207 97.8873 61.457 116.512L61.4561 116.514L58.0342 122.329H47.9512C30.0674 122.329 12.7013 135.43 12.7012 154.826V322.453C12.7012 341.852 30.0685 354.95 47.9512 354.951H58.0352L61.4561 360.764L61.457 360.766C72.4206 379.391 100.457 404.756 167.908 404.756C177.691 404.756 188.072 404.211 198.771 403.146H198.771C209.599 402.069 220.064 401.53 229.873 401.53C278.455 401.53 306.413 414.774 321.462 425.924L328.919 431.45L336.365 425.911Z" stroke="#C89A5C" stroke-width="25"/>
<g id="Vector_2">
<path d="M418.142 514.978L183.169 502.558L206.843 452.514L194.091 398.643L426.512 435.348L429.958 402.563L508.046 484.171L414.696 547.763L418.142 514.978Z" fill="#B5302B"/>
<path d="M438.408 427.907L436.151 449.387L209.479 413.498L217.255 454.128L201.201 492.258L430.381 504.28L428.249 524.567L490.546 482.854L438.408 427.907Z" fill="#C89A5C"/>
<path d="M444.721 445.763L443.491 457.468L219.366 422.073L227.074 454.64L212.763 484.897L439.349 496.874L438.119 508.579L478.504 481.067L444.721 445.763Z" fill="#DFCEA3"/>
</g>
<g id="Lights">
<circle id="Ellipse 127" cx="5.05582" cy="5.05582" r="5.05582" transform="matrix(-0.190809 -0.981627 -0.981627 0.190809 132.855 431.926)" fill="#F4E13E"/>
<circle id="Ellipse 133" cx="5.05582" cy="5.05582" r="5.05582" transform="matrix(-0.190809 -0.981627 -0.981627 0.190809 115.855 431.926)" fill="#F4E13E"/>
<circle id="Ellipse 129" cx="5.05582" cy="5.05582" r="5.05582" transform="matrix(-0.190809 -0.981627 -0.981627 0.190809 149.855 431.926)" fill="#F4E13E"/>
<circle id="Ellipse 130" cx="5.05582" cy="5.05582" r="5.05582" transform="matrix(-0.190809 -0.981627 -0.981627 0.190809 166.855 431.926)" fill="#F4E13E"/>
<circle id="Ellipse 131" cx="5.05582" cy="5.05582" r="5.05582" transform="matrix(-0.190809 -0.981627 -0.981627 0.190809 183.855 431.926)" fill="#F4E13E"/>
<circle id="Ellipse 132" cx="5.05582" cy="5.05582" r="5.05582" transform="matrix(-0.190809 -0.981627 -0.981627 0.190809 200.855 431.926)" fill="#F4E13E"/>
<circle id="Ellipse 149" cx="5.05582" cy="5.05582" r="5.05582" transform="matrix(-0.190809 -0.981627 -0.981627 0.190809 469.855 431.926)" fill="#F4E13E"/>
<circle id="Ellipse 150" cx="5.05582" cy="5.05582" r="5.05582" transform="matrix(-0.190809 -0.981627 -0.981627 0.190809 486.855 431.926)" fill="#F4E13E"/>
<circle id="Ellipse 151" cx="5.05582" cy="5.05582" r="5.05582" transform="matrix(-0.190809 -0.981627 -0.981627 0.190809 502.855 431.926)" fill="#F4E13E"/>
<circle id="Ellipse 152" cx="5.05582" cy="5.05582" r="5.05582" transform="matrix(-0.190809 -0.981627 -0.981627 0.190809 519.855 431.926)" fill="#F4E13E"/>
<circle id="Ellipse 153" cx="5.05582" cy="5.05582" r="5.05582" transform="matrix(-0.190809 -0.981627 -0.981627 0.190809 536.855 431.926)" fill="#F4E13E"/>
<circle id="Ellipse 154" cx="5.05582" cy="5.05582" r="5.05582" transform="matrix(-0.190809 -0.981627 -0.981627 0.190809 553.855 431.926)" fill="#F4E13E"/>
<circle id="Ellipse 155" cx="5.05582" cy="5.05582" r="5.05582" transform="matrix(-0.190809 -0.981627 -0.981627 0.190809 569.855 413.926)" fill="#F4E13E"/>
<circle id="Ellipse 128" cx="5.05582" cy="5.05582" r="5.05582" transform="matrix(-0.190809 -0.981627 -0.981627 0.190809 99.8555 415.926)" fill="#F4E13E"/>
<circle id="Ellipse 156" cx="126.928" cy="48.9274" r="5.05582" transform="rotate(101 126.928 48.9274)" fill="#F4E13E"/>
<circle id="Ellipse 157" cx="109.928" cy="48.9274" r="5.05582" transform="rotate(101 109.928 48.9274)" fill="#F4E13E"/>
<circle id="Ellipse 158" cx="143.928" cy="48.9274" r="5.05582" transform="rotate(101 143.928 48.9274)" fill="#F4E13E"/>
<circle id="Ellipse 159" cx="160.928" cy="48.9274" r="5.05582" transform="rotate(101 160.928 48.9274)" fill="#F4E13E"/>
<circle id="Ellipse 160" cx="177.928" cy="48.9274" r="5.05582" transform="rotate(101 177.928 48.9274)" fill="#F4E13E"/>
<circle id="Ellipse 161" cx="194.928" cy="48.9274" r="5.05582" transform="rotate(101 194.928 48.9274)" fill="#F4E13E"/>
<circle id="Ellipse 162" cx="209.928" cy="39.9274" r="5.05582" transform="rotate(101 209.928 39.9274)" fill="#F4E13E"/>
<circle id="Ellipse 163" cx="224.928" cy="30.9274" r="5.05582" transform="rotate(101 224.928 30.9274)" fill="#F4E13E"/>
<circle id="Ellipse 164" cx="241.928" cy="23.9274" r="5.05582" transform="rotate(101 241.928 23.9274)" fill="#F4E13E"/>
<circle id="Ellipse 165" cx="259.928" cy="17.9274" r="5.05582" transform="rotate(101 259.928 17.9274)" fill="#F4E13E"/>
<circle id="Ellipse 166" cx="278.928" cy="12.9274" r="5.05582" transform="rotate(101 278.928 12.9274)" fill="#F4E13E"/>
<circle id="Ellipse 167" cx="296.928" cy="9.92743" r="5.05582" transform="rotate(101 296.928 9.92743)" fill="#F4E13E"/>
<circle id="Ellipse 168" cx="314.928" cy="8.92743" r="5.05582" transform="rotate(101 314.928 8.92743)" fill="#F4E13E"/>
<circle id="Ellipse 169" cx="332.928" cy="7.92743" r="5.05582" transform="rotate(101 332.928 7.92743)" fill="#F4E13E"/>
<circle id="Ellipse 170" cx="350.928" cy="8.92743" r="5.05582" transform="rotate(101 350.928 8.92743)" fill="#F4E13E"/>
<circle id="Ellipse 171" cx="368.928" cy="10.9274" r="5.05582" transform="rotate(101 368.928 10.9274)" fill="#F4E13E"/>
<circle id="Ellipse 172" cx="386.928" cy="14.9274" r="5.05582" transform="rotate(101 386.928 14.9274)" fill="#F4E13E"/>
<circle id="Ellipse 173" cx="402.928" cy="19.9274" r="5.05582" transform="rotate(101 402.928 19.9274)" fill="#F4E13E"/>
<circle id="Ellipse 174" cx="419.928" cy="25.9274" r="5.05582" transform="rotate(101 419.928 25.9274)" fill="#F4E13E"/>
<circle id="Ellipse 175" cx="435.928" cy="33.9274" r="5.05582" transform="rotate(101 435.928 33.9274)" fill="#F4E13E"/>
<circle id="Ellipse 176" cx="450.928" cy="41.9274" r="5.05582" transform="rotate(101 450.928 41.9274)" fill="#F4E13E"/>
<circle id="Ellipse 177" cx="463.928" cy="48.9274" r="5.05582" transform="rotate(101 463.928 48.9274)" fill="#F4E13E"/>
<circle id="Ellipse 178" cx="480.928" cy="48.9274" r="5.05582" transform="rotate(101 480.928 48.9274)" fill="#F4E13E"/>
<circle id="Ellipse 179" cx="496.928" cy="48.9274" r="5.05582" transform="rotate(101 496.928 48.9274)" fill="#F4E13E"/>
<circle id="Ellipse 180" cx="513.928" cy="48.9274" r="5.05582" transform="rotate(101 513.928 48.9274)" fill="#F4E13E"/>
<circle id="Ellipse 181" cx="530.928" cy="48.9274" r="5.05582" transform="rotate(101 530.928 48.9274)" fill="#F4E13E"/>
<circle id="Ellipse 182" cx="547.928" cy="48.9274" r="5.05582" transform="rotate(101 547.928 48.9274)" fill="#F4E13E"/>
<circle id="Ellipse 183" cx="563.928" cy="66.9274" r="5.05582" transform="rotate(101 563.928 66.9274)" fill="#F4E13E"/>
<circle id="Ellipse 184" cx="93.9278" cy="64.9274" r="5.05582" transform="rotate(101 93.9278 64.9274)" fill="#F4E13E"/>
<circle id="Ellipse 106" cx="5.99951" cy="5.99951" r="5.99951" transform="matrix(-0.104528 0.994522 0.994522 0.104528 427.903 469.911)" fill="#F4E13E"/>
<circle id="Ellipse 107" cx="5.99951" cy="5.99951" r="5.99951" transform="matrix(-0.104528 0.994522 0.994522 0.104528 406.424 467.653)" fill="#F4E13E"/>
<circle id="Ellipse 108" cx="5.99951" cy="5.99951" r="5.99951" transform="matrix(-0.104528 0.994522 0.994522 0.104528 384.943 465.396)" fill="#F4E13E"/>
<circle id="Ellipse 109" cx="5.99951" cy="5.99951" r="5.99951" transform="matrix(-0.104528 0.994522 0.994522 0.104528 363.463 463.137)" fill="#F4E13E"/>
<circle id="Ellipse 110" cx="5.99951" cy="5.99951" r="5.99951" transform="matrix(-0.104528 0.994522 0.994522 0.104528 341.983 460.879)" fill="#F4E13E"/>
<circle id="Ellipse 111" cx="5.99951" cy="5.99951" r="5.99951" transform="matrix(-0.104528 0.994522 0.994522 0.104528 320.503 458.623)" fill="#F4E13E"/>
<circle id="Ellipse 112" cx="5.99951" cy="5.99951" r="5.99951" transform="matrix(-0.104528 0.994522 0.994522 0.104528 299.023 456.365)" fill="#F4E13E"/>
<circle id="Ellipse 113" cx="5.99951" cy="5.99951" r="5.99951" transform="matrix(-0.104528 0.994522 0.994522 0.104528 277.544 454.107)" fill="#F4E13E"/>
<circle id="Ellipse 114" cx="5.99951" cy="5.99951" r="5.99951" transform="matrix(-0.104528 0.994522 0.994522 0.104528 256.063 451.849)" fill="#F4E13E"/>
<circle id="Ellipse 115" cx="5.99951" cy="5.99951" r="5.99951" transform="matrix(-0.104528 0.994522 0.994522 0.104528 234.584 449.591)" fill="#F4E13E"/>
</g>
</g>
</svg>
