<svg width="140" height="33" viewBox="0 0 140 33" fill="none" xmlns="http://www.w3.org/2000/svg">
<path d="M0 21.4287C0 27.346 4.79695 32.1429 10.7143 32.1429H129.286C135.203 32.1429 140 27.346 140 21.4287V8.7738e-05H0V21.4287Z" fill="#C89A5C"/>
<path d="M9.7998 0C9.7998 2.76142 12.0384 5 14.7998 5H125.2C127.961 5 130.2 2.76142 130.2 0V0H9.7998V0Z" fill="#DFCEA3"/>
<path d="M38.3859 10.5067C36.2822 6.00656 51.6137 17.032 68.1716 17.6516C84.7297 18.2711 101.103 8.83342 98.3498 12.7502C90.2833 18.4788 72.834 24.2592 67.9621 24.0769C62.7149 23.8804 43.4364 16.7259 38.3859 10.5067ZM67.7995 18.6345C67.14 19.8042 66.6411 20.2654 65.5291 20.7522C66.6951 21.1559 67.1001 21.7295 67.6467 23.0234C68.2433 21.7628 68.694 21.2246 69.9181 20.9047C68.738 20.3348 68.2807 19.8252 67.7995 18.6345Z" fill="#EEE0B3"/>
<path d="M37.2778 9.29358C37.5183 9.31004 37.8286 9.36703 38.2095 9.4635C39.7442 9.85229 42.2108 10.8225 45.3696 11.9615C51.6545 14.2279 60.5661 17.1168 69.7349 17.1168C78.9011 17.1167 87.913 14.339 94.2505 12.1276C97.4351 11.0163 99.9172 10.0587 101.438 9.64807C101.815 9.54616 102.121 9.48224 102.356 9.45667C102.579 9.4324 102.694 9.44907 102.744 9.46643C102.743 9.47189 102.743 9.47892 102.742 9.48694C102.728 9.57738 102.663 9.73477 102.506 9.9801C98.204 13.2595 91.1346 16.7428 84.4517 19.4117C81.102 20.7495 77.8572 21.8794 75.1187 22.6744C72.3701 23.4724 70.1614 23.9243 68.8677 23.9244C67.4686 23.9244 65.1334 23.4719 62.3042 22.6744C59.4842 21.8795 56.1999 20.7495 52.9146 19.4127C49.629 18.0758 46.347 16.5341 43.5298 14.9156C40.7242 13.3038 38.4009 11.6275 36.9878 10.0172C36.8515 9.74338 36.8015 9.5618 36.7983 9.45081C36.7969 9.39828 36.8057 9.37427 36.8101 9.36584C36.8132 9.35978 36.8196 9.35061 36.8413 9.3385C36.8981 9.30679 37.0279 9.27652 37.2778 9.29358Z" stroke="#DFCEA3" stroke-width="0.602678"/>
</svg>
